<?xml version="1.0" encoding="UTF-8"?>
<svg xmlns="http://www.w3.org/2000/svg" viewBox="0 0 127.3 126.42">
  <defs>
    <style>
      .cls-1 {
        fill: #56a656;
      }

      .cls-2 {
        fill: #3ba13f;
      }

      .cls-3 {
        fill: #56ab56;
      }

      .cls-4 {
        fill: #56b356;
      }

      .cls-5 {
        fill: #fff;
      }

      .cls-6 {
        fill: #003f00;
      }

      .cls-7 {
        isolation: isolate;
      }

      .cls-8 {
        fill: #c4f9af;
      }

      .cls-9 {
        fill: #56af56;
      }

      .cls-10 {
        fill: #00a900;
      }

      .cls-11 {
        mix-blend-mode: multiply;
      }

      .cls-12 {
        fill: #008d00;
      }

      .cls-13 {
        fill: #569156;
      }
    </style>
  </defs>
  <g class="cls-7">
    <g id="Camada_2" data-name="Camada 2">
      <g id="OBJECTS">
        <g>
          <path class="cls-6" d="M114.32,24.14C99.22,3.52,71.12-4.17,46.36,2.15,24.7,7.67,7.2,25.48,1.36,47.63.61,50.49.03,52.19,0,55.08c-.04,4.03,3.79,1.37,3.79,1.37,0,0,.91-4.23,1.92-7.12,3.6-10.33,6.01-16.19,12.9-24.37C29.02,12.62,45.65,4.61,63.39,4.24c23.65-.49,60.18,18.06,58.94,60.24-.59,19.98-9.52,35.36-21.08,44.56-8.32,6.63-17.99,10.27-26.9,11.68-9.87,1.57-23.21,1.27-36.42-4.76-3.69-1.68-7.11-2.67-10.53-4.44l.39-.5c1.03-1.34,2.08-3.23,1.06-4.58-.43-.56-1.12-.84-1.79-1.08-2.6-.91-7.74-1.73-11.33-2.02-1.87-.15-3.46,1.34-3.46,3.21,1.06,4.82,2.25,7.96,3.57,12.14.49,1.57.7,1.73,2.9,1.67,1.27-.03,2.44-.74,3.21-1.74l2.19-2.84c4.89,2.58,11.14,5.12,17.24,7.06,16.34,5.18,31.64,4.28,43,.34,14.35-4.97,25.93-12.68,34.4-26.77,13.16-21.9,10.66-51.65-4.44-72.26Z"/>
          <path class="cls-2" d="M62.85,115.61c-5.23,0-10.13-.68-14.18-1.97-21.85-6.95-33.01-18.13-37.3-37.41-1.03-4.65-1.39-9.81-1.11-16.27.48-11.26,4.1-20.67,11.39-29.63,10.33-12.71,25.22-19.71,41.91-19.71.97,0,1.95.02,2.93.07,16.07.79,31.47,9.15,41.2,22.38,16.64,22.62,9.9,51.71-4.89,67.6-8.45,9.07-24.13,14.94-39.94,14.94h0Z"/>
          <path class="cls-5" d="M66.22,18.87c-14.61-.71-28.54,4.8-38.24,16.74-6.15,7.56-9.28,15.5-9.7,25.23-.2,4.66-.07,9.36.94,13.92,3.52,15.82,18.03,29.22,34,32.01,17.33,3.03,33.15-.51,43.96-12.11,12.83-13.78,17.04-37.75,3.11-56.7-8.31-11.29-20.47-18.43-34.06-19.09Z"/>
          <g class="cls-11">
            <path class="cls-8" d="M49.03,104.02c-5.6-3.85-11.79-8.76-15.89-14.16-7.74-10.19-9.46-23.66-7.31-36.26,2.13-12.49,11.42-21.5,22.79-26.26,11.82-4.95,25.87-6,37.83-.99,1.82.76,3.6,1.64,5.33,2.6-7.27-5.99-16.06-9.62-25.56-10.09-14.61-.71-28.54,4.8-38.24,16.74-6.14,7.56-9.28,15.5-9.7,25.23-.2,4.66-.07,9.36.94,13.92,3.52,15.82,18.03,29.22,34,32.01.17.03.34.05.51.08-1.65-.83-3.23-1.81-4.71-2.83Z"/>
          </g>
          <g>
            <path class="cls-4" d="M60.9,40.91c.58,0,1.04,5.98,1.04,13.34s-.47,13.34-1.04,13.34-1.04-5.97-1.04-13.34.47-13.34,1.04-13.34Z"/>
            <path class="cls-4" d="M82.62,66.74c0,.58-4.32,1.02-9.62,1s-9.61-.51-9.61-1.09c0-.57,4.31-1.02,9.62-1s9.62.51,9.61,1.09Z"/>
            <path class="cls-9" d="M33.61,65.72c0,.77-2.09,1.39-4.65,1.39s-4.65-.62-4.65-1.39,2.08-1.39,4.65-1.39,4.65.62,4.65,1.39Z"/>
            <path class="cls-9" d="M60.97,31.61c-.77.06-1.55-1.83-1.75-4.23-.2-2.4.26-4.4,1.03-4.46.76-.06,1.55,1.83,1.74,4.23.2,2.4-.26,4.4-1.02,4.46Z"/>
            <path class="cls-9" d="M64.01,93.64c.77,0,1.39,2.09,1.39,4.65s-.62,4.65-1.39,4.65-1.39-2.08-1.39-4.65.62-4.65,1.39-4.65Z"/>
            <path class="cls-9" d="M104.33,63.24c0,.77-1.95,1.39-4.34,1.39s-4.34-.62-4.34-1.39,1.94-1.39,4.34-1.39,4.34.62,4.34,1.39Z"/>
            <path class="cls-9" d="M37.33,80.6c.21.72-.14,1.58-1.1,2.42-.95.82-1.97,1.11-2.6.7-.67-.43-.32-1.87.78-2.8.55-.48,1.19-.77,1.76-.83.57-.07,1.06.13,1.16.5Z"/>
            <path class="cls-9" d="M46,89.89c.43.65.19,1.56-.33,2.25-.54.68-1.36,1.14-2.09.89-.72-.24-.94-1.51-.11-2.59.84-1.08,2.12-1.19,2.53-.55Z"/>
            <path class="cls-9" d="M81.34,94.89c-.75.16-1.52-.4-1.88-1.16-.4-.79-.04-1.2.07-2,.07-.18.19-.33.38-.42.19-.09.49-.08.76.02.55.19,1.03.65,1.29,1.2.53,1.12.12,2.2-.63,2.36Z"/>
            <path class="cls-9" d="M96.22,85.62c-.54.55-1.67.31-2.54-.53-.87-.84-1.14-1.97-.6-2.53.53-.55,1.67-.31,2.54.54s1.14,1.98.6,2.53Z"/>
            <path class="cls-9" d="M90.61,39c.63.44.46,1.78-.39,2.98-.84,1.21-2.04,1.83-2.67,1.39-.63-.44-.46-1.77.39-2.98.84-1.21,2.04-1.83,2.67-1.39Z"/>
            <path class="cls-9" d="M79.45,30.31c.55.56.93,1.05.86,2.36-.05.64-.28,1.32-.69,1.79-.41.48-.93.57-1.22.33-.55-.56-.93-1.05-.86-2.35.05-.64.28-1.32.69-1.79.41-.48.93-.57,1.22-.33Z"/>
            <path class="cls-9" d="M41.22,40.13c-.56.53-1.76.16-2.67-.82-.91-.98-1.2-2.19-.63-2.72.56-.52,1.75-.15,2.66.82.91.98,1.19,2.19.63,2.72Z"/>
            <path class="cls-9" d="M33.63,50.8c-.2.34-.57.51-1.01.58-.45.06-.98.03-1.66-.28-.69-.31-1.3-.97-1.44-1.54-.16-.57.02-1,.34-1.19.33-.2.75-.16,1.13-.11.39.06.7.11,1.17.33.46.22,1,.59,1.3,1.01.31.42.37.87.18,1.19Z"/>
            <path class="cls-10" d="M60.24,62.82c-2.03.52-3.18,3.17-2.17,5.01,1,1.84,3.84,2.31,5.38.89,1.54-1.42,1.3-4.29-.46-5.44-.85-.55-2.34-.43-2.47.57l-.28-1.02Z"/>
          </g>
          <path class="cls-1" d="M53.43,19.9c0-.06.51-.18,1.51-.35,1-.18,2.48-.42,4.41-.57.48-.04.99-.09,1.53-.14.54-.02,1.1-.03,1.69-.05.59-.02,1.2-.04,1.84-.05.64.02,1.3.04,1.99.07,2.75.08,5.9.44,9.29,1.25,3.39.81,7.03,2.11,10.62,4.13,3.59,2.02,7.1,4.75,10.27,8.11,3.15,3.36,6.12,7.25,8.38,11.77,2.27,4.49,3.86,9.55,4.48,14.85,1.27,10.65-1.48,21-6.24,28.89-2.39,3.96-5.24,7.37-8.35,10.07-3.08,2.73-6.41,4.72-9.57,6.18-6.38,2.9-12.07,3.63-15.9,3.86-.97.07-1.82.07-2.57.08-.74.02-1.37,0-1.88-.04-1.02-.06-1.55-.11-1.55-.17,0-.15,2.14-.12,5.94-.52,3.78-.43,9.33-1.34,15.45-4.29,3.04-1.49,6.22-3.46,9.15-6.15,2.96-2.65,5.67-5.97,7.94-9.81,4.53-7.66,7.12-17.65,5.9-27.9-.6-5.11-2.11-9.97-4.28-14.31-2.15-4.35-5.01-8.15-8.04-11.44-3.05-3.28-6.4-5.96-9.83-7.96-3.43-2.01-6.93-3.33-10.21-4.19-3.28-.87-6.34-1.3-9.05-1.47-.68-.05-1.33-.09-1.96-.13-.63,0-1.24-.01-1.82-.02-.58,0-1.14-.01-1.67-.02-.53.02-1.04.04-1.51.06-1.92.04-3.4.18-4.41.25-1.01.06-1.55.07-1.56.01Z"/>
          <path class="cls-1" d="M86.46,102.7s-.36.48-1.32,1.04c-.95.57-2.51,1.14-4.51,1.64-1.99.51-4.4,1.27-7.27,1.97-1.44.35-3,.67-4.68.85-.85.11-1.71.09-2.59.14-.89.02-1.8.12-2.73.07-3.74-.03-7.82-.52-12.1-1.54-4.28-1.03-8.7-2.79-12.98-5.28-4.27-2.5-8.39-5.84-11.8-10.06-3.42-4.2-6.08-9.28-7.56-14.83-.85-2.75-1.21-5.6-1.4-8.37-.18-2.78-.15-5.51,0-8.19.3-5.38,1.53-10.57,3.63-15.08,4.25-9.04,10.85-15.52,17.13-19.52,6.35-4.02,12.33-5.57,16.41-6.23,1.03-.16,1.94-.29,2.74-.35.8-.08,1.47-.14,2.02-.14,1.09-.03,1.66-.02,1.67.04.01.16-2.28.27-6.3,1.09-3.98.85-9.79,2.55-15.88,6.59-3.02,2.02-6.1,4.6-8.94,7.8-2.81,3.22-5.47,6.99-7.43,11.36-1.98,4.36-3.13,9.32-3.4,14.53-.14,2.62-.16,5.3.02,7.99.2,2.69.53,5.4,1.36,8.04,1.42,5.32,3.96,10.18,7.22,14.23,3.26,4.06,7.19,7.3,11.3,9.76,4.12,2.45,8.39,4.2,12.54,5.26,4.15,1.05,8.13,1.59,11.78,1.7,7.35.46,13.03-1.71,17.11-2.47,2.02-.41,3.54-.85,4.51-1.3.98-.44,1.43-.79,1.48-.73Z"/>
          <path class="cls-12" d="M60.25,38.1c-1.08,1.27-2.02,2.66-2.79,4.14-.2.39-.4.82-.29,1.25.22.88,1.44.96,2.34.84l2.94-.38c.64-.08,1.43-.31,1.52-.95.04-.27-.07-.53-.19-.77-.65-1.35-1.58-2.56-2.72-3.53l-.8-.6Z"/>
          <path class="cls-12" d="M84.68,66.36c-1.27-1.08-2.66-2.02-4.14-2.79-.39-.2-.82-.4-1.25-.29-.88.22-.96,1.44-.84,2.34.13.98.26,1.96.38,2.94.08.64.31,1.43.95,1.52.27.04.53-.07.77-.19,1.35-.65,2.56-1.58,3.53-2.72l.6-.8Z"/>
          <path class="cls-13" d="M42.37,111.15c.02-.05.65.14,1.8.55.58.2,1.28.49,2.13.76.86.25,1.85.53,2.97.85,1.11.32,2.39.52,3.76.83,1.38.29,2.91.42,4.53.67,3.27.25,7.02.49,11.14.09,4.11-.35,8.6-1.08,13.23-2.52,4.61-1.47,9.38-3.6,13.82-6.71.58-.35,1.1-.79,1.63-1.22.53-.43,1.07-.86,1.61-1.29,1.06-.89,2.01-1.92,3.04-2.89.95-1.05,1.86-2.16,2.8-3.26.84-1.18,1.72-2.35,2.54-3.57,3.22-4.95,5.76-10.6,7.34-16.66,1.58-6.06,2.12-12.23,1.65-18.11-.47-5.88-1.95-11.45-4.17-16.4-.6-1.21-1.24-2.39-1.84-3.57l-.45-.88-.53-.82c-.36-.55-.71-1.09-1.06-1.63-.35-.54-.7-1.07-1.05-1.6-.35-.53-.76-1.01-1.13-1.51-.74-1.01-1.56-1.92-2.35-2.85-3.2-3.63-6.69-6.55-10.08-8.89-6.82-4.67-13.24-6.96-17.71-8.11-4.49-1.15-7.08-1.37-7.06-1.54,0-.06.65-.03,1.88.06.62.04,1.37.13,2.26.27.45.07.93.14,1.44.22.51.11,1.05.22,1.62.34,2.3.48,5.07,1.27,8.18,2.5,3.1,1.23,6.53,2.93,10.05,5.26,3.5,2.33,7.12,5.26,10.45,8.95.81.94,1.67,1.86,2.44,2.89.39.51.82,1,1.18,1.54.36.54.73,1.09,1.1,1.64.37.55.74,1.11,1.11,1.66l.56.84.48.9c.63,1.21,1.3,2.42,1.93,3.67,2.33,5.09,3.89,10.84,4.4,16.91.51,6.07-.03,12.43-1.66,18.67-1.63,6.24-4.25,12.06-7.59,17.14-.86,1.26-1.77,2.46-2.64,3.68-.98,1.13-1.92,2.27-2.91,3.36-1.08,1-2.07,2.08-3.18,2.99-.56.45-1.13.89-1.68,1.33-.56.44-1.1.89-1.71,1.25-4.63,3.18-9.56,5.32-14.3,6.77-4.76,1.42-9.36,2.09-13.55,2.37-4.2.33-8.02,0-11.34-.35-1.65-.29-3.19-.48-4.58-.82-1.38-.36-2.67-.61-3.78-.99-1.11-.38-2.1-.72-2.95-1.01-.84-.32-1.53-.67-2.09-.92-1.12-.52-1.69-.81-1.67-.87Z"/>
          <path class="cls-13" d="M88.29,16.62c-.03.05-.66-.18-1.83-.67-.58-.25-1.3-.56-2.15-.93-.85-.36-1.88-.65-3.01-1.05-4.53-1.5-11.4-3.09-19.95-2.69-4.26.27-8.89,1.03-13.68,2.5-4.8,1.45-9.67,3.8-14.31,6.95-1.21.73-2.28,1.67-3.42,2.54-1.16.85-2.2,1.87-3.27,2.88-.52.51-1.1.99-1.59,1.54-.49.55-.99,1.11-1.48,1.67-.49.57-1.01,1.11-1.49,1.7-.46.6-.95,1.19-1.39,1.81-3.65,4.9-6.6,10.6-8.16,16.88-.8,3.13-1.23,6.31-1.42,9.46-.18,3.16-.2,6.3,0,9.35.2,3.05.6,6.02,1.36,8.87.18.71.36,1.43.53,2.13.22.69.43,1.38.65,2.07.39,1.39.97,2.69,1.45,4.01,2.14,5.19,5.17,9.66,8.63,13.24,3.48,3.58,7.37,6.24,11.07,8.34,3.72,2.1,7.33,3.55,10.5,4.79.8.29,1.58.56,2.32.83.75.27,1.45.53,2.15.7,1.4.36,2.71.59,3.9.79,2.37.39,4.23.63,5.48.8,1.26.17,1.92.28,1.91.34,0,.06-.67.06-1.95,0-1.27-.07-3.14-.2-5.55-.49-1.2-.15-2.54-.33-3.99-.66-.74-.15-1.48-.41-2.23-.65-.76-.25-1.55-.5-2.37-.77-3.24-1.16-6.92-2.55-10.76-4.63-3.82-2.07-7.86-4.74-11.5-8.4-3.62-3.66-6.81-8.29-9.07-13.62-.51-1.35-1.12-2.69-1.52-4.12-.22-.7-.45-1.41-.68-2.13-.19-.72-.37-1.45-.56-2.18-.79-2.92-1.23-6.02-1.45-9.14-.2-3.14-.2-6.32-.02-9.55.19-3.24.62-6.53,1.46-9.78.83-3.24,1.97-6.37,3.42-9.29,1.45-2.92,3.17-5.64,5.05-8.16.46-.64.96-1.24,1.44-1.85.49-.6,1.03-1.17,1.54-1.75.52-.58,1.03-1.15,1.54-1.72.51-.57,1.1-1.05,1.65-1.58,1.11-1.03,2.18-2.08,3.39-2.95,1.18-.9,2.29-1.86,3.54-2.6,4.81-3.21,9.84-5.57,14.77-7,4.93-1.45,9.68-2.16,14.04-2.35,8.75-.26,15.71,1.55,20.22,3.26,1.13.45,2.15.8,2.99,1.21.83.43,1.53.79,2.1,1.08,1.13.59,1.71.93,1.68.98Z"/>
          <path class="cls-3" d="M63,63.27c.04-.07.34-.02.75.3.41.31.9.94,1.13,1.86.22.9.2,2.15-.59,3.27-.78,1.14-2.37,1.71-3.84,1.45-1.47-.23-2.8-1.28-3.17-2.61-.39-1.31,0-2.5.49-3.28.52-.8,1.18-1.24,1.67-1.4.49-.17.79-.12.8-.04.07.2-1.01.51-1.64,1.9-.3.67-.46,1.59-.15,2.43.29.83,1.15,1.5,2.21,1.68,1.06.17,2.1-.18,2.63-.88.57-.69.71-1.62.64-2.35-.15-1.52-1.08-2.16-.94-2.33Z"/>
          <path class="cls-3" d="M64.49,65.7c-.21.06-.46-.49-1.05-1.05-.6-.54-1.65-1.08-2.87-1.01-.59.03-1.12.22-1.48.49-.4.26-.53.67-.68,1.03-.02.2-.06.38-.09.55-.02.17,0,.32-.03.45-.02.26-.08.43-.17.46-.09.03-.21-.09-.35-.34-.06-.13-.16-.29-.21-.49-.04-.21-.08-.45-.11-.73.04-.54.18-1.31.8-1.85.57-.55,1.4-.86,2.24-.91,1.7-.1,3.11.84,3.68,1.75.27.47.42.87.42,1.18.02.3-.02.46-.11.48Z"/>
        </g>
      </g>
    </g>
  </g>
</svg>