<?xml version="1.0" encoding="UTF-8"?>
<svg xmlns="http://www.w3.org/2000/svg" viewBox="0 0 65.08 119.15">
  <defs>
    <style>
      .cls-1 {
        mix-blend-mode: lighten;
        opacity: .4;
      }

      .cls-2 {
        fill: #56ab56;
      }

      .cls-3 {
        fill: #fff;
      }

      .cls-4 {
        opacity: .72;
      }

      .cls-5 {
        fill: #003f00;
      }

      .cls-6 {
        fill: #005f00;
      }

      .cls-7 {
        isolation: isolate;
      }

      .cls-8 {
        fill: green;
      }
    </style>
  </defs>
  <g class="cls-7">
    <g id="Camada_2" data-name="Camada 2">
      <g id="OBJECTS">
        <g>
          <path class="cls-5" d="M58.74,118.61s-28.56,1.41-52.43-.31c-3.12-.23-5.94-.99-5.94-6.37-.03-28.22-.97-62.44.24-101.91.1-3.36,1.71-7.98,6.44-8.92,8.3-1.65,44.69-1.29,50.32.09,6.99,1.71,7.15,7.01,7.28,10.37,1.06,27.36-.23,100.95-.23,100.95,0,3.36-2.56,6.11-5.69,6.11Z"/>
          <path class="cls-3" d="M9.24,14.77c5.97-1.47,10.86-1.19,16.95-1.13,6.67,0,20.84-.82,27.46-.06,2.69.31,5.41,1.04,5.67,5.77.69,1.03.76,5.34.85,11.06.4,26.38-1.25,43.18-.82,67.78.04,2.27-.4,4.82-2.19,6.23-1.3,1.03-3.08,1.17-4.74,1.26-8.5.47-16.55.02-25.07,0-4.32-.01-8.63-.15-12.94-.48-4.36-.33-7.77-.51-8.3-5.26-.78-7.07-1.99-77.98.39-82.61.31-.6,2.06-2.39,2.73-2.56Z"/>
          <path class="cls-2" d="M17.6,70.79c-.02.4-.62.66-1.16.67-.57.04-1.2-.19-1.23-.59-.03-.39.41-.78,1.16-.83.77-.02,1.25.37,1.23.75Z"/>
          <path class="cls-2" d="M17.6,76.16c-.02.4-.62.66-1.16.67-.57.04-1.2-.19-1.23-.59-.03-.39.41-.78,1.16-.83.77-.02,1.25.37,1.23.75Z"/>
          <path class="cls-2" d="M17.6,82.75c-.02.4-.62.66-1.17.67-.57.04-1.2-.19-1.23-.59-.03-.39.41-.78,1.16-.83.77-.02,1.25.37,1.23.75Z"/>
          <path class="cls-2" d="M17.6,88.7c-.02.4-.62.66-1.17.67-.57.04-1.2-.19-1.23-.59-.03-.39.41-.78,1.16-.83.77-.02,1.25.37,1.23.75Z"/>
          <path class="cls-2" d="M48.46,70.61c0,.4-6.2.71-13.84.71s-13.84-.32-13.84-.71,6.2-.71,13.84-.71,13.84.32,13.84.71Z"/>
          <path class="cls-2" d="M47.98,76.18c0,.4-5.88.71-13.13.71s-13.12-.32-13.12-.71,5.88-.71,13.12-.71,13.13.32,13.13.71Z"/>
          <path class="cls-2" d="M48.62,82.06c0,.4-6.13.71-13.68.71s-13.68-.32-13.68-.71,6.13-.71,13.68-.71,13.68.32,13.68.71Z"/>
          <path class="cls-2" d="M48.17,88.15c.05.21-1.45.59-3.85.78-2.4.22-5.71.35-9.36.38-7.31.06-13.22-.24-13.23-.6-.01-.43,5.92-.77,13.21-.83,3.65-.03,6.95,0,9.34.03,2.4.07,3.83.05,3.88.23Z"/>
          <path class="cls-8" d="M40.17,6c-.09-.12-.18-.22-.26-.26-.33-.17-.7-.29-1.11-.37-1.55-.32-3.55-.11-4.9-.13-2.26-.02-4.18-.18-6.43-.05-.9.05-3.03.14-3.72.94-.95,1.11-.23,1.88.73,2.26,2.2.88,12.34.93,14.35.38,1.5-.41,2.49-1.2,1.34-2.77Z"/>
          <g class="cls-4">
            <path class="cls-6" d="M20.43,1.67c-3.54-.29-7.13-.08-10.61.62-1.78.36-3.66.91-4.81,2.31-.92,1.11-1.24,2.58-1.46,4-.43,2.72-.61,5.47-.54,8.22.01.46.13,1.05.58,1.14.4.08.73-.31.93-.67,1.14-2.05,1.32-4.52,2.48-6.56,1.38-2.43,3.97-3.95,6.62-4.85,2.65-.9,6.3-.74,7.07-1.85,0,0,1.34-1.77-.41-2.18l.15-.19Z"/>
          </g>
          <path class="cls-2" d="M9.14,14.77s-.86.48-2.05,1.9c-.15.17-.3.37-.43.57-.14.18-.17.46-.26.71-.11.55-.21,1.16-.27,1.83-.15,1.34-.24,2.91-.31,4.67-.3,7.04-.35,17.26-.25,29.88.05,6.31.15,13.22.3,20.64.18,7.41.31,15.36.77,23.65.07,1.04.15,2.02.49,2.88.33.86.89,1.55,1.71,1.96.81.44,1.81.63,2.84.77,1.03.13,2.12.2,3.2.28,4.34.31,8.77.42,13.3.42,4.54.06,9.16.13,13.84.19,2.34.01,4.69,0,7.05-.08,1.18-.04,2.37-.09,3.55-.16,1.16-.07,2.29-.21,3.2-.67.91-.44,1.53-1.25,1.9-2.25.37-1,.51-2.14.59-3.29.13-2.35.23-4.71.32-7.05.16-4.68.25-9.29.33-13.82.15-9.07.2-17.82.27-26.16.07-8.34.13-16.27.26-23.69.02-1.84-.01-3.64-.22-5.37-.21-1.73-.59-3.41-1.34-4.83-.74-1.42-1.92-2.51-3.38-2.95-.37-.08-.74-.16-1.11-.24-.38-.06-.79-.09-1.19-.13-.8-.07-1.58-.13-2.37-.17-6.27-.32-11.98-.25-16.99-.25-2.51,0-4.84.02-6.99,0-2.15-.05-4.11-.11-5.87-.12-3.52-.04-6.24.19-8.07.47-1.83.27-2.79.48-2.8.42,0-.03.23-.11.68-.24.46-.13,1.15-.31,2.06-.49,1.83-.38,4.58-.71,8.12-.76,1.77-.03,3.74-.01,5.88-.01,2.14-.04,4.47-.08,6.98-.12,5.01-.08,10.72-.23,17.06.02.79.03,1.6.09,2.41.15.41.04.81.06,1.23.12.43.09.86.18,1.3.26,1.75.49,3.24,1.85,4.09,3.47.87,1.62,1.29,3.43,1.52,5.24.23,1.82.28,3.67.27,5.54-.04,7.42-.07,15.34-.12,23.68-.03,8.34-.06,17.1-.18,26.18-.06,4.54-.15,9.16-.3,13.85-.08,2.35-.18,4.7-.31,7.1-.09,1.21-.22,2.47-.68,3.72-.44,1.24-1.36,2.48-2.65,3.09-1.26.63-2.58.75-3.79.83-1.21.07-2.4.12-3.6.16-2.39.08-4.76.09-7.11.07-4.69-.07-9.3-.14-13.84-.21-4.54,0-9.03-.14-13.4-.46-1.09-.09-2.18-.16-3.29-.3-1.1-.15-2.25-.36-3.33-.94-1.1-.54-1.98-1.61-2.37-2.73-.43-1.12-.49-2.26-.56-3.3-.43-8.38-.51-16.29-.63-23.72-.1-7.42-.13-14.34-.11-20.66.04-12.63.25-22.86.74-29.92.12-1.77.26-3.33.46-4.69.09-.68.21-1.3.36-1.87.12-.28.16-.57.35-.8.16-.22.33-.41.49-.58,1.28-1.38,2.25-1.8,2.28-1.7Z"/>
          <g class="cls-1">
            <path class="cls-3" d="M29.41,15.38c-7.31-.2-12.01.15-17.53.81-.66.08-1.08.39-1.66.8-1.33.92-1.63,1.58-1.83,3.46-.74,6.92-.78,15.14-.9,22.12-.06,3.7,0,7.43.66,11.04.17.93.52,2.02,1.28,2.15.58.1,1.1-.43,1.51-.95,1.13-1.42,2.13-2.98,3.13-4.55,4.77-7.48,9.53-14.95,14.3-22.43,1.06-1.66,2.11-3.32,3.1-5.04.65-1.14,1.27-2.32,1.62-3.64.59-2.25-1.23-3.69-3.67-3.76Z"/>
          </g>
          <circle class="cls-8" cx="53.38" cy="7.14" r="1.5"/>
        </g>
      </g>
    </g>
  </g>
</svg>