<?xml version="1.0" encoding="UTF-8"?>
<svg xmlns="http://www.w3.org/2000/svg" viewBox="0 0 137.37 140.26">
  <defs>
    <style>
      .cls-1 {
        fill: #effee4;
      }

      .cls-2 {
        fill: #56c456;
      }

      .cls-3 {
        fill: #86e447;
      }

      .cls-4 {
        opacity: .58;
      }

      .cls-4, .cls-5, .cls-6 {
        mix-blend-mode: multiply;
      }

      .cls-7 {
        fill: #56a856;
      }

      .cls-8 {
        mix-blend-mode: lighten;
        opacity: .4;
      }

      .cls-9 {
        fill: #566f56;
      }

      .cls-10 {
        fill: #56ab56;
      }

      .cls-11 {
        fill: #090;
      }

      .cls-12 {
        fill: #96c294;
      }

      .cls-13 {
        fill: #fff;
      }

      .cls-5 {
        opacity: .25;
      }

      .cls-14 {
        fill: #98e477;
      }

      .cls-15 {
        fill: #003f00;
      }

      .cls-16 {
        isolation: isolate;
      }

      .cls-17 {
        fill: #569256;
      }

      .cls-18 {
        fill: #c4f9af;
      }

      .cls-19 {
        fill: #005900;
      }
    </style>
  </defs>
  <g class="cls-16">
    <g id="Camada_2" data-name="Camada 2">
      <g id="OBJECTS">
        <g>
          <path class="cls-1" d="M28.74,81.11c-.32,10.62,0,25.55.62,31.79.21,2.08.73,4.34,2.37,5.63,1.32,1.04,3.11,1.18,4.79,1.29,19.46,1.22,29.02,1.36,58.27-.58,2.24-.15,5.59.04,7.25-1.48,2.73-2.51,1.85-5.56,1.88-9.27.03-4.43.07-12.18.1-16.61.02-3.07-1.25-14.39-.78-13.17.47,1.22-6.49-7.21-12.29-11.66-7.26-5.56-14.9-11.7-22.53-16.73-1.61-1.06-3.29-2.15-5.2-2.42-4.42-.62-7.76,3.49-10.93,6.64-12.48,12.4-23.27,21.92-23.55,26.57"/>
          <g class="cls-6">
            <path class="cls-18" d="M48.62,89.69c3.67,1.67,12.26,7.4,13.68,6.91,2.43-.85,3.85-1.9,6.13-.32,1.41.97.21,1.83,1.93.96,1.75-.88,8.68-4.3,10.02-5.36,2.99-2.37,5.76-2.82,8.9-4.98,5.73-3.94,9.22-5.63,13.96-8.17l-74.04.68c-.08.18-.12.34-.18.51,6.24,4.51,12.58,6.59,19.6,9.78Z"/>
          </g>
          <g class="cls-4">
            <path class="cls-18" d="M103.24,78.72s-8.09-7.87-13.4-12.77c-6.72-6.2-13.79-10.6-21.43-15.63-1.61-1.06-3.29-2.15-5.2-2.42-4.42-.62-7.76,3.49-10.93,6.64-11.43,11.36-21.42,20.29-23.24,25.28l74.2-1.11Z"/>
          </g>
          <path class="cls-12" d="M29.05,79.83s.06-.35.29-.97c.13-.3.33-.66.55-1.1.25-.42.54-.89.9-1.42,1.43-2.07,3.81-4.83,6.92-8.05,3.1-3.23,6.9-6.95,11.08-11.1,1.04-1.04,2.11-2.11,3.21-3.19,1.08-1.09,2.15-2.25,3.36-3.36,1.21-1.1,2.55-2.19,4.21-2.85,1.64-.7,3.65-.74,5.36-.08,1.72.63,3.12,1.65,4.5,2.55,1.38.91,2.75,1.81,4.09,2.69,2.68,1.77,5.25,3.51,7.64,5.26,2.39,1.75,4.61,3.49,6.6,5.22,2.01,1.72,3.73,3.46,5.33,5.02,3.19,3.12,5.76,5.66,7.52,7.44,1.76,1.78,2.7,2.79,2.64,2.85-.06.06-1.12-.83-2.97-2.5-1.86-1.67-4.52-4.11-7.78-7.14-1.64-1.51-3.39-3.21-5.4-4.88-2-1.68-4.21-3.37-6.6-5.08-2.39-1.7-4.96-3.41-7.64-5.17-1.34-.88-2.71-1.77-4.1-2.68-1.39-.9-2.75-1.87-4.24-2.41-1.48-.56-3.06-.53-4.48.06-1.43.56-2.69,1.56-3.85,2.6-1.16,1.06-2.24,2.2-3.34,3.3-1.1,1.08-2.19,2.14-3.24,3.17-4.23,4.11-8.1,7.76-11.26,10.9-3.17,3.13-5.62,5.77-7.15,7.72-1.56,1.94-2.03,3.24-2.14,3.2Z"/>
          <path class="cls-3" d="M131.19,32.68c-7.38-9.9-20.77-13.87-32.74-11.7-7.11,1.29-14.04,4.67-18.69,10.34-4.65,5.67-7.27,14.75-4.85,21.73,2.87,8.3,11.95,14.36,19.21,16.3-1.09,2.85-1.82,4.6-2.8,7.13-.26.67.36,1.36,1.03,1.13,3.39-1.19,9.78-5.43,9.78-5.43,9.54.47,10.69.39,16.32-1.3,3.79-1.14,7.47-2.86,10.48-5.5,9.23-8.1,9.64-22.8,2.26-32.7Z"/>
          <path class="cls-2" d="M91.79,77.89s-.06.04-.17,0c-.13-.05-.19-.24-.21-.44-.04-.42.08-1.01.29-1.75.21-.74.53-1.64.95-2.69.21-.52.44-1.09.7-1.68.21-.47.43-.97.67-1.51-.22-.06-.46-.12-.69-.19-.38-.13-.77-.26-1.17-.39-.79-.29-1.62-.62-2.47-1.01-1.69-.78-3.48-1.76-5.3-3-1.81-1.24-3.65-2.72-5.36-4.55-1.71-1.82-3.29-4.01-4.4-6.58-1.14-2.56-1.67-5.52-1.54-8.55.08-1.51.33-3.04.72-4.55.4-1.51.96-2.99,1.63-4.45,1.39-2.89,3.17-5.64,5.52-8.1,1.17-1.22,2.5-2.31,3.92-3.27,1.42-.97,2.93-1.83,4.52-2.54,4.61-2.12,9.61-3.09,14.38-2.99,4.71.04,9.35.56,13.51,2.02,4.14,1.5,7.74,3.76,10.6,6.42,2.87,2.66,4.98,5.7,6.38,8.7,1.41,3.01,2.12,5.95,2.46,8.54.38,2.6.24,4.87.11,6.69-.23,1.82-.47,3.22-.75,4.15-.25.93-.4,1.41-.45,1.4-.05-.01,0-.52.14-1.46.18-.94.32-2.34.45-4.13.15-3.56-.13-8.94-2.96-14.71-1.41-2.86-3.48-5.73-6.26-8.23-2.77-2.5-6.25-4.62-10.2-6.01-3.97-1.36-8.43-1.84-13.05-1.85-4.58-.07-9.32.86-13.72,2.88-1.51.68-2.95,1.49-4.29,2.4-1.34.91-2.6,1.93-3.69,3.07-2.19,2.26-3.95,4.96-5.27,7.67-.64,1.37-1.18,2.77-1.57,4.18-.37,1.42-.62,2.84-.71,4.25-.15,2.82.32,5.56,1.34,7.96,1,2.41,2.46,4.5,4.06,6.28,1.61,1.78,3.36,3.25,5.09,4.49,1.73,1.24,3.45,2.24,5.08,3.05.81.41,1.61.75,2.37,1.06.38.14.76.28,1.12.42.52.16,1.02.32,1.51.48-.4.79-.77,1.54-1.12,2.24-.28.58-.54,1.13-.78,1.63-.47,1.02-.84,1.88-1.11,2.59-.26.71-.43,1.26-.46,1.62-.06.4.18.4.18.44Z"/>
          <path class="cls-2" d="M135.41,39.55c.1-.03.41.88.88,2.57.25.84.38,1.9.62,3.13.11.61.13,1.28.2,1.99.03.35.06.72.09,1.09,0,.38,0,.76,0,1.15-.03,3.13-.58,7.03-2.73,10.72-1.05,1.84-2.45,3.6-4.13,5.16-1.69,1.55-3.52,2.99-5.7,4.18-2.17,1.16-4.49,1.83-6.72,2.24-2.24.41-4.41.58-6.45.72-2.05.13-3.98.23-5.77.4-.89.08-1.76.19-2.57.3-.78.12-1.53.35-2.23.6-1.4.53-2.67,1.12-3.76,1.68-1.1.54-2.05,1.01-2.82,1.39-1.56.75-2.45,1.12-2.5,1.02-.05-.09.74-.64,2.21-1.55.74-.45,1.66-1,2.71-1.63,1.06-.64,2.29-1.3,3.76-1.93.74-.3,1.54-.58,2.42-.76.86-.15,1.73-.29,2.64-.4,1.82-.23,3.77-.38,5.8-.55,2.03-.17,4.14-.37,6.28-.79,2.13-.4,4.29-1.04,6.28-2.12,1.96-1.06,3.8-2.48,5.39-3.92,1.59-1.46,2.92-3.07,3.93-4.77,2.07-3.38,2.7-7.03,2.87-10.03.02-.38.04-.75.06-1.11-.01-.36-.02-.71-.03-1.06-.03-.68,0-1.34-.08-1.94-.15-1.2-.19-2.26-.35-3.11-.28-1.7-.39-2.66-.28-2.68Z"/>
          <g>
            <g>
              <path class="cls-11" d="M15.08,54.03c-3.53,6.37-6.71,12.94-10.18,19.35-1.12,2.57-2.01,4.61-2.39,5.5-.62,1.44-1.97,4.49-1.78,6.14.27,2.37,2.69,3.12,6.06,2.67,1.49-.2,3.55-4.04,4.17-5.4,2.2-4.83,8.73-14.84,12.42-24.56l-7.66-2.62c-.06-.16-.32-.59-.64-1.09Z"/>
              <path class="cls-17" d="M22.85,59.12c.19.1-.72,2.24-2.24,5.67-1.54,3.42-3.63,8.17-6.32,13.26-1.36,2.54-2.77,4.92-4.33,6.94-.78,1.01-1.62,1.92-2.55,2.65-.92.73-2.04,1.26-3.17,1.23-1.14-.02-2-.61-2.59-1.14-.59-.57-.95-1.19-1.11-1.76-.16-.57-.08-1.05.04-1.33.12-.28.26-.38.3-.36.13.04-.18.62.23,1.48.2.42.57.89,1.11,1.31.55.39,1.24.75,2.01.7.76-.04,1.6-.46,2.36-1.13.77-.67,1.51-1.54,2.22-2.51,1.42-1.95,2.76-4.3,4.1-6.8,2.66-5.03,4.91-9.71,6.7-13.01,1.78-3.32,3.04-5.29,3.23-5.19Z"/>
            </g>
            <path class="cls-19" d="M18.02,2.78c-5.18,2.07-9.74,5.68-12.83,10.8C-1.17,24.13-.41,38.57,7.17,48.27c7.58,9.7,21.56,13.91,33.18,9.83,11.62-4.08,19.91-16.26,19.27-28.56-.5-9.62-6.04-18.52-13.96-23.85C37.49.19,26.85-.75,18.02,2.78Z"/>
            <path class="cls-13" d="M20.46,8.33c-4.03,1.51-7.66,4.36-10.32,8.77-5.07,8.41-4.46,19.92,1.58,27.66,6.05,7.74,17.19,11.09,26.45,7.84,9.26-3.26,15.24-12.95,15.36-22.77.23-18.75-19.32-26.66-33.08-21.49Z"/>
            <g class="cls-5">
              <path class="cls-14" d="M12.34,24.19c3.27-7.13,9.28-13.01,17.23-14.29,5.67-.91,11.33.45,16.48,2.85-6.9-5.9-17.29-7.54-25.58-4.43-4.03,1.51-7.66,4.36-10.32,8.77-5.07,8.41-4.46,19.92,1.58,27.66,1.62,2.07,3.6,3.81,5.81,5.21-6.14-7.24-9.76-15.82-5.19-25.77Z"/>
            </g>
            <g class="cls-8">
              <path class="cls-13" d="M48.4,22.63c-2.07,5.56-4.47,10.89-9.27,14.62-.21.74-.33,1.52-.13,2.26.45,1.63,2.46,2.46,4.11,2.08s2.96-1.65,3.95-3.03c3.26-4.55,3.74-10.9,1.34-15.93Z"/>
            </g>
            <g class="cls-8">
              <path class="cls-13" d="M34.74,42.51c-1.14-.43-2.45.38-3,1.47-1.08,2.15.54,5.14,2.92,5.41,2.39.27,4.63-2.28,4.06-4.62-.33-1.33-1.63-2.5-2.99-2.27h-1Z"/>
            </g>
            <path class="cls-10" d="M32.76,9.52c0,.29-1.59.37-4.04.88-2.43.5-5.76,1.5-8.86,3.56-3.13,2.04-5.17,4.8-6.28,6.99-1.13,2.19-1.51,3.74-1.78,3.69-.23-.03-.31-1.7.58-4.22.86-2.49,3-5.77,6.46-8.01,3.42-2.27,7.1-3.13,9.71-3.31,2.63-.19,4.23.2,4.22.43Z"/>
            <path class="cls-10" d="M9.89,29.86c-.51-.09-.78-.92-.6-1.84.17-.92.72-1.59,1.22-1.5.5.09.77.92.6,1.84-.17.92-.72,1.6-1.22,1.5Z"/>
            <path class="cls-10" d="M10.97,34.31c-.17.19-.46.25-.8.09-.33-.15-.68-.54-.81-1.06-.13-.52-.02-1.02.2-1.32.22-.3.51-.39.75-.3.47.22.72.72.85,1.16.1.45.12,1.01-.19,1.43Z"/>
            <path class="cls-9" d="M18.02,2.78s.39-.26,1.2-.6c.81-.34,2.04-.77,3.67-1.16,3.24-.74,8.24-1.3,14.13.18,2.94.72,6.03,2.03,9.03,3.97,1.48,1,2.93,2.14,4.32,3.43,1.38,1.31,2.68,2.77,3.89,4.37,2.4,3.21,4.31,7.06,5.36,11.31.52,2.13.82,4.35.79,6.62.05,1.14-.11,2.27-.2,3.42-.19,1.13-.34,2.28-.67,3.4-2.32,9.03-8.66,16.28-15.91,19.75-3.61,1.81-7.43,2.61-10.98,2.77-3.56.16-6.88-.33-9.78-1.15-2.91-.82-5.39-1.99-7.45-3.19-1.02-.63-1.95-1.23-2.75-1.87-.84-.59-1.51-1.24-2.14-1.79-1.21-1.16-2.09-2.12-2.6-2.84-.53-.7-.79-1.08-.75-1.12.04-.03.38.28.98.91.58.64,1.52,1.53,2.76,2.59.65.51,1.33,1.11,2.17,1.65.8.59,1.74,1.13,2.75,1.71,2.04,1.1,4.49,2.16,7.31,2.89,2.82.73,6.02,1.13,9.42.92,3.4-.2,7.02-1.02,10.42-2.76,6.85-3.34,12.85-10.29,15.04-18.84.31-1.06.45-2.14.63-3.21.08-1.08.24-2.15.19-3.22.03-2.14-.24-4.25-.72-6.27-.98-4.04-2.76-7.73-5.03-10.82-1.14-1.55-2.37-2.96-3.67-4.23-1.32-1.25-2.7-2.37-4.1-3.35-2.83-1.9-5.77-3.22-8.59-3.98-5.64-1.57-10.51-1.2-13.73-.65-3.24.6-4.95,1.31-5,1.17Z"/>
          </g>
          <path class="cls-12" d="M101.67,116.7c-.04.07-1.1-.44-2.96-1.46-1.86-1.02-4.51-2.56-7.73-4.55-3.2-2.02-7-4.42-11.23-7.09-2.11-1.33-4.34-2.69-6.68-4.07-1.16-.69-2.37-1.39-3.57-2.07-1.2-.68-2.37-1.09-3.64-.77-1.27.27-2.44,1.03-3.65,1.75-1.2.72-2.38,1.44-3.55,2.14-2.32,1.41-4.56,2.77-6.69,4.07-4.26,2.61-8.08,4.97-11.28,6.98-3.2,2.01-5.76,3.67-7.51,4.84-1.76,1.17-2.67,1.88-2.74,1.81-.05-.05.78-.9,2.46-2.2,1.68-1.3,4.18-3.08,7.32-5.19,3.14-2.11,6.92-4.56,11.15-7.22,2.12-1.32,4.35-2.7,6.66-4.14,1.16-.71,2.35-1.43,3.55-2.16,1.19-.7,2.45-1.56,4.02-1.9.77-.17,1.63-.19,2.41.02.78.2,1.46.54,2.09.89,1.24.71,2.42,1.4,3.59,2.11,2.34,1.4,4.57,2.79,6.67,4.15,4.21,2.71,7.93,5.24,11.09,7.31,3.15,2.08,5.72,3.74,7.5,4.88,1.78,1.14,2.75,1.79,2.71,1.87Z"/>
          <path class="cls-12" d="M63.27,97.09c-.15.31-7.95-3.32-17.39-8.08-9.44-4.76-16.98-8.88-16.83-9.18.15-.3,7.94,3.31,17.38,8.08s16.99,8.88,16.83,9.19Z"/>
          <path class="cls-12" d="M103.24,78.72c.09.14-1.62,1.39-4.5,3.22-2.88,1.83-6.92,4.24-11.45,6.79-4.53,2.55-8.68,4.75-11.74,6.27-3.05,1.52-5,2.34-5.08,2.19-.08-.15,1.72-1.25,4.66-2.96,2.94-1.71,7.02-4.04,11.55-6.58,4.53-2.52,8.64-4.81,11.61-6.46,2.99-1.63,4.85-2.61,4.95-2.47Z"/>
          <path class="cls-12" d="M102.31,78.72c0,.09-1.03.17-2.88.25-1.86.06-4.54.15-7.85.26-6.63.17-15.79.41-25.89.67-10.11.23-19.27.34-25.9.3-3.32-.02-6-.06-7.85-.14-1.85-.07-2.88-.15-2.88-.23,0-.09,1.03-.17,2.88-.25,1.85-.06,4.53-.15,7.85-.26,6.63-.17,15.78-.41,25.88-.67,10.11-.23,19.27-.34,25.91-.3,3.32.02,6,.06,7.86.14,1.86.07,2.88.15,2.88.23Z"/>
          <g>
            <path class="cls-7" d="M10.99,91.87c-.79.03-1.42-.6-1.42-1.41,0-.81.64-1.43,1.43-1.4.78.03,1.42.66,1.42,1.41,0,.74-.64,1.37-1.43,1.4Z"/>
            <path class="cls-7" d="M12.47,101.58c-.76.22-1.72-.83-2.03-2.37-.32-1.54.15-2.88.93-2.98.78-.1,1.57.99,1.86,2.41.29,1.42,0,2.73-.76,2.95Z"/>
            <path class="cls-7" d="M16.06,110.73c-.7.37-1.85-.45-2.49-1.88-.64-1.43-.48-2.84.26-3.11.74-.27,1.75.62,2.34,1.94.59,1.33.59,2.68-.11,3.04Z"/>
            <path class="cls-7" d="M21.43,118.96c-.61.5-1.9-.08-2.81-1.35-.91-1.27-1.04-2.68-.37-3.09.67-.42,1.84.25,2.69,1.43.85,1.19,1.1,2.51.49,3.01Z"/>
            <path class="cls-7" d="M28.28,126.01c-.5.61-1.88.28-3.02-.79-1.13-1.07-1.53-2.43-.96-2.97.58-.54,1.85-.11,2.91.9,1.06,1,1.56,2.26,1.06,2.86Z"/>
            <path class="cls-7" d="M36.35,131.62c-.38.69-1.8.64-3.11-.19-1.32-.83-1.97-2.09-1.51-2.73.46-.64,1.8-.46,3.03.32,1.23.78,1.97,1.91,1.59,2.6Z"/>
            <path class="cls-7" d="M45.36,135.54c-.25.75-1.62.91-3.07.36-.72-.27-1.32-.67-1.68-1.09-.36-.44-.5-.89-.34-1.25.16-.36.58-.56,1.13-.61.55-.06,1.24.02,1.93.29,1.37.52,2.29,1.55,2.04,2.3Z"/>
            <path class="cls-7" d="M54.89,138c-.13.78-1.47,1.13-2.98.8-1.51-.34-2.57-1.23-2.36-1.99.21-.76,1.54-1.11,2.98-.79,1.44.32,2.49,1.21,2.36,1.99Z"/>
            <path class="cls-7" d="M64.67,139.01c-.01.79-1.28,1.34-2.83,1.23-1.54-.11-2.72-.83-2.63-1.61.09-.78,1.36-1.33,2.82-1.23,1.47.1,2.64.82,2.63,1.61Z"/>
            <path class="cls-7" d="M74.49,138.5c.11.78-1.05,1.52-2.6,1.66-1.55.14-2.82-.39-2.85-1.18-.03-.78,1.14-1.53,2.6-1.66,1.46-.13,2.74.4,2.85,1.18Z"/>
            <path class="cls-7" d="M84.1,136.37c.24.75-.78,1.68-2.28,2.07-1.5.39-2.85.09-3.01-.69-.16-.77.87-1.7,2.28-2.07,1.42-.37,2.76-.06,3.01.68Z"/>
            <path class="cls-7" d="M93.16,132.57c.38.69-.43,1.86-1.84,2.52-1.41.66-2.82.54-3.11-.2-.29-.73.58-1.76,1.9-2.39,1.32-.62,2.67-.63,3.05.06Z"/>
            <path class="cls-7" d="M101.32,127.09c.51.6-.07,1.87-1.31,2.83-1.28.9-2.67,1.07-3.09.41-.42-.66.21-1.87,1.4-2.71,1.14-.9,2.49-1.13,3-.54Z"/>
            <path class="cls-7" d="M108.15,120.03c.62.48.35,1.87-.68,3.04-1.03,1.17-2.38,1.61-2.94,1.05-.55-.56-.16-1.85.8-2.94.96-1.09,2.19-1.64,2.82-1.16Z"/>
            <path class="cls-7" d="M113.44,111.75c.71.35.71,1.77-.07,3.12-.78,1.35-2.01,2.05-2.67,1.61-.65-.44-.53-1.78.2-3.04.73-1.26,1.83-2.04,2.54-1.69Z"/>
            <path class="cls-7" d="M117.02,102.6c.76.21,1.04,1.6.54,3.07-.5,1.48-1.58,2.4-2.3,2.1-.73-.3-.86-1.64-.39-3.02.47-1.38,1.4-2.35,2.16-2.15Z"/>
            <path class="cls-7" d="M118.72,92.93c.79.05,1.34,1.35,1.14,2.9-.2,1.55-1.07,2.67-1.84,2.52-.77-.15-1.17-1.44-.98-2.88.19-1.44.9-2.59,1.69-2.54Z"/>
            <path class="cls-7" d="M118.39,83.11c.78-.12,1.6,1.04,1.72,2.6.13,1.56-.49,2.84-1.28,2.85-.79,0-1.44-1.17-1.56-2.61-.12-1.45.34-2.71,1.12-2.83Z"/>
            <path class="cls-7" d="M116.81,76.1c.75-.24,1.54.2,1.75.97.22.77-.23,1.55-1,1.73-.76.18-1.55-.25-1.75-.97-.2-.72.25-1.5.99-1.73Z"/>
          </g>
          <g>
            <path class="cls-7" d="M65,32.37c.03.86-.45,1.57-1.06,1.7-.61.12-1.33-.34-1.64-1.14-.32-.79.12-1.71,1.01-1.89.89-.18,1.65.48,1.68,1.33Z"/>
            <path class="cls-7" d="M72.97,35.38c-.63.58-1.48.68-1.98.31-.49-.38-.62-1.23-.21-1.99.4-.75,1.37-1.02,2.1-.47.72.55.72,1.57.09,2.15Z"/>
          </g>
          <path class="cls-15" d="M94.5,43.35c-.92.18-1.8.75-2.4,1.77-.96,1.63-.02,4.03,1.77,4.63,1.79.6,3.96-.67,4.35-2.53.59-2.75-1.64-4.3-3.72-3.88Z"/>
          <path class="cls-15" d="M106.03,43.64c-.92.18-1.8.75-2.4,1.77-.96,1.63-.02,4.03,1.77,4.63,1.79.6,3.96-.67,4.35-2.53.59-2.75-1.64-4.3-3.72-3.88Z"/>
          <path class="cls-15" d="M115.95,43.35c-.92.18-1.8.75-2.4,1.77-.96,1.63-.02,4.03,1.77,4.63,1.79.6,3.96-.67,4.35-2.53.59-2.75-1.64-4.3-3.72-3.88Z"/>
          <path class="cls-12" d="M103.24,78.72s.12.51.22,1.5c.09.99.21,2.45.38,4.32.14,1.88.35,4.18.49,6.85.11,2.68.16,5.73.15,9.09-.01,1.68-.02,3.45-.04,5.28,0,.92-.01,1.85-.02,2.8,0,.93.06,1.89.11,2.89.04,1,.07,2.04-.13,3.12-.17,1.08-.69,2.17-1.44,3.03-.2.21-.39.41-.61.61-.23.21-.49.37-.75.53-.53.29-1.09.47-1.65.6-1.12.26-2.25.33-3.37.38-8.85.53-18.63,1.25-28.89,1.5-5.14.13-10.16.12-15-.02-4.84-.15-9.51-.41-13.95-.69-1.11-.08-2.19-.13-3.3-.23-1.1-.11-2.25-.3-3.29-.86-1.05-.55-1.83-1.49-2.32-2.47-.49-.99-.73-2.03-.87-3.05-.37-4.01-.46-7.66-.57-11.03-.18-6.73-.11-12.18,0-15.94.06-1.88.12-3.34.19-4.33.07-.99.12-1.51.16-1.51.04,0,.07.52.09,1.51.01.99.03,2.45.04,4.33.04,3.76.11,9.2.4,15.91.16,3.34.31,7.06.71,10.92.26,1.85.99,3.84,2.68,4.7,1.68.86,3.95.73,6.15.91,4.43.25,9.09.49,13.91.62,4.82.13,9.82.12,14.94,0,10.24-.25,19.97-.93,28.88-1.41,1.1-.04,2.17-.1,3.16-.33.49-.11.97-.26,1.38-.49.41-.21.72-.53,1.07-.89,1.33-1.44,1.45-3.46,1.36-5.4-.03-.98-.09-1.96-.07-2.93.02-.96.04-1.89.05-2.81.04-1.83.08-3.6.12-5.28.07-3.36.08-6.4.04-9.07-.07-2.67-.22-4.96-.28-6.84-.06-1.88-.11-3.34-.15-4.33-.02-.99,0-1.51.03-1.52Z"/>
        </g>
      </g>
    </g>
  </g>
</svg>