<?xml version="1.0" encoding="UTF-8"?>
<svg xmlns="http://www.w3.org/2000/svg" viewBox="0 0 134.54 105.66">
  <defs>
    <style>
      .cls-1 {
        fill: #a7d891;
      }

      .cls-2 {
        fill: #3ba13f;
      }

      .cls-3 {
        fill: #090;
      }

      .cls-4 {
        fill: #dee5cd;
      }

      .cls-5 {
        fill: #b6ceb3;
      }

      .cls-6 {
        fill: #fff;
      }

      .cls-7 {
        opacity: .25;
      }

      .cls-7, .cls-8 {
        mix-blend-mode: multiply;
      }

      .cls-9 {
        fill: #003f00;
      }

      .cls-10 {
        fill: #94b78f;
      }

      .cls-11 {
        isolation: isolate;
      }

      .cls-12 {
        fill: #c4f9af;
      }

      .cls-13 {
        fill: #56e156;
      }

      .cls-14 {
        fill: #569156;
      }

      .cls-8 {
        opacity: .6;
      }

      .cls-15 {
        fill: #569f56;
      }
    </style>
  </defs>
  <g class="cls-11">
    <g id="Camada_2" data-name="Camada 2">
      <g id="OBJECTS">
        <g>
          <path class="cls-1" d="M114.87,102.1c3.12-2.36,9.87-2.92,9.69-1.36-.05.44.85.3,1.08-.08,1.29-2.11,4.24-3.16,6.5-2.52,1.22.35,2.46.64,2.39-.62-.24-4.48-3.33-15.91-5.01-24.87-5.1-27.33-5.69-36.08-10.6-58.58-1.54-7.07-7.25-2.96-6.45-3.44-.54,30.04,1.41,60.1,3.11,90.1l-.71,1.38Z"/>
          <g class="cls-8">
            <path class="cls-4" d="M120.84,100.11c-.98-34.05-3.79-68.76-5.84-89.52-1.04-.25-1.98-.29-2.52.04-.54,30.04.7,61.48,2.4,91.48h0c.88-1.27,4.12-1.89,5.96-2Z"/>
          </g>
          <g class="cls-8">
            <path class="cls-4" d="M116.28,8.06c.77,21.08,5.95,64.52,8.28,92.68,0,0,3.8-2.4,4.97-2.64-1.6-11.97-12.4-83.73-13.25-90.04Z"/>
          </g>
          <path class="cls-6" d="M7.04,17.94c35.98-3.38,67.92-6.18,103.99-8.41.67-.04,1.39-.07,1.96.28.91.57,1.03,1.81,1.06,2.88.74,28.52,1.48,57.04,2.22,85.55.02.91.03,1.87-.41,2.66-.81,1.42-2.69,1.71-4.32,1.83-35.03,2.69-70.22,3.41-105.33,2.16-1.16-.04-2.39-.11-3.32-.8-1.4-1.03-1.58-3.02-1.63-4.75C.5,75.77.39,52.17.91,28.58c.08-3.57.4-7.62,3.2-9.83l2.93-.82Z"/>
          <rect class="cls-2" x="8.32" y="59.44" width="11.25" height="11.1" rx="2.89" ry="2.89"/>
          <path class="cls-2" d="M60.25,55.22h-6.4c-1.05,0-1.89-.85-1.89-1.89v-6.31c0-1.59,1.3-2.89,2.89-2.89h5.4c1.59,0,2.89,1.3,2.89,2.89v5.31c0,1.59-1.3,2.89-2.89,2.89Z"/>
          <path class="cls-3" d="M114.61,32.84l-.56-20.14c-.03-1.07-.15-2.31-1.06-2.88-.57-.35-1.29-.33-1.96-.28-36.07,2.22-68.01,5.03-103.99,8.41l-2.93.82c-2.8,2.21-3.12,6.26-3.2,9.83-.07,3.21-.1,7.79-.15,11,6.56-.97,104.2-6.8,113.85-6.75Z"/>
          <g>
            <path class="cls-9" d="M14.6,22.94c0,1.19-.97,2.16-2.16,2.16s-2.16-.97-2.16-2.16.97-2.16,2.16-2.16,2.16.97,2.16,2.16Z"/>
            <path class="cls-9" d="M27.79,21.95c0,1.19-.97,2.16-2.16,2.16s-2.16-.97-2.16-2.16.97-2.16,2.16-2.16,2.16.97,2.16,2.16Z"/>
            <circle class="cls-9" cx="38.78" cy="20.45" r="2.16"/>
            <circle class="cls-9" cx="53.36" cy="19.05" r="2.16"/>
            <circle class="cls-9" cx="67.8" cy="17.84" r="2.16"/>
            <path class="cls-9" d="M83.36,16.89c0,1.19-.97,2.16-2.16,2.16s-2.16-.97-2.16-2.16.97-2.16,2.16-2.16,2.16.97,2.16,2.16Z"/>
            <path class="cls-9" d="M97.29,15.6c0,1.19-.97,2.16-2.16,2.16s-2.16-.97-2.16-2.16.97-2.16,2.16-2.16,2.16.97,2.16,2.16Z"/>
          </g>
          <path class="cls-14" d="M23.88,8.94c-.3.2-1.22-1.23-3.53-1.7-1.12-.23-2.55-.2-3.87.38-1.31.57-2.54,1.78-3.31,3.34-.78,1.57-1.07,3.28-.97,4.84.08,1.57.48,2.98.89,4.15.87,2.34,1.73,3.73,1.45,3.94-.22.18-1.56-.87-2.92-3.27-.65-1.2-1.29-2.76-1.52-4.64-.25-1.87.03-4.05,1.02-6.05,1-1.99,2.67-3.59,4.58-4.27,1.91-.68,3.75-.49,5.11.03,1.38.53,2.28,1.37,2.71,2.04.44.68.48,1.14.36,1.21Z"/>
          <path class="cls-14" d="M37.04,8.54c-.27.24-1.43-1.06-3.75-2.03-1.15-.47-2.62-.8-4.14-.55-1.52.23-3.16,1.04-4.16,2.41-1,1.35-1.21,3.17-1.17,4.84.06,1.69.26,3.28.51,4.54.5,2.54,1.42,3.93,1.16,4.14-.12.09-.52-.13-1.05-.74-.53-.6-1.16-1.61-1.66-2.96-.49-1.36-.87-2.97-1.06-4.86-.08-.95-.1-1.98.09-3.08.19-1.09.59-2.24,1.33-3.24,1.48-2,3.73-2.98,5.75-3.15,2.07-.18,3.85.45,5.11,1.2,1.28.76,2.08,1.64,2.55,2.29.46.66.6,1.1.48,1.19Z"/>
          <path class="cls-14" d="M52.35,6.18c-.24.29-1.53-.83-3.89-1.25-1.17-.2-2.61-.17-4.1.28-1.48.45-3.04,1.31-4.23,2.6-1.21,1.28-1.93,2.9-2.32,4.42-.37,1.54-.41,3.01-.28,4.23.25,2.46,1.02,3.92.71,4.1-.2.16-1.55-1.06-2.3-3.81-.36-1.36-.51-3.08-.19-4.95.34-1.86,1.15-3.9,2.71-5.55,1.54-1.66,3.5-2.65,5.37-3.08,1.88-.43,3.67-.27,5.04.2,1.38.46,2.31,1.2,2.86,1.74.53.59.73.97.63,1.08Z"/>
          <path class="cls-14" d="M67.11,5.62c-.28.26-1.47-1.08-3.98-1.78-1.23-.35-2.78-.51-4.4-.22-1.61.3-3.29,1.11-4.44,2.51-1.15,1.43-1.79,3.23-2.04,4.91-.26,1.69-.19,3.26.04,4.55.45,2.6,1.51,3.97,1.24,4.21-.11.1-.52-.13-1.1-.73-.56-.61-1.23-1.65-1.71-3.07-.47-1.42-.74-3.21-.56-5.2.17-1.98.83-4.2,2.37-6.11,1.58-1.93,3.86-2.9,5.88-3.13,2.05-.24,3.89.15,5.27.78,1.4.61,2.34,1.45,2.85,2.1.53.65.67,1.11.56,1.19Z"/>
          <path class="cls-14" d="M82.66,4.18c-.26.3-1.59-.96-4.18-1.58-1.27-.33-2.86-.5-4.52-.18-1.66.31-3.36,1.13-4.62,2.53-1.28,1.38-1.91,3.18-2.11,4.89-.25,1.76-.27,3.44-.2,4.77.08,1.35.34,2.38.64,3.03.29.65.6.97.5,1.13-.06.12-.6.04-1.23-.62-.64-.65-1.2-1.83-1.51-3.31-.3-1.49-.45-3.23-.3-5.21.1-2.02.82-4.38,2.5-6.21,1.67-1.85,3.95-2.83,6-3.08,2.07-.26,3.94.13,5.35.72.36.12.69.29.98.47.3.17.59.32.83.49.47.38.89.68,1.17,1,.56.65.79,1.04.68,1.15Z"/>
          <path class="cls-14" d="M97.73,3.86c-.19.3-1.69-.55-4.2-1.24-1.25-.34-2.77-.62-4.39-.51-1.62.09-3.3.66-4.65,1.86-1.4,1.23-2.4,2.78-3,4.31-.62,1.54-.87,3.04-.92,4.32-.1,2.56.52,4.16.18,4.31-.22.14-1.45-1.31-1.8-4.25-.17-1.45-.06-3.23.55-5.09.6-1.86,1.74-3.8,3.48-5.32.89-.77,1.92-1.36,2.97-1.73C87.01.14,88.08.01,89.07,0c2,0,3.69.52,5,1.09,2.63,1.19,3.82,2.55,3.66,2.77Z"/>
          <path class="cls-14" d="M113.49,10.56c-.37.04-.46-2.08-2.37-4.46-.95-1.16-2.35-2.34-4.16-2.98-1.78-.65-4-.64-6.09.12-2.09.78-3.8,2.19-4.8,3.83-1.04,1.64-1.47,3.43-1.61,4.93-.23,3.06.66,4.95.32,5.1-.13.06-.52-.31-.96-1.17-.44-.85-.89-2.2-.98-3.95-.07-1.74.24-3.9,1.41-5.99,1.14-2.1,3.25-3.95,5.83-4.9,2.58-.95,5.4-.9,7.64.06,2.24.93,3.79,2.52,4.72,4.01.93,1.51,1.27,2.93,1.31,3.89.05.97-.13,1.49-.27,1.5Z"/>
          <path class="cls-13" d="M114.61,32.84c.01.14-1.57.36-4.45.63-2.87.28-7.04.62-12.18.99-10.29.75-24.52,1.66-40.23,2.53-15.71.88-29.94,1.56-40.25,1.95-5.15.19-9.33.34-12.22.35-2.86,0-4.35.58-4.41.44-.07-.1,1.42-.97,4.36-1.21,2.88-.24,7.03-.61,12.18-.97,10.29-.75,24.5-1.66,40.21-2.53,15.7-.88,29.94-1.56,40.26-1.95,5.16-.2,9.34-.32,12.23-.37,2.89-.04,4.5,0,4.51.13Z"/>
          <g>
            <g>
              <path class="cls-15" d="M10.93,70.32c-.01.09-.33.18-.87-.03-.53-.21-1.21-.77-1.61-1.72-.41-.94-.46-2.13-.48-3.28,0-.59-.02-1.21-.02-1.85.02-.66-.07-1.24.1-2.15.1-.45.36-.91.69-1.22.33-.32.7-.53,1.06-.68.72-.29,1.4-.37,2-.42,1.2-.11,2.28-.13,3.19-.1,1.82.07,2.92.34,2.91.54,0,.22-1.12.33-2.86.53-.87.1-1.91.23-3.05.41-1.11.15-2.32.5-2.44,1.29-.1.43-.06,1.19-.09,1.81-.02.64-.04,1.26-.06,1.85-.06,1.19-.1,2.16.1,2.92.18.74.58,1.27.9,1.57.33.3.58.42.56.53Z"/>
              <path class="cls-15" d="M15.55,59.52c-.05-.08.21-.38.88-.49.63-.1,1.76.05,2.57,1.12.4.56.52,1.26.6,1.88.07.61.15,1.27.24,1.96.07.7.15,1.42.22,2.18.05.78.09,1.67-.26,2.63-.34.97-1.24,1.72-2.1,1.99-.86.29-1.67.31-2.39.3-1.42-.05-2.64-.14-3.7-.22-.54-.05-1.07-.13-1.52-.33-.45-.19-.78-.48-.98-.76-.4-.59-.27-1.02-.18-1.01.11-.02.21.3.61.6.4.32,1.07.48,2.09.41,1.03-.05,2.32-.08,3.66-.1,1.32-.03,2.7-.31,3.08-1.43.41-1.14.09-2.78.06-4.15-.03-.69-.07-1.35-.1-1.97-.02-.6-.07-1.08-.26-1.41-.38-.72-1.15-1.03-1.65-1.1-.52-.08-.84,0-.89-.1Z"/>
            </g>
            <g>
              <path class="cls-10" d="M11.77,84.86c-.01.09-.33.18-.87-.03-.53-.21-1.21-.77-1.61-1.72-.41-.94-.46-2.13-.48-3.28,0-.59-.02-1.21-.02-1.85.02-.66-.07-1.24.1-2.15.1-.45.36-.91.69-1.22.33-.32.7-.53,1.06-.68.72-.29,1.4-.37,2-.42,1.2-.11,2.28-.13,3.19-.1,1.82.07,2.92.34,2.91.54,0,.22-1.12.33-2.86.53-.87.1-1.91.23-3.05.41-1.11.15-2.32.5-2.44,1.29-.1.43-.06,1.19-.09,1.81-.02.64-.04,1.26-.06,1.85-.06,1.19-.1,2.16.1,2.92.18.74.58,1.27.9,1.57.33.3.58.42.56.53Z"/>
              <path class="cls-10" d="M16.4,74.07c-.05-.08.21-.38.88-.49.63-.1,1.76.05,2.57,1.12.4.56.52,1.26.6,1.88.07.61.15,1.27.24,1.96.07.69.15,1.42.22,2.18.05.78.09,1.67-.26,2.63-.34.97-1.24,1.72-2.1,1.99-.86.29-1.67.31-2.39.3-1.42-.05-2.64-.14-3.7-.22-.54-.05-1.07-.13-1.52-.33-.45-.19-.78-.48-.98-.76-.4-.59-.27-1.02-.18-1.01.11-.02.21.3.61.6.4.32,1.07.48,2.09.41,1.03-.05,2.32-.08,3.66-.1,1.32-.03,2.7-.31,3.08-1.43.41-1.14.09-2.78.06-4.15-.03-.69-.07-1.35-.1-1.97-.02-.6-.07-1.08-.26-1.41-.38-.72-1.15-1.03-1.65-1.1-.52-.08-.84,0-.89-.1Z"/>
            </g>
            <g>
              <path class="cls-10" d="M10.19,56.36c-.01.09-.33.18-.87-.03-.53-.21-1.21-.77-1.61-1.72-.41-.94-.46-2.13-.48-3.28,0-.59-.02-1.21-.02-1.85.02-.66-.07-1.24.1-2.15.1-.45.36-.91.69-1.22.33-.32.7-.53,1.06-.68.72-.29,1.4-.37,2-.42,1.2-.11,2.28-.13,3.19-.1,1.82.07,2.92.34,2.91.54,0,.22-1.12.33-2.86.53-.87.1-1.91.23-3.05.41-1.11.15-2.32.5-2.44,1.29-.1.43-.06,1.19-.09,1.81-.02.64-.04,1.26-.06,1.85-.06,1.19-.1,2.16.1,2.92.18.74.58,1.27.9,1.57.33.3.58.42.56.53Z"/>
              <path class="cls-10" d="M14.82,45.56c-.05-.08.21-.38.88-.49.63-.1,1.76.05,2.57,1.12.4.56.52,1.26.6,1.88.07.61.15,1.27.24,1.96.07.69.15,1.42.22,2.18.05.78.09,1.67-.26,2.63-.34.97-1.24,1.72-2.1,1.99-.86.29-1.67.31-2.39.3-1.42-.05-2.64-.14-3.7-.22-.54-.05-1.07-.13-1.52-.33-.45-.19-.78-.48-.98-.76-.4-.59-.27-1.02-.18-1.01.11-.02.21.3.61.6.4.32,1.07.48,2.09.41,1.03-.05,2.32-.08,3.66-.1,1.32-.03,2.7-.31,3.08-1.43.41-1.14.09-2.78.06-4.15-.03-.69-.07-1.35-.1-1.97-.02-.6-.07-1.08-.26-1.41-.38-.72-1.15-1.03-1.65-1.1-.52-.08-.84,0-.89-.1Z"/>
            </g>
            <g>
              <path class="cls-10" d="M25.32,70.01c-.01.09-.33.18-.87-.03-.53-.21-1.21-.77-1.61-1.72-.41-.94-.46-2.13-.48-3.28,0-.59-.02-1.21-.02-1.85.02-.66-.07-1.24.1-2.15.1-.45.36-.91.69-1.22.33-.32.7-.53,1.06-.68.72-.29,1.4-.37,2-.42,1.2-.11,2.28-.13,3.19-.1,1.82.07,2.92.34,2.91.54,0,.22-1.12.33-2.86.53-.87.1-1.91.23-3.05.41-1.11.15-2.32.5-2.44,1.29-.1.43-.06,1.19-.09,1.81-.02.64-.04,1.26-.06,1.85-.06,1.19-.1,2.16.1,2.92.18.74.58,1.27.9,1.57.33.3.58.42.56.53Z"/>
              <path class="cls-10" d="M29.95,59.22c-.05-.08.21-.38.88-.49.63-.1,1.76.05,2.57,1.12.4.56.52,1.26.6,1.88.07.61.15,1.27.24,1.96.07.69.15,1.42.22,2.18.05.78.09,1.67-.26,2.63-.34.97-1.24,1.72-2.1,1.99-.86.29-1.67.31-2.39.3-1.42-.05-2.64-.14-3.7-.22-.54-.05-1.07-.13-1.52-.33-.45-.19-.78-.48-.98-.76-.4-.59-.27-1.02-.18-1.01.11-.02.21.3.61.6.4.32,1.07.48,2.09.41,1.03-.05,2.32-.08,3.66-.1,1.32-.03,2.7-.31,3.08-1.43.41-1.14.09-2.78.06-4.15-.03-.69-.07-1.35-.1-1.97-.02-.6-.07-1.08-.26-1.41-.38-.72-1.15-1.03-1.65-1.1-.52-.08-.84,0-.89-.1Z"/>
            </g>
            <g>
              <path class="cls-10" d="M26.16,84.56c-.01.09-.33.18-.87-.03-.53-.21-1.21-.77-1.61-1.72-.41-.94-.46-2.13-.48-3.28,0-.59-.02-1.21-.02-1.85.02-.66-.07-1.24.1-2.15.1-.45.36-.91.69-1.22.33-.32.7-.53,1.06-.68.72-.29,1.4-.37,2-.42,1.2-.11,2.28-.13,3.19-.1,1.82.07,2.92.34,2.91.54,0,.22-1.12.33-2.86.53-.87.1-1.91.23-3.05.41-1.11.15-2.32.5-2.44,1.29-.1.43-.06,1.19-.09,1.81-.02.64-.04,1.26-.06,1.85-.06,1.19-.1,2.16.1,2.92.18.74.58,1.27.9,1.57.33.3.58.42.56.53Z"/>
              <path class="cls-10" d="M30.79,73.76c-.05-.08.21-.38.88-.49.63-.1,1.76.05,2.57,1.12.4.56.52,1.26.6,1.88.07.61.15,1.27.24,1.96.07.7.15,1.42.22,2.18.05.78.09,1.67-.26,2.63-.34.97-1.24,1.72-2.1,1.99-.86.29-1.67.31-2.39.3-1.42-.05-2.64-.14-3.7-.22-.54-.05-1.07-.13-1.52-.33-.45-.19-.78-.48-.98-.76-.4-.59-.27-1.02-.18-1.01.11-.02.21.3.61.6.4.32,1.07.48,2.09.41,1.03-.05,2.32-.08,3.66-.1,1.32-.03,2.7-.31,3.08-1.43.41-1.14.09-2.78.06-4.15-.03-.69-.07-1.35-.1-1.97-.02-.6-.07-1.08-.26-1.41-.38-.72-1.15-1.03-1.65-1.1-.52-.08-.84,0-.89-.1Z"/>
            </g>
            <g>
              <path class="cls-10" d="M24.59,56.05c-.01.09-.33.18-.87-.03-.53-.21-1.21-.77-1.61-1.72-.41-.94-.46-2.13-.48-3.28,0-.59-.02-1.21-.02-1.85.02-.66-.07-1.24.1-2.15.1-.45.36-.91.69-1.22.33-.32.7-.53,1.06-.68.72-.29,1.4-.37,2-.42,1.2-.11,2.28-.13,3.19-.1,1.82.07,2.92.34,2.91.54,0,.22-1.12.33-2.86.53-.87.1-1.91.23-3.05.41-1.11.15-2.32.5-2.44,1.29-.1.43-.06,1.19-.09,1.81-.02.64-.04,1.26-.06,1.85-.06,1.19-.1,2.16.1,2.92.18.74.58,1.27.9,1.57.33.3.58.42.56.53Z"/>
              <path class="cls-10" d="M29.21,45.26c-.05-.08.21-.38.88-.49.63-.1,1.76.05,2.57,1.12.4.56.52,1.26.6,1.88.07.61.15,1.27.24,1.96.07.7.15,1.42.22,2.18.05.78.09,1.67-.26,2.63-.34.97-1.24,1.72-2.1,1.99-.86.29-1.67.31-2.39.3-1.42-.05-2.64-.14-3.7-.22-.54-.05-1.07-.13-1.52-.33-.45-.19-.78-.48-.98-.76-.4-.59-.27-1.02-.18-1.01.11-.02.21.3.61.6.4.32,1.07.48,2.09.41,1.03-.05,2.32-.08,3.66-.1,1.32-.03,2.7-.31,3.08-1.43.41-1.14.09-2.78.06-4.15-.03-.69-.07-1.35-.1-1.97-.02-.6-.07-1.08-.26-1.41-.38-.72-1.15-1.03-1.65-1.1-.52-.08-.84,0-.89-.1Z"/>
            </g>
            <g>
              <path class="cls-10" d="M40.38,69.7c-.01.09-.33.18-.87-.03-.53-.21-1.21-.77-1.61-1.72-.41-.94-.46-2.13-.48-3.28,0-.59-.02-1.21-.02-1.85.02-.66-.07-1.24.1-2.15.1-.45.36-.91.69-1.22.33-.32.7-.53,1.06-.68.72-.29,1.4-.37,2-.42,1.2-.11,2.28-.13,3.19-.1,1.82.07,2.92.34,2.91.54,0,.22-1.12.33-2.86.53-.87.1-1.91.23-3.05.41-1.11.15-2.32.5-2.44,1.29-.1.43-.06,1.19-.09,1.81-.02.64-.04,1.26-.06,1.85-.06,1.19-.1,2.16.1,2.92.18.74.58,1.27.9,1.57.33.3.58.42.56.53Z"/>
              <path class="cls-10" d="M45.01,58.91c-.05-.08.21-.38.88-.49.63-.1,1.76.05,2.57,1.12.4.55.52,1.26.6,1.88.07.61.15,1.27.24,1.96.07.7.15,1.42.22,2.18.05.78.09,1.67-.26,2.63-.34.97-1.24,1.72-2.1,1.99-.86.29-1.67.31-2.39.3-1.42-.05-2.64-.14-3.7-.22-.54-.05-1.07-.13-1.52-.33-.45-.19-.78-.48-.98-.76-.4-.59-.27-1.02-.18-1.01.11-.02.21.3.61.6.4.32,1.07.48,2.09.41,1.03-.05,2.32-.08,3.66-.1,1.32-.03,2.7-.31,3.08-1.43.41-1.14.09-2.78.06-4.15-.03-.69-.07-1.35-.1-1.97-.02-.6-.07-1.08-.26-1.41-.38-.72-1.15-1.03-1.65-1.1-.52-.08-.84,0-.89-.1Z"/>
            </g>
            <g>
              <path class="cls-10" d="M41.23,84.25c-.01.09-.33.18-.87-.03-.53-.21-1.21-.77-1.61-1.72-.41-.94-.46-2.13-.48-3.28,0-.59-.02-1.21-.02-1.85.02-.66-.07-1.24.1-2.15.1-.45.36-.91.69-1.22.33-.32.7-.53,1.06-.68.72-.29,1.4-.37,2-.42,1.2-.11,2.28-.13,3.19-.1,1.82.07,2.92.34,2.91.54,0,.22-1.12.33-2.86.53-.87.1-1.91.23-3.05.41-1.11.15-2.32.5-2.44,1.29-.1.43-.06,1.19-.09,1.81-.02.64-.04,1.26-.06,1.85-.06,1.19-.1,2.16.1,2.92.18.74.58,1.27.9,1.57.33.3.58.42.56.53Z"/>
              <path class="cls-10" d="M45.85,73.46c-.05-.08.21-.38.88-.49.63-.1,1.76.05,2.57,1.12.4.56.52,1.26.6,1.88.07.61.15,1.27.24,1.96.07.7.15,1.42.22,2.18.05.78.09,1.67-.26,2.63-.34.97-1.24,1.72-2.1,1.99-.86.29-1.67.31-2.39.3-1.42-.05-2.64-.14-3.7-.22-.54-.05-1.07-.13-1.52-.33-.45-.19-.78-.48-.98-.76-.4-.59-.27-1.02-.18-1.01.11-.02.21.3.61.6.4.32,1.07.48,2.09.41,1.03-.05,2.32-.08,3.66-.1,1.32-.03,2.7-.31,3.08-1.43.41-1.14.09-2.78.06-4.15-.03-.69-.07-1.35-.1-1.97-.02-.6-.07-1.08-.26-1.41-.38-.72-1.15-1.03-1.65-1.1-.52-.08-.84,0-.89-.1Z"/>
            </g>
            <g>
              <path class="cls-10" d="M39.65,55.74c-.01.09-.33.18-.87-.03-.53-.21-1.21-.77-1.61-1.72-.41-.94-.46-2.13-.48-3.28,0-.59-.02-1.21-.02-1.85.02-.66-.07-1.24.1-2.15.1-.45.36-.91.69-1.22.33-.32.7-.53,1.06-.68.72-.29,1.4-.37,2-.42,1.2-.11,2.28-.13,3.19-.1,1.81.07,2.92.34,2.91.54,0,.22-1.12.33-2.86.53-.87.1-1.91.23-3.05.41-1.11.15-2.32.5-2.44,1.29-.1.43-.06,1.19-.09,1.81-.02.64-.04,1.26-.06,1.85-.06,1.19-.1,2.16.1,2.92.18.74.58,1.27.9,1.57.33.3.58.42.56.53Z"/>
              <path class="cls-10" d="M44.28,44.95c-.05-.08.21-.38.88-.49.63-.1,1.76.05,2.57,1.12.4.56.52,1.26.6,1.88.07.61.15,1.27.24,1.96.07.69.15,1.42.22,2.18.05.78.09,1.67-.26,2.63-.34.97-1.24,1.72-2.1,1.99-.86.29-1.67.31-2.39.3-1.42-.05-2.64-.14-3.7-.22-.54-.05-1.07-.13-1.52-.33-.45-.19-.78-.48-.98-.76-.4-.59-.27-1.02-.18-1.01.11-.02.21.3.61.6.4.32,1.07.48,2.09.41,1.03-.05,2.32-.08,3.66-.1,1.32-.03,2.7-.31,3.08-1.43.41-1.14.09-2.78.06-4.15-.03-.69-.07-1.35-.1-1.97-.02-.6-.07-1.08-.26-1.41-.38-.72-1.15-1.03-1.65-1.1-.52-.08-.84,0-.89-.1Z"/>
            </g>
            <g>
              <path class="cls-10" d="M55.07,69.4c-.01.09-.33.18-.87-.03-.53-.21-1.21-.77-1.61-1.72-.41-.94-.46-2.13-.48-3.28,0-.59-.02-1.21-.02-1.85.02-.66-.07-1.24.1-2.15.1-.45.36-.91.69-1.22.33-.32.7-.53,1.06-.68.72-.29,1.4-.37,2-.42,1.2-.11,2.28-.13,3.19-.1,1.82.07,2.92.34,2.91.54,0,.22-1.12.33-2.86.53-.87.1-1.91.23-3.05.41-1.11.15-2.32.5-2.44,1.29-.1.43-.06,1.19-.09,1.81-.02.64-.04,1.26-.06,1.85-.06,1.19-.1,2.16.1,2.92.18.74.58,1.27.9,1.57.33.3.58.42.56.53Z"/>
              <path class="cls-10" d="M59.7,58.6c-.05-.08.21-.38.88-.49.63-.1,1.76.05,2.57,1.12.4.55.52,1.26.6,1.88.07.61.15,1.27.24,1.96.07.7.15,1.42.22,2.18.05.78.09,1.67-.26,2.63-.34.97-1.24,1.72-2.1,1.99-.86.29-1.67.31-2.39.3-1.42-.05-2.64-.14-3.7-.22-.54-.05-1.07-.13-1.52-.33-.45-.19-.78-.48-.98-.76-.4-.59-.27-1.02-.18-1.01.11-.02.21.3.61.6.4.32,1.07.48,2.09.41,1.03-.05,2.32-.08,3.66-.1,1.32-.03,2.7-.31,3.08-1.43.41-1.14.09-2.78.06-4.15-.03-.69-.07-1.35-.1-1.97-.02-.6-.07-1.08-.26-1.41-.38-.72-1.15-1.03-1.65-1.1-.52-.08-.84,0-.89-.1Z"/>
            </g>
            <g>
              <path class="cls-10" d="M55.91,83.95c-.01.09-.33.18-.87-.03-.53-.21-1.21-.77-1.61-1.72-.41-.94-.46-2.13-.48-3.28,0-.59-.02-1.21-.02-1.85.02-.66-.07-1.24.1-2.15.1-.45.36-.91.69-1.22.33-.32.7-.53,1.06-.68.72-.29,1.4-.37,2-.42,1.2-.11,2.28-.13,3.19-.1,1.82.07,2.92.34,2.91.54,0,.22-1.12.33-2.86.53-.87.1-1.91.23-3.05.41-1.11.15-2.32.5-2.44,1.29-.1.43-.06,1.19-.09,1.81-.02.64-.04,1.26-.06,1.85-.06,1.19-.1,2.16.1,2.92.18.74.58,1.27.9,1.57.33.3.58.42.56.53Z"/>
              <path class="cls-10" d="M60.54,73.15c-.05-.08.21-.38.88-.49.63-.1,1.76.05,2.57,1.12.4.55.52,1.26.6,1.88.07.61.15,1.27.24,1.96.07.7.15,1.42.22,2.18.05.78.09,1.67-.26,2.63-.34.97-1.24,1.72-2.1,1.99-.86.29-1.67.31-2.39.3-1.42-.05-2.64-.14-3.7-.22-.54-.05-1.07-.13-1.52-.33-.45-.19-.78-.48-.98-.76-.4-.59-.27-1.02-.18-1.01.11-.02.21.3.61.6.4.32,1.07.48,2.09.41,1.03-.05,2.32-.08,3.66-.1,1.32-.03,2.7-.31,3.08-1.43.41-1.14.09-2.78.06-4.15-.03-.69-.07-1.35-.1-1.97-.02-.6-.07-1.08-.26-1.41-.38-.72-1.15-1.03-1.65-1.1-.52-.08-.84,0-.89-.1Z"/>
            </g>
            <g>
              <path class="cls-15" d="M54.34,55.44c-.01.09-.33.18-.87-.03-.53-.21-1.21-.77-1.61-1.72-.41-.94-.46-2.13-.48-3.28,0-.59-.02-1.21-.02-1.85.02-.66-.07-1.24.1-2.15.1-.45.36-.91.69-1.22.33-.32.7-.53,1.06-.68.72-.29,1.4-.37,2-.42,1.2-.11,2.28-.13,3.19-.1,1.82.07,2.92.34,2.91.54,0,.22-1.12.33-2.86.53-.87.1-1.91.23-3.05.41-1.11.15-2.32.5-2.44,1.29-.1.43-.06,1.19-.09,1.81-.02.64-.04,1.26-.06,1.85-.06,1.19-.1,2.16.1,2.92.18.74.58,1.27.9,1.57.33.3.58.42.56.53Z"/>
              <path class="cls-15" d="M58.97,44.64c-.05-.08.21-.38.88-.49.63-.1,1.76.05,2.57,1.12.4.55.52,1.26.6,1.88.07.61.15,1.27.24,1.96.07.7.15,1.42.22,2.18.05.78.09,1.67-.26,2.63-.34.97-1.24,1.72-2.1,1.99-.86.29-1.67.31-2.39.3-1.42-.05-2.64-.14-3.7-.22-.54-.05-1.07-.13-1.52-.33-.45-.19-.78-.48-.98-.76-.4-.59-.27-1.02-.18-1.01.11-.02.21.3.61.6.4.32,1.07.48,2.09.41,1.03-.05,2.32-.08,3.66-.1,1.32-.03,2.7-.31,3.08-1.43.41-1.14.09-2.78.06-4.15-.03-.69-.07-1.35-.1-1.97-.02-.6-.07-1.08-.26-1.41-.38-.72-1.15-1.03-1.65-1.1-.52-.08-.84,0-.89-.1Z"/>
            </g>
            <g>
              <path class="cls-10" d="M69.72,69.09c-.01.09-.33.18-.87-.03-.53-.21-1.21-.77-1.61-1.72-.41-.94-.46-2.13-.48-3.28,0-.59-.02-1.21-.02-1.85.02-.66-.07-1.24.1-2.15.1-.45.36-.91.69-1.22.33-.32.7-.53,1.06-.68.72-.29,1.4-.37,2-.42,1.2-.11,2.28-.13,3.19-.1,1.82.07,2.92.34,2.91.54,0,.22-1.12.33-2.86.53-.87.1-1.91.23-3.05.41-1.11.15-2.32.5-2.44,1.29-.1.43-.06,1.19-.09,1.81-.02.64-.04,1.26-.06,1.85-.06,1.19-.1,2.16.1,2.92.18.74.58,1.27.9,1.57.33.3.58.42.56.53Z"/>
              <path class="cls-10" d="M74.35,58.3c-.05-.08.21-.38.88-.49.63-.1,1.76.05,2.57,1.12.4.55.52,1.26.6,1.88.07.61.15,1.27.24,1.96.07.7.15,1.42.22,2.18.05.78.09,1.67-.26,2.63-.34.97-1.24,1.72-2.1,1.99-.86.29-1.67.31-2.39.3-1.42-.05-2.64-.14-3.7-.22-.54-.05-1.07-.13-1.52-.33-.45-.19-.78-.48-.98-.76-.4-.59-.27-1.02-.18-1.01.11-.02.21.3.61.6.4.32,1.07.48,2.09.41,1.03-.05,2.32-.08,3.66-.1,1.32-.03,2.7-.31,3.08-1.43.41-1.14.09-2.78.06-4.15-.03-.69-.07-1.35-.1-1.97-.02-.6-.07-1.08-.26-1.41-.38-.72-1.15-1.03-1.65-1.1-.52-.08-.84,0-.89-.1Z"/>
            </g>
            <g>
              <path class="cls-10" d="M70.56,83.64c-.01.09-.33.18-.87-.03-.53-.21-1.21-.77-1.61-1.72-.41-.94-.46-2.13-.48-3.28,0-.59-.02-1.21-.02-1.85.02-.66-.07-1.24.1-2.15.1-.45.36-.91.69-1.22.33-.32.7-.53,1.06-.68.72-.29,1.4-.37,2-.42,1.2-.11,2.28-.13,3.19-.1,1.82.07,2.92.34,2.91.54,0,.22-1.12.33-2.86.53-.87.1-1.91.23-3.05.41-1.11.15-2.32.5-2.44,1.29-.1.43-.06,1.19-.09,1.81-.02.64-.04,1.26-.06,1.85-.06,1.19-.1,2.16.1,2.92.18.74.58,1.27.9,1.57.33.3.58.42.56.53Z"/>
              <path class="cls-10" d="M75.19,72.85c-.05-.08.21-.38.88-.49.63-.1,1.76.05,2.57,1.12.4.55.52,1.26.6,1.88.07.61.15,1.27.24,1.96.07.69.15,1.42.22,2.18.05.78.09,1.67-.26,2.63-.34.97-1.24,1.72-2.1,1.99-.86.29-1.67.31-2.39.3-1.42-.05-2.64-.14-3.7-.22-.54-.05-1.07-.13-1.52-.33-.45-.19-.78-.48-.98-.76-.4-.59-.27-1.02-.18-1.01.11-.02.21.3.61.6.4.32,1.07.48,2.09.41,1.03-.05,2.32-.08,3.66-.1,1.32-.03,2.7-.31,3.08-1.43.41-1.14.09-2.78.06-4.15-.03-.69-.07-1.35-.1-1.97-.02-.6-.07-1.08-.26-1.41-.38-.72-1.15-1.03-1.65-1.1-.52-.08-.84,0-.89-.1Z"/>
            </g>
            <g>
              <path class="cls-10" d="M68.99,55.13c-.01.09-.33.18-.87-.03-.53-.21-1.21-.77-1.61-1.72-.41-.94-.46-2.13-.48-3.28,0-.59-.02-1.21-.02-1.85.02-.66-.07-1.24.1-2.15.1-.45.36-.91.69-1.22.33-.32.7-.53,1.06-.68.72-.29,1.4-.37,2-.42,1.2-.11,2.28-.13,3.19-.1,1.82.07,2.92.34,2.91.54,0,.22-1.12.33-2.86.53-.87.1-1.91.23-3.05.41-1.11.15-2.32.5-2.44,1.29-.1.43-.06,1.19-.09,1.81-.02.64-.04,1.26-.06,1.85-.06,1.19-.1,2.16.1,2.92.18.74.58,1.27.9,1.57.33.3.58.42.56.53Z"/>
              <path class="cls-10" d="M73.62,44.34c-.05-.08.21-.38.88-.49.63-.1,1.76.05,2.57,1.12.4.55.52,1.26.6,1.88.07.61.15,1.27.24,1.96.07.7.15,1.42.22,2.18.05.78.09,1.67-.26,2.63-.34.97-1.24,1.72-2.1,1.99-.86.29-1.67.31-2.39.3-1.42-.05-2.64-.14-3.7-.22-.54-.05-1.07-.13-1.52-.33-.45-.19-.78-.48-.98-.76-.4-.59-.27-1.02-.18-1.01.11-.02.21.3.61.6.4.32,1.07.48,2.09.41,1.03-.05,2.32-.08,3.66-.1,1.32-.03,2.7-.31,3.08-1.43.41-1.14.09-2.78.06-4.15-.03-.69-.07-1.35-.1-1.97-.02-.6-.07-1.08-.26-1.41-.38-.72-1.15-1.03-1.65-1.1-.52-.08-.84,0-.89-.1Z"/>
            </g>
            <g>
              <path class="cls-10" d="M84.08,68.78c-.01.09-.33.18-.87-.03-.53-.21-1.21-.77-1.61-1.72-.41-.94-.46-2.13-.48-3.28,0-.59-.02-1.21-.02-1.85.02-.66-.07-1.24.1-2.15.1-.45.36-.91.69-1.22.33-.32.7-.53,1.06-.68.72-.29,1.4-.37,2-.42,1.2-.11,2.28-.13,3.19-.1,1.82.07,2.92.34,2.91.54,0,.22-1.12.33-2.86.53-.87.1-1.91.23-3.05.41-1.11.15-2.32.5-2.44,1.29-.1.43-.06,1.19-.09,1.81-.02.64-.04,1.26-.06,1.85-.06,1.19-.1,2.16.1,2.92.18.74.58,1.27.9,1.57.33.3.58.42.56.53Z"/>
              <path class="cls-10" d="M88.71,57.99c-.05-.08.21-.38.88-.49.63-.1,1.76.05,2.57,1.12.4.56.52,1.26.6,1.88.07.61.15,1.27.24,1.96.07.69.15,1.42.22,2.18.05.78.09,1.67-.26,2.63-.34.97-1.24,1.72-2.1,1.99-.86.29-1.67.31-2.39.3-1.42-.05-2.64-.14-3.7-.22-.54-.05-1.07-.13-1.52-.33-.45-.19-.78-.48-.98-.76-.4-.59-.27-1.02-.18-1.01.11-.02.21.3.61.6.4.32,1.07.48,2.09.41,1.03-.05,2.32-.08,3.66-.1,1.32-.03,2.7-.31,3.08-1.43.41-1.14.09-2.78.06-4.15-.03-.69-.07-1.35-.1-1.97-.02-.6-.07-1.08-.26-1.41-.38-.72-1.15-1.03-1.65-1.1-.52-.08-.84,0-.89-.1Z"/>
            </g>
            <g>
              <path class="cls-10" d="M84.92,83.33c-.01.09-.33.18-.87-.03-.53-.21-1.21-.77-1.61-1.72-.41-.94-.46-2.13-.48-3.28,0-.59-.02-1.21-.02-1.85.02-.66-.07-1.24.1-2.15.1-.45.36-.91.69-1.22.33-.32.7-.53,1.06-.68.72-.29,1.4-.37,2-.42,1.2-.11,2.28-.13,3.19-.1,1.82.07,2.92.34,2.91.54,0,.22-1.12.33-2.86.53-.87.1-1.91.23-3.05.41-1.11.15-2.32.5-2.44,1.29-.1.43-.06,1.19-.09,1.81-.02.64-.04,1.26-.06,1.85-.06,1.19-.1,2.16.1,2.92.18.74.58,1.27.9,1.57.33.3.58.42.56.53Z"/>
              <path class="cls-10" d="M89.55,72.54c-.05-.08.21-.38.88-.49.63-.1,1.76.05,2.57,1.12.4.55.52,1.26.6,1.88.07.61.15,1.27.24,1.96.07.7.15,1.42.22,2.18.05.78.09,1.67-.26,2.63-.34.97-1.24,1.72-2.1,1.99-.86.29-1.67.31-2.39.3-1.42-.05-2.64-.14-3.7-.22-.54-.05-1.07-.13-1.52-.33-.45-.19-.78-.48-.98-.76-.4-.59-.27-1.02-.18-1.01.11-.02.21.3.61.6.4.32,1.07.48,2.09.41,1.03-.05,2.32-.08,3.66-.1,1.32-.03,2.7-.31,3.08-1.43.41-1.14.09-2.78.06-4.15-.03-.69-.07-1.35-.1-1.97-.02-.6-.07-1.08-.26-1.41-.38-.72-1.15-1.03-1.65-1.1-.52-.08-.84,0-.89-.1Z"/>
            </g>
            <g>
              <path class="cls-10" d="M83.35,54.82c-.01.09-.33.18-.87-.03-.53-.21-1.21-.77-1.61-1.72-.41-.94-.46-2.13-.48-3.28,0-.59-.02-1.21-.02-1.85.02-.66-.07-1.24.1-2.15.1-.45.36-.91.69-1.22.33-.32.7-.53,1.06-.68.72-.29,1.4-.37,2-.42,1.2-.11,2.28-.13,3.19-.1,1.82.07,2.92.34,2.91.54,0,.22-1.12.33-2.86.53-.87.1-1.91.23-3.05.41-1.11.15-2.32.5-2.44,1.29-.1.43-.06,1.19-.09,1.81-.02.64-.04,1.26-.06,1.85-.06,1.19-.1,2.16.1,2.92.18.74.58,1.27.9,1.57.33.3.58.42.56.53Z"/>
              <path class="cls-10" d="M87.98,44.03c-.05-.08.21-.38.88-.49.63-.1,1.76.05,2.57,1.12.4.55.52,1.26.6,1.88.07.61.15,1.27.24,1.96.07.7.15,1.42.22,2.18.05.78.09,1.67-.26,2.63-.34.97-1.24,1.72-2.1,1.99-.86.29-1.67.31-2.39.3-1.42-.05-2.64-.14-3.7-.22-.54-.05-1.07-.13-1.52-.33-.45-.19-.78-.48-.98-.76-.4-.59-.27-1.02-.18-1.01.11-.02.21.3.61.6.4.32,1.07.48,2.09.41,1.03-.05,2.32-.08,3.66-.1,1.32-.03,2.7-.31,3.08-1.43.41-1.14.09-2.78.06-4.15-.03-.69-.07-1.35-.1-1.97-.02-.6-.07-1.08-.26-1.41-.38-.72-1.15-1.03-1.65-1.1-.52-.08-.84,0-.89-.1Z"/>
            </g>
            <g>
              <path class="cls-10" d="M98.63,68.48c-.01.09-.33.18-.87-.03-.53-.21-1.21-.77-1.61-1.72-.41-.94-.46-2.13-.48-3.28,0-.59-.02-1.21-.02-1.85.02-.66-.07-1.24.1-2.15.1-.45.36-.91.69-1.22.33-.32.7-.53,1.06-.68.72-.29,1.4-.37,2-.42,1.2-.11,2.28-.13,3.19-.1,1.82.07,2.92.34,2.91.54,0,.22-1.12.33-2.86.53-.87.1-1.91.23-3.05.41-1.11.15-2.32.5-2.44,1.29-.1.43-.06,1.19-.09,1.81-.02.64-.04,1.26-.06,1.85-.06,1.19-.1,2.16.1,2.92.18.74.58,1.27.9,1.57.33.3.58.42.56.53Z"/>
              <path class="cls-10" d="M103.26,57.68c-.05-.08.21-.38.88-.49.63-.1,1.76.05,2.57,1.12.4.55.52,1.26.6,1.88.07.61.15,1.27.24,1.96.07.7.15,1.42.22,2.18.05.78.09,1.67-.26,2.63-.34.97-1.24,1.72-2.1,1.99-.86.29-1.67.31-2.39.3-1.42-.05-2.64-.14-3.7-.22-.54-.05-1.07-.13-1.52-.33-.45-.19-.78-.48-.98-.76-.4-.59-.27-1.02-.18-1.01.11-.02.21.3.61.6.4.32,1.07.48,2.09.41,1.03-.05,2.32-.08,3.66-.1,1.32-.03,2.7-.31,3.08-1.43.41-1.14.09-2.78.06-4.15-.03-.69-.07-1.35-.1-1.97-.02-.6-.07-1.08-.26-1.41-.38-.72-1.15-1.03-1.65-1.1-.52-.08-.84,0-.89-.1Z"/>
            </g>
            <g>
              <path class="cls-10" d="M99.47,83.03c-.01.09-.33.18-.87-.03-.53-.21-1.21-.77-1.61-1.72-.41-.94-.46-2.13-.48-3.28,0-.59-.02-1.21-.02-1.85.02-.66-.07-1.24.1-2.15.1-.45.36-.91.69-1.22.33-.32.7-.53,1.06-.68.72-.29,1.4-.37,2-.42,1.2-.11,2.28-.13,3.19-.1,1.82.07,2.92.34,2.91.54,0,.22-1.12.33-2.86.53-.87.1-1.91.23-3.05.41-1.11.15-2.32.5-2.44,1.29-.1.43-.06,1.19-.09,1.81-.02.64-.04,1.26-.06,1.85-.06,1.19-.1,2.16.1,2.92.18.74.58,1.27.9,1.57.33.3.58.42.56.53Z"/>
              <path class="cls-10" d="M104.1,72.23c-.05-.08.21-.38.88-.49.63-.1,1.76.05,2.57,1.12.4.55.52,1.26.6,1.88.07.61.15,1.27.24,1.96.07.69.15,1.42.22,2.18.05.78.09,1.67-.26,2.63-.34.97-1.24,1.72-2.1,1.99-.86.29-1.67.31-2.39.3-1.42-.05-2.64-.14-3.7-.22-.54-.05-1.07-.13-1.52-.33-.45-.19-.78-.48-.98-.76-.4-.59-.27-1.02-.18-1.01.11-.02.21.3.61.6.4.32,1.07.48,2.09.41,1.03-.05,2.32-.08,3.66-.1,1.32-.03,2.7-.31,3.08-1.43.41-1.14.09-2.78.06-4.15-.03-.69-.07-1.35-.1-1.97-.02-.6-.07-1.08-.26-1.41-.38-.72-1.15-1.03-1.65-1.1-.52-.08-.84,0-.89-.1Z"/>
            </g>
            <g>
              <path class="cls-10" d="M12.49,99.09c-.01.09-.33.18-.87-.03-.53-.21-1.21-.77-1.61-1.72-.41-.94-.46-2.13-.48-3.28,0-.59-.02-1.21-.02-1.85.02-.66-.07-1.24.1-2.15.1-.45.36-.91.69-1.22.33-.32.7-.53,1.06-.68.72-.29,1.4-.37,2-.42,1.2-.11,2.28-.13,3.19-.1,1.82.07,2.92.34,2.91.54,0,.22-1.12.33-2.86.53-.87.1-1.91.23-3.05.41-1.11.15-2.32.5-2.44,1.29-.1.43-.06,1.19-.09,1.81-.02.64-.04,1.26-.06,1.85-.06,1.19-.1,2.16.1,2.92.18.74.58,1.27.9,1.57.33.3.58.42.56.53Z"/>
              <path class="cls-10" d="M17.11,88.29c-.05-.08.21-.38.88-.49.63-.1,1.76.05,2.57,1.12.4.55.52,1.26.6,1.88.07.61.15,1.27.24,1.96.07.69.15,1.42.22,2.18.05.78.09,1.67-.26,2.63-.34.97-1.24,1.72-2.1,1.99-.86.29-1.67.31-2.39.3-1.42-.05-2.64-.14-3.7-.22-.54-.05-1.07-.13-1.52-.33-.45-.19-.78-.48-.98-.76-.4-.59-.27-1.02-.18-1.01.11-.02.21.3.61.6.4.32,1.07.48,2.09.41,1.03-.05,2.32-.08,3.66-.1,1.32-.03,2.7-.31,3.08-1.43.41-1.14.09-2.78.06-4.15-.03-.69-.07-1.35-.1-1.97-.02-.6-.07-1.08-.26-1.41-.38-.72-1.15-1.03-1.65-1.1-.52-.08-.84,0-.89-.1Z"/>
            </g>
            <g>
              <path class="cls-10" d="M26.88,98.78c-.01.09-.33.18-.87-.03-.53-.21-1.21-.77-1.61-1.72-.41-.94-.46-2.13-.48-3.28,0-.59-.02-1.21-.02-1.85.02-.66-.07-1.24.1-2.15.1-.45.36-.91.69-1.22.33-.32.7-.53,1.06-.68.72-.29,1.4-.37,2-.42,1.2-.11,2.28-.13,3.19-.1,1.82.07,2.92.34,2.91.54,0,.22-1.12.33-2.86.53-.87.1-1.91.23-3.05.41-1.11.15-2.32.5-2.44,1.29-.1.43-.06,1.19-.09,1.81-.02.64-.04,1.26-.06,1.85-.06,1.19-.1,2.16.1,2.92.18.74.58,1.27.9,1.57.33.3.58.42.56.53Z"/>
              <path class="cls-10" d="M31.51,87.99c-.05-.08.21-.38.88-.49.63-.1,1.76.05,2.57,1.12.4.56.52,1.26.6,1.88.07.61.15,1.27.24,1.96.07.69.15,1.42.22,2.18.05.78.09,1.67-.26,2.63-.34.97-1.24,1.72-2.1,1.99-.86.29-1.67.31-2.39.3-1.42-.05-2.64-.14-3.7-.22-.54-.05-1.07-.13-1.52-.33-.45-.19-.78-.48-.98-.76-.4-.59-.27-1.02-.18-1.01.11-.02.21.3.61.6.4.32,1.07.48,2.09.41,1.03-.05,2.32-.08,3.66-.1,1.32-.03,2.7-.31,3.08-1.43.41-1.14.09-2.78.06-4.15-.03-.69-.07-1.35-.1-1.97-.02-.6-.07-1.08-.26-1.41-.38-.72-1.15-1.03-1.65-1.1-.52-.08-.84,0-.89-.1Z"/>
            </g>
            <g>
              <path class="cls-10" d="M41.94,98.47c-.01.09-.33.18-.87-.03-.53-.21-1.21-.77-1.61-1.72-.41-.94-.46-2.13-.48-3.28,0-.59-.02-1.21-.02-1.85.02-.66-.07-1.24.1-2.15.1-.45.36-.91.69-1.22.33-.32.7-.53,1.06-.68.72-.29,1.4-.37,2-.42,1.2-.11,2.28-.13,3.19-.1,1.82.07,2.92.34,2.91.54,0,.22-1.12.33-2.86.53-.87.1-1.91.23-3.05.41-1.11.15-2.32.5-2.44,1.29-.1.43-.06,1.19-.09,1.81-.02.64-.04,1.26-.06,1.85-.06,1.19-.1,2.16.1,2.92.18.74.58,1.27.9,1.57.33.3.58.42.56.53Z"/>
              <path class="cls-10" d="M46.57,87.68c-.05-.08.21-.38.88-.49.63-.1,1.76.05,2.57,1.12.4.55.52,1.26.6,1.88.07.61.15,1.27.24,1.96.07.69.15,1.42.22,2.18.05.78.09,1.67-.26,2.63-.34.97-1.24,1.72-2.1,1.99-.86.29-1.67.31-2.39.3-1.42-.05-2.64-.14-3.7-.22-.54-.05-1.07-.13-1.52-.33-.45-.19-.78-.48-.98-.76-.4-.59-.27-1.02-.18-1.01.11-.02.21.3.61.6.4.32,1.07.48,2.09.41,1.03-.05,2.32-.08,3.66-.1,1.32-.03,2.7-.31,3.08-1.43.41-1.14.09-2.78.06-4.15-.03-.69-.07-1.35-.1-1.97-.02-.6-.07-1.08-.26-1.41-.38-.72-1.15-1.03-1.65-1.1-.52-.08-.84,0-.89-.1Z"/>
            </g>
            <g>
              <path class="cls-10" d="M56.63,98.17c-.01.09-.33.18-.87-.03-.53-.21-1.21-.77-1.61-1.72-.41-.94-.46-2.13-.48-3.28,0-.59-.02-1.21-.02-1.85.02-.66-.07-1.24.1-2.15.1-.45.36-.91.69-1.22.33-.32.7-.53,1.06-.68.72-.29,1.4-.37,2-.42,1.2-.11,2.28-.13,3.19-.1,1.82.07,2.92.34,2.91.54,0,.22-1.12.33-2.86.53-.87.1-1.91.23-3.05.41-1.11.15-2.32.5-2.44,1.29-.1.43-.06,1.19-.09,1.81-.02.64-.04,1.26-.06,1.85-.06,1.19-.1,2.16.1,2.92.18.74.58,1.27.9,1.57.33.3.58.42.56.53Z"/>
              <path class="cls-10" d="M61.26,87.37c-.05-.08.21-.38.88-.49.63-.1,1.76.05,2.57,1.12.4.55.52,1.26.6,1.88.07.61.15,1.27.24,1.96.07.7.15,1.42.22,2.18.05.78.09,1.67-.26,2.63-.34.97-1.24,1.72-2.1,1.99-.86.29-1.67.31-2.39.3-1.42-.05-2.64-.14-3.7-.22-.54-.05-1.07-.13-1.52-.33-.45-.19-.78-.48-.98-.76-.4-.59-.27-1.02-.18-1.01.11-.02.21.3.61.6.4.32,1.07.48,2.09.41,1.03-.05,2.32-.08,3.66-.1,1.32-.03,2.7-.31,3.08-1.43.41-1.14.09-2.78.06-4.15-.03-.69-.07-1.35-.1-1.97-.02-.6-.07-1.08-.26-1.41-.38-.72-1.15-1.03-1.65-1.1-.52-.08-.84,0-.89-.1Z"/>
            </g>
            <g>
              <path class="cls-10" d="M71.28,97.86c-.01.09-.33.18-.87-.03-.53-.21-1.21-.77-1.61-1.72-.41-.94-.46-2.13-.48-3.28,0-.59-.02-1.21-.02-1.85.02-.66-.07-1.24.1-2.15.1-.45.36-.91.69-1.22.33-.32.7-.53,1.06-.68.72-.29,1.4-.37,2-.42,1.2-.11,2.28-.13,3.19-.1,1.82.07,2.92.34,2.91.54,0,.22-1.12.33-2.86.53-.87.1-1.91.23-3.05.41-1.11.15-2.32.5-2.44,1.29-.1.43-.06,1.19-.09,1.81-.02.64-.04,1.26-.06,1.85-.06,1.19-.1,2.16.1,2.92.18.74.58,1.27.9,1.57.33.3.58.42.56.53Z"/>
              <path class="cls-10" d="M75.91,87.07c-.05-.08.21-.38.88-.49.63-.1,1.76.05,2.57,1.12.4.55.52,1.26.6,1.88.07.61.15,1.27.24,1.96.07.69.15,1.42.22,2.18.05.78.09,1.67-.26,2.63-.34.97-1.24,1.72-2.1,1.99-.86.29-1.67.31-2.39.3-1.42-.05-2.64-.14-3.7-.22-.54-.05-1.07-.13-1.52-.33-.45-.19-.78-.48-.98-.76-.4-.59-.27-1.02-.18-1.01.11-.02.21.3.61.6.4.32,1.07.48,2.09.41,1.03-.05,2.32-.08,3.66-.1,1.32-.03,2.7-.31,3.08-1.43.41-1.14.09-2.78.06-4.15-.03-.69-.07-1.35-.1-1.97-.02-.6-.07-1.08-.26-1.41-.38-.72-1.15-1.03-1.65-1.1-.52-.08-.84,0-.89-.1Z"/>
            </g>
            <g>
              <path class="cls-10" d="M85.64,97.55c-.01.09-.33.18-.87-.03-.53-.21-1.21-.77-1.61-1.72-.41-.94-.46-2.13-.48-3.28,0-.59-.02-1.21-.02-1.85.02-.66-.07-1.24.1-2.15.1-.45.36-.91.69-1.22.33-.32.7-.53,1.06-.68.72-.29,1.4-.37,2-.42,1.2-.11,2.28-.13,3.19-.1,1.82.07,2.92.34,2.91.54,0,.22-1.12.33-2.86.53-.87.1-1.91.23-3.05.41-1.11.15-2.32.5-2.44,1.29-.1.43-.06,1.19-.09,1.81-.02.64-.04,1.26-.06,1.85-.06,1.19-.1,2.16.1,2.92.18.74.58,1.27.9,1.57.33.3.58.42.56.53Z"/>
              <path class="cls-10" d="M90.27,86.76c-.05-.08.21-.38.88-.49.63-.1,1.76.05,2.57,1.12.4.56.52,1.26.6,1.88.07.61.15,1.27.24,1.96.07.7.15,1.42.22,2.18.05.78.09,1.67-.26,2.63-.34.97-1.24,1.72-2.1,1.99-.86.29-1.67.31-2.39.3-1.42-.05-2.64-.14-3.7-.22-.54-.05-1.07-.13-1.52-.33-.45-.19-.78-.48-.98-.76-.4-.59-.27-1.02-.18-1.01.11-.02.21.3.61.6.4.32,1.07.48,2.09.41,1.03-.05,2.32-.08,3.66-.1,1.32-.03,2.7-.31,3.08-1.43.41-1.14.09-2.78.06-4.15-.03-.69-.07-1.35-.1-1.97-.02-.6-.07-1.08-.26-1.41-.38-.72-1.15-1.03-1.65-1.1-.52-.08-.84,0-.89-.1Z"/>
            </g>
            <g>
              <path class="cls-10" d="M100.19,97.25c-.01.09-.33.18-.87-.03-.53-.21-1.21-.77-1.61-1.72-.41-.94-.46-2.13-.48-3.28,0-.59-.02-1.21-.02-1.85.02-.66-.07-1.24.1-2.15.1-.45.36-.91.69-1.22.33-.32.7-.53,1.06-.68.72-.29,1.4-.37,2-.42,1.2-.11,2.28-.13,3.19-.1,1.82.07,2.92.34,2.91.54,0,.22-1.12.33-2.86.53-.87.1-1.91.23-3.05.41-1.11.15-2.32.5-2.44,1.29-.1.43-.06,1.19-.09,1.81-.02.64-.04,1.26-.06,1.85-.06,1.19-.1,2.16.1,2.92.18.74.58,1.27.9,1.57.33.3.58.42.56.53Z"/>
              <path class="cls-10" d="M104.82,86.45c-.05-.08.21-.38.88-.49.63-.1,1.76.05,2.57,1.12.4.55.52,1.26.6,1.88.07.61.15,1.27.24,1.96.07.7.15,1.42.22,2.18.05.78.09,1.67-.26,2.63-.34.97-1.24,1.72-2.1,1.99-.86.29-1.67.31-2.39.3-1.42-.05-2.64-.14-3.7-.22-.54-.05-1.07-.13-1.52-.33-.45-.19-.78-.48-.98-.76-.4-.59-.27-1.02-.18-1.01.11-.02.21.3.61.6.4.32,1.07.48,2.09.41,1.03-.05,2.32-.08,3.66-.1,1.32-.03,2.7-.31,3.08-1.43.41-1.14.09-2.78.06-4.15-.03-.69-.07-1.35-.1-1.97-.02-.6-.07-1.08-.26-1.41-.38-.72-1.15-1.03-1.65-1.1-.52-.08-.84,0-.89-.1Z"/>
            </g>
            <g>
              <path class="cls-10" d="M97.9,54.52c-.01.09-.33.18-.87-.03-.53-.21-1.21-.77-1.61-1.72-.41-.94-.46-2.13-.48-3.28,0-.59-.02-1.21-.02-1.85.02-.66-.07-1.24.1-2.15.1-.45.36-.91.69-1.22.33-.32.7-.53,1.06-.68.72-.29,1.4-.37,2-.42,1.2-.11,2.28-.13,3.19-.1,1.82.07,2.92.34,2.91.54,0,.22-1.12.33-2.86.53-.87.1-1.91.23-3.05.41-1.11.15-2.32.5-2.44,1.29-.1.43-.06,1.19-.09,1.81-.02.64-.04,1.26-.06,1.85-.06,1.19-.1,2.16.1,2.92.18.74.58,1.27.9,1.57.33.3.58.42.56.53Z"/>
              <path class="cls-10" d="M102.52,43.72c-.05-.08.21-.38.88-.49.63-.1,1.76.05,2.57,1.12.4.55.52,1.26.6,1.88.07.61.15,1.27.24,1.96.07.69.15,1.42.22,2.18.05.78.09,1.67-.26,2.63-.34.97-1.24,1.72-2.1,1.99-.86.29-1.67.31-2.39.3-1.42-.05-2.64-.14-3.7-.22-.54-.05-1.07-.13-1.52-.33-.45-.19-.78-.48-.98-.76-.4-.59-.27-1.02-.18-1.01.11-.02.21.3.61.6.4.32,1.07.48,2.09.41,1.03-.05,2.32-.08,3.66-.1,1.32-.03,2.7-.31,3.08-1.43.41-1.14.09-2.78.06-4.15-.03-.69-.07-1.35-.1-1.97-.02-.6-.07-1.08-.26-1.41-.38-.72-1.15-1.03-1.65-1.1-.52-.08-.84,0-.89-.1Z"/>
            </g>
          </g>
          <path class="cls-5" d="M115.31,100.74s.13,0,.26.19c.07.09.09.31-.04.44-.1.15-.26.26-.43.36-.72.39-1.84.69-3.29.96-1.45.27-3.24.51-5.32.7-2.1.19-4.45.26-7.07.4-5.23.28-11.46.48-18.38.7-6.92.21-14.53.45-22.5.62-15.95.41-30.43.66-40.9.36-5.24-.13-9.47-.37-12.4-.58-1.48-.1-2.67-.49-3.28-1.05-.62-.55-.67-1.03-.64-1.03.06-.04.21.37.82.78.6.41,1.69.69,3.13.7,2.92.03,7.16.1,12.38.1,10.46.03,24.89-.39,40.86-.8,15.96-.34,30.41-.65,40.88-.88,2.61-.07,5-.07,7.05-.18,2.07-.11,3.85-.26,5.29-.44,1.44-.18,2.56-.38,3.24-.65.35-.13.53-.31.46-.46-.05-.16-.15-.23-.12-.26Z"/>
          <path class="cls-5" d="M4.31,104.58s-.19.22-.69.22c-.48,0-1.24-.27-1.8-1.04-.57-.78-.71-1.95-.75-3.14-.05-1.2-.11-2.57-.17-4.08-.22-6.04-.42-14.38-.54-23.59-.12-9.21-.15-17.55-.09-23.59.06-6.04.2-9.78.41-9.78.21,0,.45,3.73.67,9.77.22,6.04.42,14.38.54,23.58.12,9.21.15,17.55.09,23.6-.02,1.51-.04,2.88-.06,4.08-.04,1.19.02,2.17.4,2.83.38.65.95.97,1.34,1.05.4.09.63.02.65.08Z"/>
          <g class="cls-7">
            <path class="cls-12" d="M116.27,98.25c-.74-28.52-1.48-57.04-2.22-85.55-.03-1.07-.15-2.31-1.06-2.88-.57-.35-1.29-.33-1.96-.28-5.29.33,2.47-.02-2.67.33-2,18.34-.77,18.18.21,36.54,2.29,42.73-10.36,48.94-16.37,51.79-8.08,3.82-90.74,4.88-89.34,5.91.93.69,2.17.76,3.32.8,35.11,1.25,70.3.53,105.33-2.16,1.63-.12,3.52-.41,4.32-1.83.45-.79.44-1.75.41-2.66Z"/>
          </g>
        </g>
      </g>
    </g>
  </g>
</svg>