<?xml version="1.0" encoding="UTF-8"?>
<svg xmlns="http://www.w3.org/2000/svg" viewBox="0 0 96.96 133.43">
  <defs>
    <style>
      .cls-1 {
        fill: #56ab56;
      }

      .cls-2 {
        fill: #90d550;
      }

      .cls-3 {
        fill: #56b356;
      }

      .cls-4 {
        fill: #96c294;
      }

      .cls-5 {
        fill: #fff;
      }

      .cls-6 {
        isolation: isolate;
      }

      .cls-7 {
        opacity: .57;
      }

      .cls-7, .cls-8 {
        mix-blend-mode: multiply;
      }

      .cls-8 {
        fill: #baed95;
        opacity: .6;
      }

      .cls-9 {
        fill: #56af56;
      }

      .cls-10 {
        fill: #00b841;
      }

      .cls-11 {
        fill: #008d00;
      }

      .cls-12 {
        fill: #005900;
      }

      .cls-13 {
        fill: #56b656;
      }
    </style>
  </defs>
  <g class="cls-6">
    <g id="Camada_2" data-name="Camada 2">
      <g id="OBJECTS">
        <g>
          <path class="cls-12" d="M48.97,9.03c-5.64.26-18.96.39-24.61.65-5.38.25-11.3.79-16.6,1.52-1.32.12-2.69.28-3.79,1.02-1.81,1.21-2.33,3.6-2.61,5.76-.74,5.6-.86,17.1-1.04,22.75-.64,20.49-.23,62.16.69,77.43.25,4.14-.2,8.65,2.93,11.37,2.69,2.34,6.53,2.66,10.09,2.87,22.49,1.35,46.23,1.6,68.65-.6,4.43-.43,9.41-1.34,11.86-5.06,1.41-2.14,1.68-4.82,1.84-7.38.7-10.69.51-24.41.56-35.12.12-24.6-.23-43.74-.73-65.32-.03-1.36-.08-2.78-.69-4-1.31-2.61-4.62-3.36-7.51-3.77-15.15-2.15-23.78-2.81-39.03-2.12Z"/>
          <g class="cls-7">
            <path class="cls-12" d="M93.19,86.8c.25-19.05.17-24.96-.39-40.77-.19-5.25.67-20.6-1.63-23-4.75-4.94-12.35-5.05-18.51-6.11-4.13-.71-2.98-3.91-10.17-4.41-1.26-.09-1.68-2.65-2.45-3.74-.05-.07-4.18.26-4.22.2-3.51.21-1.96-.34-5.48-.26-.43,1.1-1.07,2.11-2.06,2.94-4.42,3.73-11.47,5.18-17,5.89-3.89.5-7.81.56-11.71.89-3.23.27-6.83.8-9.09,3.38-2.64,3.01-2.93,12.6-3.09,16.39-.18,4.19.11,8.39.35,12.58.89,15.63.22,31.37.59,47.02.22,9.26-1.53,24.39,9.68,27.86,7.23,2.23,20.06.94,30.87,1.29,13.65.44,24.51-.21,34.37-1.39,4.72-.57,6.72-2.62,7.46-4.31,3.5-8.01,2.35-23.82,2.49-34.44Z"/>
          </g>
          <path class="cls-5" d="M48.29,16.43c-4.8.22-16.12.33-20.93.56-4.58.21-9.61.68-14.12,1.3-1.12.11-2.29.24-3.22.87-1.54,1.04-1.98,3.07-2.22,4.91-.63,4.78-.6,14.32-.89,19.13-1.24,20.63.7,58.05,1.51,68.88.26,3.52-1.1,5.5,1.56,7.82,2.29,1.99,5.55,2.27,8.58,2.45,19.13,1.15,39.31,2.33,58.38.45,3.77-.37,8-1.14,10.09-4.31,1.2-1.83,1.43-4.11,1.57-6.3.6-9.12.39-18.26.18-27.4-.43-18.41.03-38.66-.39-57.06-.03-1.16-.95-5.23-1.47-6.27-1.12-2.23-4.78-3.87-7.26-4.05-12.71-.95-18.4-1.56-31.36-.97Z"/>
          <g>
            <path class="cls-9" d="M23.89,52.58c0,.09-.36.15-1.02.22-.33.03-.74.07-1.23.05-.48-.02-1.08-.07-1.7-.41-.3-.17-.62-.44-.82-.79-.12-.17-.17-.36-.25-.55-.06-.17-.11-.35-.15-.53-.17-.72-.24-1.48-.29-2.26-.11-1.56-.03-3.28,0-5.09.02-.44.04-.92.18-1.44.13-.52.48-1.05.92-1.37.88-.64,1.79-.74,2.59-.83,1.59-.13,2.99-.12,4.17-.07,2.37.12,3.8.46,3.78.62-.02.18-1.47.16-3.78.26-1.15.06-2.55.14-4.04.33-.72.1-1.49.27-1.97.66-.48.35-.57.99-.6,1.91-.02,1.76-.14,3.44-.09,4.97.01.76.05,1.47.16,2.1.1.68.27,1.04.67,1.32.38.27.87.39,1.3.47.44.08.83.11,1.16.15.65.07,1.02.18,1.02.26Z"/>
            <path class="cls-9" d="M27.36,40.14c-.03-.06.29-.36,1.05-.42.71-.05,1.95.21,2.76,1.43.4.62.5,1.41.54,2.13.05.71.11,1.47.17,2.27.06.8.09,1.7.05,2.58-.04.88-.01,1.79-.32,2.86-.08.26-.2.54-.39.79-.08.12-.21.27-.35.38-.14.11-.27.18-.4.25-.51.24-.98.35-1.44.43-.91.17-1.77.22-2.59.25-1.64-.01-3.11-.06-4.34-.16-.62-.07-1.21-.19-1.7-.42-.5-.23-.85-.56-1.07-.87-.43-.66-.29-1.13-.23-1.11.1-.01.15.38.6.8.44.45,1.27.73,2.46.73,1.2-.02,2.63-.06,4.21-.1.79-.06,1.61-.14,2.42-.3.4-.08.8-.19,1.11-.34.07-.04.14-.08.18-.11.04-.03.06-.05.11-.12.09-.12.16-.27.21-.45.22-.73.23-1.66.28-2.52.05-.88.05-1.67.02-2.47-.03-.79-.06-1.57-.06-2.29,0-.7-.05-1.29-.28-1.73-.47-.91-1.41-1.3-2.01-1.38-.62-.09-.99.03-1.03-.07Z"/>
          </g>
          <g>
            <path class="cls-9" d="M24.3,71.82c0,.09-.4.15-1.12.22-.36.03-.81.07-1.35.03-.53-.05-1.2-.14-1.83-.65-.3-.26-.55-.63-.68-1.03-.12-.37-.21-.74-.28-1.14-.13-.78-.18-1.6-.22-2.46-.05-.85-.01-1.75,0-2.69,0-.47.01-.94.02-1.42,0-.48.02-.97.15-1.55.12-.58.52-1.2,1.01-1.54.5-.35,1.02-.52,1.51-.64,1-.22,1.89-.22,2.74-.28.86-.04,1.68-.04,2.45,0,.38.02.75.05,1.11.08.18.02.35.04.52.05.08.01.17.01.3.04.1.02.19.05.27.08.32.11.61.23.86.32.3.09.61.25.83.44.46.38.7.83.82,1.2.22.78-.01,1.21-.07,1.18-.1,0-.06-.42-.38-1-.15-.28-.41-.6-.78-.82-.19-.12-.38-.19-.64-.24-.28-.07-.57-.15-.88-.23-.07-.02-.14-.03-.2-.04h-.2c-.17-.01-.33-.02-.51-.02-.34,0-.7,0-1.07,0-.74,0-1.53.05-2.36.12-.83.08-1.73.12-2.53.32-.4.1-.78.24-1.06.45-.28.22-.44.45-.53.83-.09.37-.11.85-.12,1.32-.01.47-.03.93-.04,1.39-.02.91-.08,1.79-.07,2.63,0,.84.02,1.63.09,2.34.04.35.09.69.17,1,.07.27.19.48.36.66.34.35.87.51,1.33.61.47.1.9.14,1.26.18.71.07,1.12.18,1.11.26Z"/>
            <path class="cls-9" d="M27.76,59.38c-.03-.06.29-.36,1.05-.42.71-.05,1.95.21,2.76,1.43.4.62.5,1.41.54,2.13.05.71.11,1.47.17,2.27.06.8.09,1.7.05,2.58-.04.88-.01,1.79-.32,2.86-.08.26-.2.54-.39.79-.08.12-.21.27-.35.38-.14.11-.27.18-.4.25-.51.24-.98.35-1.44.43-.91.17-1.77.22-2.59.25-1.64-.01-3.11-.06-4.34-.16-.62-.07-1.21-.19-1.7-.42-.5-.23-.85-.56-1.07-.87-.43-.66-.29-1.13-.23-1.11.1-.01.15.38.6.8.44.45,1.27.73,2.46.73,1.2-.02,2.63-.06,4.21-.1.79-.06,1.61-.14,2.42-.3.4-.08.8-.19,1.11-.34.07-.04.14-.08.18-.11.04-.03.06-.05.11-.12.09-.12.16-.27.21-.45.22-.73.23-1.66.28-2.52.05-.88.05-1.67.02-2.47-.03-.79-.06-1.57-.06-2.29,0-.7-.05-1.29-.28-1.73-.47-.91-1.41-1.3-2.01-1.38-.62-.09-.99.03-1.03-.07Z"/>
          </g>
          <g>
            <path class="cls-9" d="M24.82,91.82c0,.09-.4.15-1.12.22-.36.03-.81.07-1.35.03-.53-.05-1.2-.14-1.83-.65-.3-.26-.55-.63-.68-1.03-.12-.37-.21-.74-.28-1.14-.13-.78-.18-1.6-.22-2.46-.05-.85-.01-1.75,0-2.69,0-.47.01-.94.02-1.42,0-.48.02-.97.15-1.55.12-.58.52-1.2,1.01-1.54.5-.35,1.02-.52,1.51-.64,1-.22,1.89-.22,2.74-.28.86-.04,1.68-.04,2.45,0,.38.02.75.05,1.11.08.18.02.35.04.52.05.08.01.17.01.3.04.1.02.19.05.27.08.32.11.61.23.86.32.3.09.61.25.83.44.46.38.7.83.82,1.2.22.78-.01,1.21-.07,1.18-.1,0-.06-.42-.38-1-.15-.28-.41-.6-.78-.82-.19-.12-.38-.19-.64-.24-.28-.07-.57-.15-.88-.23-.07-.02-.14-.03-.2-.04h-.2c-.17-.01-.33-.02-.51-.02-.34,0-.7,0-1.07,0-.74,0-1.53.05-2.36.12-.83.08-1.73.12-2.53.32-.4.1-.78.24-1.06.45-.28.22-.44.45-.53.83-.09.37-.11.85-.12,1.32-.01.47-.03.93-.04,1.39-.02.91-.08,1.79-.07,2.63,0,.84.02,1.63.09,2.34.04.35.09.69.17,1,.07.27.19.48.36.66.34.35.87.51,1.33.61.47.1.9.14,1.26.18.71.07,1.12.18,1.11.26Z"/>
            <path class="cls-9" d="M28.29,79.38c-.03-.06.29-.36,1.05-.42.71-.05,1.95.21,2.76,1.43.4.62.5,1.41.54,2.13.05.71.11,1.47.17,2.27.06.8.09,1.7.05,2.58-.04.88-.01,1.79-.32,2.86-.08.26-.2.54-.39.79-.08.12-.21.27-.35.38-.14.11-.27.18-.4.25-.51.24-.98.35-1.44.43-.91.17-1.77.22-2.59.25-1.64-.01-3.11-.06-4.34-.16-.62-.07-1.21-.19-1.7-.42-.5-.23-.85-.56-1.07-.87-.43-.66-.29-1.13-.23-1.11.1-.01.15.38.6.8.44.45,1.27.73,2.46.73,1.2-.02,2.63-.06,4.21-.1.79-.06,1.61-.14,2.42-.3.4-.08.8-.19,1.11-.34.07-.04.14-.08.18-.11.04-.03.06-.05.11-.12.09-.12.16-.27.21-.45.22-.73.23-1.66.28-2.52.05-.88.05-1.67.02-2.47-.03-.79-.06-1.57-.06-2.29,0-.7-.05-1.29-.28-1.73-.47-.91-1.41-1.3-2.01-1.38-.62-.09-.99.03-1.03-.07Z"/>
          </g>
          <g>
            <path class="cls-9" d="M25.43,112.66c0,.09-.4.15-1.12.22-.36.03-.81.07-1.35.03-.53-.05-1.2-.14-1.83-.65-.3-.26-.55-.63-.68-1.03-.12-.37-.21-.74-.28-1.14-.13-.78-.18-1.6-.22-2.46-.05-.85-.01-1.75,0-2.69,0-.47.01-.94.02-1.42,0-.48.02-.97.15-1.55.12-.58.52-1.2,1.01-1.54.5-.35,1.02-.52,1.51-.64,1-.22,1.89-.22,2.74-.28.86-.04,1.68-.04,2.45,0,.38.02.75.05,1.11.08.18.02.35.04.52.05.08.01.17.01.3.04.1.02.19.05.27.08.32.11.61.23.86.32.3.09.61.25.83.44.46.38.7.83.82,1.2.22.78-.01,1.21-.07,1.18-.1,0-.06-.42-.38-1-.15-.28-.41-.6-.78-.82-.19-.12-.38-.19-.64-.24-.28-.07-.57-.15-.88-.23-.07-.02-.14-.03-.2-.04h-.2c-.17-.01-.33-.02-.51-.02-.34,0-.7,0-1.07,0-.74,0-1.53.05-2.36.12-.83.08-1.73.12-2.53.32-.4.1-.78.24-1.06.45-.28.22-.44.45-.53.83-.09.37-.11.85-.12,1.32-.01.47-.03.93-.04,1.39-.02.91-.08,1.79-.07,2.63,0,.84.02,1.63.09,2.34.04.35.09.69.17,1,.07.27.19.48.36.66.34.35.87.51,1.33.61.47.1.9.14,1.26.18.71.07,1.12.18,1.11.26Z"/>
            <path class="cls-9" d="M28.9,100.22c-.03-.06.29-.36,1.05-.42.71-.05,1.95.21,2.76,1.43.4.62.5,1.41.54,2.13.05.71.11,1.47.17,2.27.06.8.09,1.7.05,2.58-.04.88-.01,1.79-.32,2.86-.08.26-.2.54-.39.79-.08.12-.21.27-.35.38-.14.11-.27.18-.4.25-.51.24-.98.35-1.44.43-.91.17-1.77.22-2.59.25-1.64-.01-3.11-.06-4.34-.16-.62-.07-1.21-.19-1.7-.42-.5-.23-.85-.56-1.07-.87-.43-.66-.29-1.13-.23-1.11.1-.01.15.38.6.8.44.45,1.27.73,2.46.73,1.2-.02,2.63-.06,4.21-.1.79-.06,1.61-.14,2.42-.3.4-.08.8-.19,1.11-.34.07-.04.14-.08.18-.11.04-.03.06-.05.11-.12.09-.12.16-.27.21-.45.22-.73.23-1.66.28-2.52.05-.88.05-1.67.02-2.47-.03-.79-.06-1.57-.06-2.29,0-.7-.05-1.29-.28-1.73-.47-.91-1.41-1.3-2.01-1.38-.62-.09-.99.03-1.03-.07Z"/>
          </g>
          <path class="cls-8" d="M30.02,21.27s-3.5,3.41,3.42,4.18c6.91.77,31.71,0,31.71,0,0,0,5,.49,5.19-1.92l.19-2.41-40.51.14Z"/>
          <g>
            <path class="cls-4" d="M72.38,42.11c0,.36-7.57.76-16.89.87-9.33.12-16.9-.08-16.9-.44,0-.36,7.56-.75,16.89-.87,9.33-.12,16.91.08,16.91.44Z"/>
            <path class="cls-4" d="M71.49,48.54c0,.37-7.29.61-16.26.56-2.25,0-4.38-.07-6.3-.04-1.94.03-3.69.06-5.16.08-2.95.04-4.81-.23-4.78-.44.03-.15,1.81-.21,4.74-.49,1.46-.12,3.21-.27,5.16-.36,1.96-.1,4.11-.07,6.34-.06,8.97.06,16.25.39,16.25.76Z"/>
            <path class="cls-4" d="M71.46,65.51c.01.36-7.15.92-15.98,1.23-8.83.32-16.01.28-16.02-.08-.01-.36,7.14-.92,15.98-1.23,8.83-.32,16.02-.28,16.03.08Z"/>
            <path class="cls-4" d="M71.21,71.91c.02.36-6.89,1.05-15.42,1.14-8.54.1-15.45-.43-15.44-.79.01-.37,6.92-.43,15.43-.53,8.5-.09,15.42-.19,15.44.18Z"/>
            <path class="cls-4" d="M72.64,84.24c.02.18-1.78.52-4.71.73-2.93.22-6.97.36-11.43.38-8.92.03-16.14-.25-16.15-.6,0-.38,7.23-.69,16.14-.72,4.45,0,8.48,0,11.4,0,2.92.02,4.72.01,4.74.2Z"/>
            <path class="cls-4" d="M72.05,90.53c.02.35-6.94,1.12-15.55,1.22-8.61.1-15.58-.51-15.57-.87.02-.38,6.98-.35,15.55-.45,8.57-.1,15.54-.28,15.57.1Z"/>
            <path class="cls-4" d="M72.62,102.59c.02.18-1.76.51-4.65.79-2.89.29-6.9.5-11.31.62-4.41.09-8.4.17-11.3.23-2.89.04-4.69.05-4.7-.14-.02-.17,1.76-.51,4.65-.79,2.89-.29,6.9-.5,11.31-.62,4.41-.09,8.4-.17,11.3-.23,2.89-.04,4.69-.05,4.71.14Z"/>
            <path class="cls-4" d="M72.79,109.98c.01.18-1.76.45-4.63.61-2.87.16-6.83.24-11.2.21-8.74-.06-15.82-.39-15.82-.76,0-.36,7.09-.62,15.83-.56,4.37.03,8.32.1,11.18.18,2.86.08,4.63.14,4.64.33Z"/>
          </g>
          <path class="cls-1" d="M60.04,123.75c0,.05-.6.1-1.74.13-1.14.02-2.82.05-4.99.09-4.33.05-10.6.17-18.35.15-3.88-.02-8.12-.08-12.68-.28-2.29-.11-4.62-.23-7.08-.45-1.23-.14-2.55-.36-3.79-1.03-.62-.35-1.19-.76-1.66-1.38-.46-.61-.72-1.27-.95-1.87-.12-.3-.23-.59-.35-.87-.06-.14-.12-.27-.19-.4-.02-.07-.16-.24-.16-.38l-.03-.35c-.05-.65-.1-1.3-.15-1.95-.09-1.31-.19-2.63-.28-3.97-.18-2.67-.35-5.41-.54-8.18-.33-5.56-.65-11.32-.82-17.24-.09-2.95-.1-5.91-.05-8.77,0-2.87.02-5.7.03-8.48-.01-5.56-.05-10.94,0-16.06.06-10.24.5-19.49,1.45-27.2.22-1.9.49-3.93,1.74-5.45.61-.76,1.44-1.26,2.24-1.58.81-.33,1.6-.52,2.36-.69,3.06-.64,5.73-.77,7.9-.86,2.17-.07,3.86-.03,5,.01,1.14.05,1.74.11,1.74.16,0,.05-.6.1-1.74.15-1.14.05-2.82.11-4.97.27-2.14.17-4.79.39-7.74,1.1-1.45.36-3.07.81-4.04,2.05-.99,1.24-1.24,3.06-1.42,4.96-.81,7.67-1.13,16.87-1.12,27.09.05,10.22.1,21.46.15,33.26.16,5.88.47,11.64.79,17.19.17,2.78.34,5.5.5,8.18.09,1.34.17,2.66.26,3.96.04.65.09,1.3.13,1.95.03.25-.02.06.04.19.08.16.16.32.22.48.14.32.25.63.36.92.22.59.44,1.12.75,1.53.29.39.75.75,1.21,1.01.96.53,2.12.76,3.28.9,2.37.23,4.74.38,7,.52,4.53.25,8.77.38,12.63.47,7.74.16,14.01.2,18.34.33,2.17.06,3.85.12,4.99.19,1.14.07,1.74.13,1.74.18Z"/>
          <path class="cls-1" d="M65.14,16.47s.56-.13,1.65-.18c1.08-.05,2.68-.06,4.73.04,2.05.1,4.56.31,7.45.57.7.06,1.53.12,2.31.35.78.22,1.56.53,2.32.92.76.39,1.5.87,2.21,1.43.36.28.7.58,1.04.9.17.15.33.34.5.55.18.2.31.42.42.64.48.89.74,1.85.92,2.83.18.97.29,1.97.35,2.98.13,2.03.09,4.13.04,6.28-.07,4.26.06,8.89.1,13.72.12,9.68.3,20.31.29,31.49.01,5.59-.17,11.04-.08,16.28.1,5.25.08,10.4-.49,15.24-.3,2.4-.44,4.79-1.3,7.11-.23.57-.5,1.14-.92,1.66-.42.5-.81.88-1.25,1.28-.87.78-1.89,1.43-2.98,1.83-.54.2-1.1.35-1.63.46-.52.1-1.04.2-1.56.3-1.03.19-2.05.34-3.05.47-2,.26-3.93.42-5.76.51-3.67.2-7.03.05-9.91-.03-2.91-.03-5.41-.06-7.46-.09-2.05-.04-3.64-.13-4.72-.24-1.08-.1-1.64-.22-1.63-.26,0-.06.57-.05,1.65-.04,1.08,0,2.66,0,4.7-.05,2.04-.04,4.54-.14,7.46-.17,2.93,0,6.2.07,9.84-.19,1.81-.12,3.71-.31,5.67-.6.98-.14,1.98-.31,2.98-.51,1.01-.21,2.06-.37,2.96-.73.93-.36,1.79-.91,2.56-1.62.37-.34.79-.76,1.09-1.13.29-.37.52-.83.7-1.32.73-2.01.88-4.39,1.15-6.78.52-4.78.52-9.81.39-15.08-.12-5.28.06-10.74.05-16.31.02-11.15-.12-21.79-.17-31.47,0-4.85-.08-9.42.04-13.77.08-2.15.14-4.21.05-6.18-.04-.98-.13-1.94-.28-2.85-.14-.91-.38-1.79-.75-2.51-.34-.69-1-1.27-1.65-1.81-.65-.53-1.33-.99-2.03-1.37-.7-.38-1.41-.69-2.12-.9-.71-.23-1.4-.3-2.14-.38-2.89-.34-5.37-.64-7.41-.83-2.03-.19-3.62-.28-4.69-.33-1.08-.05-1.64-.07-1.64-.13Z"/>
          <path class="cls-10" d="M30.04,18.96c.42-1.79-.63-3.97.57-5.36.37-.43.9-.68,1.42-.89,2.76-1.09,5.81-1.1,8.78-1.1,4.22,0,8.44,0,12.65,0,2.59,0,5.2,0,7.73.54,1.16.24,2.39.66,3.03,1.66.95,1.47.2,3.52.9,5.13"/>
          <path class="cls-11" d="M31.36,18.71c-2.81,0-3.76.12-4.31.39-.86.42-1.11,1.71-.66,2.55.57,1.05,1.96,1.22,3.15,1.32,5.33.48,15.01.48,26.15.17,2.94-.08,8.25-.34,11.09-1.12.82-.22,1.73-.6,1.97-1.41.22-.74-.28-1.55-.95-1.93-.67-.39-2.75-.23-10.2-.35-8.36-.14-12.51.03-19,.63l-7.23-.25Z"/>
          <path class="cls-2" d="M35.64,12.03c0-1.06,0-3.3,0-4.36,0-2.33-.14-4.16,1.52-5.78C38.87.22,41.46.12,43.83.04c2.63-.09,4.37,0,6.42.07,2.1.08,4.61.83,5.52,2.72.36.75.49,2.35.51,3.19.04,2.46-.04,3.44-.07,5.9"/>
          <path class="cls-13" d="M64.65,18.33c.03.42-7.71,1.34-17.29,1.47-9.58.15-17.33-.44-17.32-.85.01-.43,7.76-.53,17.29-.68,9.53-.14,17.28-.37,17.31.05Z"/>
          <path class="cls-13" d="M57.42,11.61c.02.42-4.86.86-10.88.97s-10.9-.13-10.9-.55c0-.42,4.87-.86,10.87-.97s10.89.13,10.91.55Z"/>
          <path class="cls-3" d="M31.11,37.97c.56.48-1.58,3.86-3.86,8.12-.45.84-.88,1.65-1.28,2.41-.07.13-.13.24-.22.38-.12.18-.23.34-.36.49-.26.3-.55.55-.86.72-.61.34-1.33.32-1.85,0-.41-.24-.7-.63-.9-1.05-.24-.49-.26-.61-.36-.86-.16-.44-.28-.84-.37-1.17-.17-.67-.17-1.1.03-1.21.19-.11.56.12,1.04.61.24.25.52.56.81.93.38.51.42.48.54.49.07,0,.14-.07.15-.13.01-.03.01-.06.01-.08,0-.01,0-.02,0-.03l.09-.2c.32-.79.75-1.69,1.22-2.56,2.44-4.55,5.65-7.35,6.18-6.87Z"/>
        </g>
      </g>
    </g>
  </g>
</svg>