<?xml version="1.0" encoding="UTF-8"?>
<svg xmlns="http://www.w3.org/2000/svg" viewBox="0 0 115.04 108.02">
  <defs>
    <style>
      .cls-1 {
        fill: #56c456;
      }

      .cls-2, .cls-3 {
        fill: #abed80;
      }

      .cls-4 {
        fill: #3ba13f;
      }

      .cls-3, .cls-5, .cls-6 {
        mix-blend-mode: multiply;
      }

      .cls-7 {
        fill: #090;
      }

      .cls-8, .cls-6 {
        fill: #90d550;
      }

      .cls-9 {
        fill: #003f00;
      }

      .cls-10 {
        isolation: isolate;
      }

      .cls-11 {
        opacity: .15;
      }

      .cls-5 {
        opacity: .39;
      }

      .cls-12 {
        fill: #008d00;
      }

      .cls-13 {
        fill: green;
      }

      .cls-14 {
        fill: #569156;
      }

      .cls-6 {
        opacity: .36;
      }
    </style>
  </defs>
  <g class="cls-10">
    <g id="Camada_2" data-name="Camada 2">
      <g id="OBJECTS">
        <g>
          <g class="cls-11">
            <path class="cls-8" d="M55.48,13.03c-14.26-.72-27.85,4.86-37.32,16.93-6,7.64-9.05,15.67-9.46,25.51-.2,4.71-.07,9.47.92,14.07,3.44,16,17.6,29.55,33.18,32.38,16.91,3.07,32.35-.51,42.89-12.25,12.52-13.94,16.63-38.18,3.03-57.34-8.11-11.42-19.97-18.64-33.24-19.31Z"/>
          </g>
          <path class="cls-14" d="M63.09,15.56c-.06.16-1.21-.17-3.41-.66-2.19-.49-5.46-1.11-9.69-1.1-4.21,0-9.41.64-15,2.76-5.57,2.09-11.55,5.6-16.89,10.86-2.66,2.63-5.16,5.67-7.32,9.12-2.12,3.47-3.98,7.3-5.17,11.5-1.24,4.17-1.87,8.7-1.89,13.34-.04,1.16.07,2.33.11,3.51.14,1.17.19,2.36.4,3.53.31,2.36.91,4.71,1.63,7.03.73,2.32,1.73,4.58,2.87,6.78,1.19,2.17,2.6,4.25,4.2,6.21,3.29,3.82,7.38,7.16,12.04,9.66,9.36,4.97,20.8,6.8,32,5.16,2.81-.35,5.54-1.06,8.22-1.81,2.64-.88,5.26-1.8,7.7-3.07,4.94-2.38,9.3-5.69,12.88-9.53,3.56-3.87,6.18-8.43,7.82-13.2,1.65-4.78,2.24-9.82,1.99-14.66-.25-4.85-1.37-9.54-3.17-13.79-.9-2.13-1.96-4.14-3.16-6.03l-.45-.7c-.1-.15-.06-.11-.11-.16l-.29-.32c-.38-.43-.77-.85-1.15-1.27-.76-.84-1.53-1.66-2.3-2.45-3.1-3.16-6.3-5.96-9.77-7.96-1.73-1-3.51-1.83-5.31-2.48-1.82-.61-3.64-1.07-5.46-1.37-3.68-.57-7.26-.67-10.6-.4-1.68.1-3.29.4-4.85.66-1.54.37-3.04.7-4.43,1.2-.35.11-.7.23-1.05.34-.34.12-.67.27-1,.41-.66.28-1.31.53-1.94.82-1.21.66-2.43,1.19-3.47,1.93-.53.35-1.07.67-1.56,1.01-.48.37-.95.74-1.4,1.1-.95.67-1.69,1.5-2.47,2.2-2.98,2.97-4.61,5.87-5.72,7.8-.96,2.02-1.51,3.09-1.65,3.04-.13-.04.15-1.21.89-3.39.9-2.1,2.35-5.26,5.31-8.57.77-.79,1.52-1.71,2.48-2.47.47-.4.94-.81,1.43-1.24.51-.39,1.06-.76,1.61-1.15,1.07-.83,2.34-1.46,3.6-2.2.65-.33,1.34-.63,2.03-.95.35-.16.69-.33,1.05-.47.36-.13.73-.27,1.1-.4,1.47-.59,3.05-1,4.67-1.44,1.65-.34,3.35-.7,5.13-.87,3.55-.39,7.35-.39,11.3.12,1.99.27,4,.73,6.02,1.37,2,.67,3.99,1.54,5.92,2.6,3.87,2.12,7.36,5.08,10.64,8.32.82.82,1.63,1.65,2.42,2.5.4.43.79.85,1.19,1.28l.3.32c.16.15.36.44.41.54l.51.76c1.34,2.04,2.53,4.22,3.54,6.53,2.02,4.61,3.3,9.7,3.63,15.01.32,5.3-.26,10.84-2.05,16.15-1.78,5.3-4.66,10.4-8.58,14.69-3.93,4.27-8.71,7.9-14.06,10.5-2.64,1.38-5.47,2.39-8.32,3.34-2.89.82-5.83,1.58-8.85,1.96-12.03,1.76-24.33-.21-34.54-5.69-5.09-2.76-9.55-6.43-13.17-10.72-1.76-2.18-3.29-4.5-4.59-6.91-1.24-2.43-2.3-4.92-3.08-7.46-.76-2.54-1.37-5.1-1.68-7.66-.22-1.27-.26-2.55-.39-3.82-.02-1.27-.13-2.53-.07-3.78.08-5,.83-9.82,2.25-14.32,1.37-4.5,3.44-8.57,5.77-12.23,2.38-3.63,5.11-6.8,7.99-9.52,5.78-5.44,12.21-8.95,18.15-10.93,5.96-2.01,11.45-2.43,15.83-2.18,4.4.24,7.72,1.15,9.87,1.91,2.17.77,3.22,1.36,3.18,1.47Z"/>
          <path class="cls-4" d="M49.98,70.7c-.72-1.67-3.03-2.42-4.59-1.48-.71.43-1.23,1.12-1.72,1.78-1.75,2.35-4.75,5.09-6.88,7.11-4.75,4.5-3.53,4.16-6.92-.43-3.8-5.14-7.9-1.32-6.11,2.75.04.07.08.14.11.21,1.6,2.9,3.51,5.63,5.69,8.14.76.88,1.71,1.8,2.87,1.79.99,0,1.83-.68,2.57-1.33,4.41-3.82,8.61-7.89,12.58-12.17,1.64-1.77,3.35-4.16,2.4-6.38Z"/>
          <g>
            <path class="cls-2" d="M48.56,55.7l-2.31,16.59c-.14,1.02.74,1.89,1.76,1.73l16.6-2.58s0-12.84-16.05-15.74Z"/>
            <path class="cls-3" d="M47.25,73.94c.23.09.49.12.76.08l16.6-2.58s0-1.32-.53-3.21c-5.51,2.22-11.05,4.35-16.83,5.71Z"/>
            <path class="cls-7" d="M91.88,8.35c1.33-1.55,4.25-4.37,7.62-6.94,4.52-3.45,10.77.27,12.37,2.47,2.49,3.43,4.11,6.85,2.42,10.74-1.69,3.89-4.77,6.98-7.79,9.97-.1-3.42-3.1-5.95-5.86-7.98-3.26-2.41-4.75-7.69-8.76-8.26"/>
            <g class="cls-5">
              <path class="cls-12" d="M112.91,5.16c.84,5.57-2.82,11.23-7.42,16.22.59.98.98,2.04,1.01,3.21,3.01-2.99,6.1-6.08,7.79-9.97,1.46-3.38.7-6.61-1.38-9.46Z"/>
            </g>
            <path class="cls-8" d="M48.56,55.7s27.94-29.44,44.65-48.9c0,0,13.23,4.14,15.72,15.33,0,0-31.07,37.3-44.32,49.31,0,0-1.87-12.42-16.05-15.74Z"/>
            <path class="cls-6" d="M63.58,68.09c1.87,3.22,1.03,3.43,1.03,3.43,13.25-12.01,44.32-49.31,44.32-49.31-.46-2.07-1.29-2.65-2.33-4.26-6.95,9.6-28.91,33.27-43.02,50.14Z"/>
            <path class="cls-9" d="M46.93,67.42l-.68,4.87c-.14,1.02.74,1.89,1.76,1.73l5.31-.83c-1.4-2.73-3.49-4.97-6.39-5.78Z"/>
            <path class="cls-1" d="M64.61,71.44c-.25.05-.65-1.23-1.54-3.14-.89-1.91-2.37-4.42-4.62-6.65-1.13-1.1-2.33-2.02-3.48-2.78-1.16-.74-2.27-1.3-3.23-1.73-1.93-.84-3.22-1.2-3.18-1.45.03-.19,1.42-.23,3.57.38,1.07.31,2.32.8,3.61,1.52,1.28.74,2.62,1.7,3.85,2.9,1.22,1.21,2.19,2.54,2.95,3.81.75,1.28,1.26,2.51,1.6,3.58.66,2.13.67,3.52.48,3.55Z"/>
            <path class="cls-1" d="M104.19,27.12c-.12.03-.3-.22-.61-.63-.32-.42-.77-1.02-1.41-1.73-1.23-1.43-3.08-3.3-5.25-5.2-2.19-1.89-4.3-3.42-5.91-4.43-1.6-1.01-2.66-1.55-2.58-1.78.06-.19,1.3-.02,3.12.78,1.82.79,4.15,2.26,6.43,4.22,2.26,1.98,4.05,4.05,5.11,5.74.54.83.88,1.58,1.05,2.13.16.55.14.89.04.91Z"/>
            <path class="cls-1" d="M106.5,24.59c-.22.07-.76-1.05-1.84-2.71-1.06-1.66-2.68-3.86-4.9-5.84-2.19-2.01-4.56-3.36-6.34-4.18-.87-.47-1.64-.72-2.14-.99-.51-.25-.78-.44-.76-.55.03-.11.35-.12.93-.06.57.08,1.41.18,2.39.53,1.98.59,4.64,1.89,7,4.05,1.21,1.04,2.17,2.24,2.99,3.34.78,1.14,1.41,2.2,1.83,3.16.87,1.89,1.04,3.19.84,3.25Z"/>
            <path class="cls-1" d="M93.21,6.8c.06-.19,1.38-.05,3.35.73,1.97.78,4.57,2.23,6.96,4.45,2.39,2.21,4.04,4.75,4.8,6.76.78,2.01.79,3.36.6,3.39-.25.05-.64-1.16-1.63-2.9-.97-1.75-2.62-3.99-4.87-6.06-2.24-2.09-4.59-3.61-6.35-4.61-1.76-1-2.93-1.52-2.86-1.76Z"/>
          </g>
          <path class="cls-13" d="M81.5,31.99c-3.29,3.27-6.49,6.63-9.61,10.06-.86.95-1.76,1.98-1.95,3.25-.19,1.27.67,2.78,1.95,2.77.81,0,1.49-.59,2.09-1.14,3.31-3.05,6.53-6.2,9.66-9.43,4.54-4.69-1.83-8.62-3.66-3.32l1.52-2.19Z"/>
        </g>
      </g>
    </g>
  </g>
</svg>