<svg width="420" height="34" viewBox="0 0 420 34" fill="none" xmlns="http://www.w3.org/2000/svg">
<g opacity="0.4">
<path fill-rule="evenodd" clip-rule="evenodd" d="M87.672 16.6588C87.582 16.7608 87.503 16.8743 87.435 16.9996C87.268 17.3001 87.185 17.653 87.185 18.0584C87.185 18.4686 87.268 18.8263 87.435 19.1315C87.474 19.2043 87.518 19.2732 87.565 19.3381C86.559 27.4553 79.456 33.7457 70.843 33.7457C61.541 33.7457 54 26.4072 54 17.3546C54 8.30196 61.541 0.963379 70.843 0.963379C79.906 0.963379 87.297 7.92892 87.672 16.6588ZM78.272 18.9527V16.6419H79.323V16.1053H78.272V15.118H77.603V16.1053H77.081V16.6419H77.603V18.9527C77.603 19.3342 77.696 19.6085 77.883 19.7754C78.069 19.9424 78.348 20.0258 78.721 20.0258H79.323V19.4749H78.831C78.625 19.4749 78.481 19.4368 78.397 19.3605C78.314 19.2794 78.272 19.1435 78.272 18.9527ZM66.757 16.2269C66.512 16.0981 66.232 16.0338 65.919 16.0338C65.6 16.0338 65.311 16.1101 65.051 16.2627C64.792 16.4153 64.605 16.6299 64.493 16.9066C64.365 16.6204 64.172 16.4034 63.912 16.2555C63.652 16.1077 63.353 16.0338 63.015 16.0338C62.745 16.0338 62.498 16.0886 62.273 16.1983C62.052 16.308 61.876 16.4654 61.743 16.6705V16.1053H61.074V20.0258H61.743V17.8652C61.743 17.4551 61.846 17.1427 62.052 16.928C62.258 16.7086 62.535 16.5989 62.883 16.5989C63.221 16.5989 63.488 16.7039 63.684 16.9137C63.885 17.1188 63.985 17.4169 63.985 17.808V20.0258H64.647V17.8652C64.647 17.4551 64.75 17.1427 64.956 16.928C65.162 16.7086 65.438 16.5989 65.786 16.5989C66.125 16.5989 66.392 16.7039 66.588 16.9137C66.789 17.1188 66.889 17.4169 66.889 17.808V20.0258H67.551V17.715C67.551 17.3525 67.48 17.0449 67.337 16.7921C67.195 16.5393 67.002 16.3509 66.757 16.2269ZM68.648 16.9996C68.481 17.3001 68.398 17.6506 68.398 18.0513C68.398 18.4471 68.481 18.8001 68.648 19.1101C68.815 19.4201 69.042 19.661 69.332 19.8327C69.621 20.0044 69.944 20.0902 70.302 20.0902C70.65 20.0902 70.954 20.0163 71.213 19.8684C71.478 19.7158 71.677 19.525 71.809 19.2961V20.0258H72.485V16.1053H71.809V16.8207C71.681 16.5966 71.488 16.4106 71.228 16.2627C70.968 16.1148 70.662 16.0409 70.309 16.0409C69.952 16.0409 69.626 16.1244 69.332 16.2913C69.042 16.4582 68.815 16.6943 68.648 16.9996ZM71.625 17.2858C71.748 17.5051 71.809 17.7627 71.809 18.0584C71.809 18.3541 71.748 18.6141 71.625 18.8382C71.503 19.0576 71.336 19.2269 71.125 19.3462C70.919 19.4606 70.692 19.5179 70.442 19.5179C70.192 19.5179 69.964 19.4606 69.758 19.3462C69.552 19.2269 69.388 19.0576 69.265 18.8382C69.143 18.6141 69.082 18.3517 69.082 18.0513C69.082 17.7555 69.143 17.498 69.265 17.2786C69.388 17.0592 69.552 16.8923 69.758 16.7778C69.964 16.6633 70.192 16.6061 70.442 16.6061C70.692 16.6061 70.919 16.6657 71.125 16.785C71.336 16.8994 71.503 17.0664 71.625 17.2858ZM75.042 20.0902C74.733 20.0902 74.456 20.0401 74.211 19.94C73.966 19.835 73.772 19.692 73.63 19.5107C73.488 19.3247 73.41 19.1125 73.395 18.874H74.086C74.106 19.0695 74.199 19.2293 74.365 19.3533C74.537 19.4773 74.76 19.5393 75.034 19.5393C75.289 19.5393 75.49 19.4845 75.637 19.3748C75.784 19.2651 75.858 19.1268 75.858 18.9598C75.858 18.7881 75.779 18.6617 75.622 18.5807C75.466 18.4948 75.223 18.4114 74.895 18.3303C74.596 18.254 74.351 18.1776 74.16 18.1013C73.973 18.0203 73.812 17.9034 73.674 17.7508C73.542 17.5934 73.476 17.3883 73.476 17.1355C73.476 16.9352 73.537 16.7516 73.66 16.5846C73.782 16.4177 73.956 16.2865 74.182 16.1912C74.407 16.091 74.664 16.0409 74.954 16.0409C75.399 16.0409 75.76 16.1506 76.034 16.37C76.309 16.5894 76.456 16.8899 76.475 17.2714H75.806C75.792 17.0664 75.706 16.9018 75.549 16.7778C75.397 16.6538 75.191 16.5918 74.931 16.5918C74.691 16.5918 74.5 16.6419 74.358 16.742C74.216 16.8422 74.145 16.9734 74.145 17.1355C74.145 17.2643 74.187 17.3716 74.27 17.4575C74.358 17.5385 74.466 17.6053 74.593 17.6578C74.726 17.7055 74.907 17.7603 75.137 17.8223C75.426 17.8986 75.662 17.9749 75.843 18.0513C76.024 18.1228 76.179 18.2325 76.306 18.3804C76.438 18.5282 76.507 18.7214 76.512 18.9598C76.512 19.1745 76.451 19.3676 76.328 19.5393C76.206 19.711 76.032 19.847 75.806 19.9471C75.586 20.0425 75.331 20.0902 75.042 20.0902ZM83.809 17.9153C83.809 18.0393 83.802 18.1705 83.787 18.3088H80.568C80.592 18.6951 80.727 18.998 80.972 19.2174C81.222 19.432 81.523 19.5393 81.876 19.5393C82.165 19.5393 82.405 19.4749 82.597 19.3462C82.793 19.2126 82.93 19.0362 83.008 18.8168H83.729C83.621 19.1935 83.405 19.5012 83.082 19.7397C82.758 19.9734 82.356 20.0902 81.876 20.0902C81.494 20.0902 81.151 20.0067 80.847 19.8398C80.548 19.6729 80.313 19.4368 80.141 19.1315C79.97 18.8215 79.884 18.4638 79.884 18.0584C79.884 17.653 79.967 17.2977 80.134 16.9924C80.301 16.6872 80.533 16.4535 80.832 16.2913C81.136 16.1244 81.484 16.0409 81.876 16.0409C82.258 16.0409 82.597 16.122 82.891 16.2842C83.185 16.4463 83.41 16.6705 83.567 16.9567C83.729 17.2381 83.809 17.5576 83.809 17.9153ZM83.118 17.7794C83.118 17.5314 83.062 17.3191 82.949 17.1427C82.837 16.9614 82.682 16.8255 82.486 16.7349C82.295 16.6395 82.082 16.5918 81.847 16.5918C81.509 16.5918 81.219 16.6967 80.979 16.9066C80.744 17.1164 80.609 17.4074 80.575 17.7794H83.118ZM85.861 16.2198C85.646 16.3438 85.479 16.5179 85.361 16.742V16.1053H84.692V20.0258H85.361V17.8939C85.361 17.1021 85.736 16.7063 86.486 16.7063H86.663V16.0338C86.349 16.0338 86.082 16.0958 85.861 16.2198Z" fill="#00561D" fill-opacity="0.7"/>
<path fill-rule="evenodd" clip-rule="evenodd" d="M77.261 16.642C77.251 16.8783 77.245 17.1158 77.245 17.3546C77.245 26.4072 84.786 33.7457 94.089 33.7457C103.391 33.7457 110.932 26.4072 110.932 17.3546C110.932 8.30196 103.391 0.963378 94.089 0.963379C85.218 0.96338 77.949 7.63642 77.293 16.1055H77.603V15.1182H78.272V16.1055H79.324V16.642H78.272V18.9528C78.272 19.1436 78.314 19.2796 78.397 19.3606C78.481 19.437 78.625 19.4751 78.831 19.4751H79.324V20.026H78.721C78.348 20.026 78.069 19.9425 77.883 19.7756C77.696 19.6087 77.603 19.3344 77.603 18.9528V16.642H77.261ZM99.61 16.9997C99.443 17.3002 99.36 17.6508 99.36 18.0514C99.36 18.4473 99.443 18.8002 99.61 19.1102C99.777 19.4203 100.005 19.6611 100.294 19.8328C100.588 20.0045 100.914 20.0904 101.271 20.0904C101.619 20.0904 101.923 20.0164 102.183 19.8686C102.443 19.716 102.639 19.5228 102.771 19.2891V20.026H103.447V14.7318H102.771V16.8066C102.629 16.5776 102.423 16.394 102.153 16.2557C101.884 16.1126 101.592 16.0411 101.279 16.0411C100.916 16.0411 100.588 16.1245 100.294 16.2915C100.005 16.4584 99.777 16.6945 99.61 16.9997ZM102.587 17.2859C102.71 17.5053 102.771 17.7629 102.771 18.0586C102.771 18.3543 102.71 18.6142 102.587 18.8384C102.465 19.0578 102.298 19.2271 102.087 19.3463C101.881 19.4608 101.654 19.518 101.404 19.518C101.154 19.518 100.926 19.4608 100.72 19.3463C100.514 19.2271 100.35 19.0578 100.227 18.8384C100.105 18.6142 100.044 18.3519 100.044 18.0514C100.044 17.7557 100.105 17.4982 100.227 17.2788C100.35 17.0594 100.514 16.8924 100.72 16.778C100.926 16.6635 101.154 16.6063 101.404 16.6063C101.654 16.6063 101.881 16.6659 102.087 16.7851C102.298 16.8996 102.465 17.0665 102.587 17.2859ZM83.81 17.9155C83.81 18.0395 83.802 18.1707 83.788 18.309H80.568C80.592 18.6953 80.727 18.9982 80.972 19.2176C81.222 19.4322 81.523 19.5395 81.876 19.5395C82.165 19.5395 82.406 19.4751 82.597 19.3463C82.793 19.2128 82.93 19.0363 83.008 18.8169H83.729C83.621 19.1937 83.405 19.5013 83.082 19.7398C82.758 19.9735 82.356 20.0904 81.876 20.0904C81.494 20.0904 81.151 20.0069 80.847 19.84C80.548 19.673 80.313 19.437 80.141 19.1317C79.97 18.8217 79.884 18.464 79.884 18.0586C79.884 17.6532 79.967 17.2978 80.134 16.9926C80.301 16.6873 80.533 16.4536 80.832 16.2915C81.136 16.1245 81.484 16.0411 81.876 16.0411C82.258 16.0411 82.597 16.1222 82.891 16.2843C83.185 16.4465 83.41 16.6706 83.567 16.9568C83.729 17.2382 83.81 17.5578 83.81 17.9155ZM83.119 17.7796C83.119 17.5315 83.062 17.3193 82.949 17.1428C82.837 16.9616 82.682 16.8257 82.486 16.735C82.295 16.6396 82.082 16.592 81.847 16.592C81.509 16.592 81.22 16.6969 80.979 16.9067C80.744 17.1166 80.609 17.4075 80.575 17.7796H83.119ZM85.861 16.2199C85.646 16.3439 85.479 16.518 85.361 16.7422V16.1055H84.693V20.026H85.361V17.894C85.361 17.1023 85.736 16.7064 86.486 16.7064H86.663V16.0339C86.349 16.0339 86.082 16.0959 85.861 16.2199ZM87.185 18.0586C87.185 17.6532 87.268 17.3002 87.435 16.9997C87.601 16.6945 87.832 16.4584 88.126 16.2915C88.425 16.1245 88.765 16.0411 89.148 16.0411C89.643 16.0411 90.049 16.1579 90.368 16.3916C90.691 16.6253 90.905 16.9497 91.007 17.3646H90.287C90.218 17.1261 90.084 16.9377 89.883 16.7994C89.687 16.6611 89.442 16.592 89.148 16.592C88.765 16.592 88.457 16.7207 88.221 16.9783C87.986 17.2311 87.869 17.5912 87.869 18.0586C87.869 18.5307 87.986 18.8956 88.221 19.1532C88.457 19.4107 88.765 19.5395 89.148 19.5395C89.442 19.5395 89.687 19.4727 89.883 19.3392C90.079 19.2056 90.214 19.0149 90.287 18.7668H91.007C90.9 19.1675 90.684 19.4894 90.361 19.7327C90.037 19.9711 89.633 20.0904 89.148 20.0904C88.765 20.0904 88.425 20.0069 88.126 19.84C87.832 19.673 87.601 19.437 87.435 19.1317C87.268 18.8265 87.185 18.4687 87.185 18.0586ZM91.9 16.9997C91.733 17.3002 91.65 17.6508 91.65 18.0514C91.65 18.4473 91.733 18.8002 91.9 19.1102C92.067 19.4203 92.295 19.6611 92.584 19.8328C92.873 20.0045 93.196 20.0904 93.554 20.0904C93.902 20.0904 94.206 20.0164 94.466 19.8686C94.73 19.716 94.929 19.5252 95.061 19.2963V20.026H95.737V16.1055H95.061V16.8209C94.934 16.5967 94.74 16.4107 94.48 16.2629C94.221 16.115 93.914 16.0411 93.561 16.0411C93.204 16.0411 92.878 16.1245 92.584 16.2915C92.295 16.4584 92.067 16.6945 91.9 16.9997ZM94.877 17.2859C95 17.5053 95.061 17.7629 95.061 18.0586C95.061 18.3543 95 18.6142 94.877 18.8384C94.755 19.0578 94.588 19.2271 94.377 19.3463C94.171 19.4608 93.944 19.518 93.694 19.518C93.444 19.518 93.216 19.4608 93.01 19.3463C92.804 19.2271 92.64 19.0578 92.518 18.8384C92.395 18.6142 92.334 18.3519 92.334 18.0514C92.334 17.7557 92.395 17.4982 92.518 17.2788C92.64 17.0594 92.804 16.8924 93.01 16.778C93.216 16.6635 93.444 16.6063 93.694 16.6063C93.944 16.6063 94.171 16.6659 94.377 16.7851C94.588 16.8996 94.755 17.0665 94.877 17.2859ZM97.537 16.7422C97.654 16.518 97.821 16.3439 98.037 16.2199C98.257 16.0959 98.524 16.0339 98.838 16.0339V16.7064H98.661C97.912 16.7064 97.537 17.1023 97.537 17.894V20.026H96.868V16.1055H97.537V16.7422Z" fill="#00561D" fill-opacity="0.5"/>
<path fill-rule="evenodd" clip-rule="evenodd" d="M172.879 7.73847C170.581 7.83103 168.6 8.45995 167.156 9.55583C166.885 9.76119 166.37 10.248 166.171 10.4869C165.484 11.3084 165.09 12.2282 164.946 13.3401C164.917 13.5655 164.917 14.3586 164.947 14.5573C165.144 15.8928 165.895 16.9266 167.369 17.8907C167.86 18.2118 168.248 18.4291 169.362 19.0073C169.778 19.2227 170.218 19.456 170.341 19.5256C171.31 20.0734 171.77 20.5072 171.919 21.0145C171.97 21.1858 171.97 21.449 171.919 21.631C171.758 22.2062 171.201 22.6846 170.383 22.949C169.936 23.0934 169.46 23.1652 168.865 23.178C167.433 23.2087 165.765 22.8635 164.339 22.241C164.128 22.1487 163.818 21.9979 163.775 21.9662C163.764 21.9576 163.75 21.9545 163.745 21.9594C163.726 21.9776 162.825 26.0386 162.838 26.0497C162.862 26.0712 163.239 26.2064 163.56 26.309C164.631 26.6511 165.864 26.9014 167.023 27.012C168.022 27.1072 169.07 27.1101 169.993 27.02C172.833 26.7429 175.101 25.6129 176.289 23.8835C176.964 22.9012 177.286 21.7783 177.254 20.5245C177.241 20.0234 177.18 19.656 177.042 19.2423C176.644 18.0574 175.758 17.1032 174.207 16.1898C173.853 15.9814 173.432 15.7562 172.705 15.3868C171.884 14.9691 171.575 14.8008 171.254 14.5969C170.94 14.3976 170.77 14.2687 170.605 14.1036C170.316 13.8152 170.191 13.5555 170.191 13.2453C170.192 12.5581 170.898 11.9696 172 11.738C172.6 11.612 173.415 11.5942 174.24 11.6891C175.185 11.7979 176.272 12.08 177.094 12.4303C177.207 12.4782 177.301 12.5155 177.303 12.5132C177.305 12.5109 177.506 11.6344 177.748 10.5654C177.991 9.49632 178.193 8.60917 178.198 8.5939C178.209 8.56031 178.16 8.53864 177.815 8.42511C176.817 8.09664 175.583 7.85783 174.464 7.77656C174.336 7.7673 174.187 7.7562 174.132 7.75192C174.006 7.74209 173.046 7.73176 172.879 7.73847ZM132.641 8.04865C132.63 8.08022 132.534 8.61969 132.538 8.62433C132.541 8.62666 132.654 8.65059 132.791 8.67754C133.854 8.88751 134.951 9.19053 135.915 9.53993C136.762 9.84707 137.068 9.96981 137.361 10.12C137.886 10.39 138.234 10.7093 138.428 11.0993C138.586 11.4189 138.576 11.3855 139.477 14.6995C139.847 16.0601 140.178 17.28 140.214 17.4105C140.278 17.6454 141.736 23.0052 141.888 23.5674C141.932 23.7282 142.146 24.516 142.364 25.318L142.761 26.7761L145.432 26.7762H148.103L152.209 17.4164C154.467 12.2685 156.317 8.05039 156.32 8.04275C156.323 8.03484 155.183 8.02889 153.663 8.02889H151.001L150.973 8.09607C150.957 8.13301 149.772 10.9908 148.34 14.4466C146.907 17.9025 145.729 20.7406 145.721 20.7537C145.711 20.7704 145.706 20.7713 145.706 20.757C145.705 20.7164 143.548 9.91361 143.507 9.74598C143.354 9.11153 142.942 8.59806 142.353 8.30645C142.062 8.16248 141.763 8.07968 141.411 8.04554C141.142 8.0195 132.65 8.02252 132.641 8.04865ZM158.458 8.07236C158.453 8.09626 157.518 12.2913 156.381 17.3947C155.243 22.498 154.309 26.6966 154.304 26.7248L154.294 26.7762H156.832H159.369L161.441 17.446C162.58 12.3144 163.516 8.09626 163.52 8.07236L163.527 8.02889H160.997H158.467L158.458 8.07236ZM186.467 8.04704C185.628 8.13001 185.012 8.59488 184.574 9.47525C184.52 9.58369 177.144 26.4476 177.015 26.7565C177.008 26.7722 177.546 26.7762 179.669 26.7762H182.331L182.534 26.219C182.645 25.9126 182.875 25.276 183.046 24.8045L183.356 23.9472L186.603 23.947C188.389 23.9468 189.851 23.9485 189.851 23.9507C189.852 23.9529 189.992 24.5877 190.163 25.3615L190.473 26.7683L192.826 26.7723C195.062 26.7761 195.178 26.775 195.17 26.7486C195.16 26.7187 191.079 8.04985 191.079 8.03678C191.079 8.02271 186.612 8.03265 186.467 8.04704ZM188.275 16.6028C188.704 18.5147 189.055 20.092 189.055 20.1081C189.055 20.1362 188.984 20.1372 186.946 20.1372C185.266 20.1372 184.839 20.1332 184.844 20.1174C184.945 19.8325 187.487 13.1039 187.49 13.1132C187.493 13.1206 187.846 14.691 188.275 16.6028Z" fill="#002E10"/>
<path d="M216.048 3.86621H218.875V20.1231H216.048V3.86621Z" fill="#002E10"/>
<path d="M220.674 3.86621H221.959V20.1231H220.674V3.86621Z" fill="#002E10"/>
<path d="M224.272 3.86621H226.585V20.1231H224.272V3.86621Z" fill="#002E10"/>
<path d="M228.641 3.86621H230.183V20.1231H228.641V3.86621Z" fill="#002E10"/>
<path d="M232.239 3.86621H235.837V20.1231H232.239V3.86621Z" fill="#002E10"/>
<path d="M252.286 3.86621H255.37V20.1231H252.286V3.86621Z" fill="#002E10"/>
<path d="M238.407 3.86621H240.72V20.1231H238.407V3.86621Z" fill="#002E10"/>
<path d="M257.426 3.86621H259.482V20.1231H257.426V3.86621Z" fill="#002E10"/>
<path d="M243.033 3.86621H244.832V20.1231H243.033V3.86621Z" fill="#002E10"/>
<path d="M261.538 3.86621H263.08V20.1231H261.538V3.86621Z" fill="#002E10"/>
<path d="M247.66 3.86621H249.459V20.1231H247.66V3.86621Z" fill="#002E10"/>
<path d="M265.393 3.86621H268.22V20.1231H265.393V3.86621Z" fill="#002E10"/>
<path d="M221.592 26.6009C222.025 26.7373 222.368 26.9671 222.621 27.2901C222.874 27.606 223.001 28.0009 223.001 28.4748C223.001 29.1281 222.74 29.6343 222.219 29.9932C221.697 30.345 220.937 30.5209 219.938 30.5209H216.048V22.9824H219.714C220.639 22.9824 221.35 23.1583 221.85 23.5101C222.349 23.8547 222.599 24.3322 222.599 24.9424C222.599 25.3158 222.509 25.646 222.33 25.9332C222.151 26.2204 221.906 26.443 221.592 26.6009ZM217.501 24.0809V26.1594H219.558C220.065 26.1594 220.452 26.0732 220.721 25.9009C220.996 25.7214 221.134 25.4629 221.134 25.1255C221.134 24.7809 220.996 24.5224 220.721 24.3501C220.452 24.1706 220.065 24.0809 219.558 24.0809H217.501ZM219.849 29.4225C220.974 29.4225 221.537 29.0599 221.537 28.3348C221.537 27.6096 220.974 27.2471 219.849 27.2471H217.501V29.4225H219.849Z" fill="#002E10"/>
<path d="M229.326 30.6284C228.528 30.6284 227.809 30.4633 227.168 30.133C226.527 29.7956 226.024 29.3325 225.659 28.7438C225.294 28.1479 225.111 27.4838 225.111 26.7515C225.111 26.0192 225.294 25.3586 225.659 24.7699C226.024 24.174 226.527 23.7109 227.168 23.3807C227.809 23.0432 228.528 22.8745 229.326 22.8745C230.123 22.8745 230.842 23.0432 231.483 23.3807C232.124 23.7109 232.627 24.1704 232.992 24.7591C233.358 25.3479 233.54 26.012 233.54 26.7515C233.54 27.491 233.358 28.1551 232.992 28.7438C232.627 29.3325 232.124 29.7956 231.483 30.133C230.842 30.4633 230.123 30.6284 229.326 30.6284ZM229.326 29.4007C229.847 29.4007 230.317 29.2894 230.734 29.0669C231.152 28.8371 231.48 28.5212 231.718 28.1192C231.957 27.7099 232.076 27.254 232.076 26.7515C232.076 26.2489 231.957 25.7966 231.718 25.3945C231.48 24.9853 231.152 24.6694 230.734 24.4468C230.317 24.2171 229.847 24.1022 229.326 24.1022C228.804 24.1022 228.334 24.2171 227.917 24.4468C227.5 24.6694 227.172 24.9853 226.933 25.3945C226.695 25.7966 226.576 26.2489 226.576 26.7515C226.576 27.254 226.695 27.7099 226.933 28.1192C227.172 28.5212 227.5 28.8371 227.917 29.0669C228.334 29.2894 228.804 29.4007 229.326 29.4007Z" fill="#002E10"/>
<path d="M236.199 22.9824H237.652V29.3363H241.744V30.5209H236.199V22.9824Z" fill="#002E10"/>
<path d="M249.878 29.3471V30.5209H244.009V22.9824H249.722V24.1563H245.462V26.1163H249.241V27.2686H245.462V29.3471H249.878Z" fill="#002E10"/>
<path d="M254.204 24.167H251.61V22.9824H258.25V24.167H255.657V30.5209H254.204V24.167Z" fill="#002E10"/>
<path d="M264.006 30.6284C263.208 30.6284 262.489 30.4633 261.848 30.133C261.207 29.7956 260.704 29.3325 260.339 28.7438C259.974 28.1479 259.791 27.4838 259.791 26.7515C259.791 26.0192 259.974 25.3586 260.339 24.7699C260.704 24.174 261.207 23.7109 261.848 23.3807C262.489 23.0432 263.208 22.8745 264.006 22.8745C264.803 22.8745 265.522 23.0432 266.163 23.3807C266.804 23.7109 267.307 24.1704 267.672 24.7591C268.038 25.3479 268.22 26.012 268.22 26.7515C268.22 27.491 268.038 28.1551 267.672 28.7438C267.307 29.3325 266.804 29.7956 266.163 30.133C265.522 30.4633 264.803 30.6284 264.006 30.6284ZM264.006 29.4007C264.527 29.4007 264.997 29.2894 265.414 29.0669C265.831 28.8371 266.159 28.5212 266.398 28.1192C266.636 27.7099 266.756 27.254 266.756 26.7515C266.756 26.2489 266.636 25.7966 266.398 25.3945C266.159 24.9853 265.831 24.6694 265.414 24.4468C264.997 24.2171 264.527 24.1022 264.006 24.1022C263.484 24.1022 263.014 24.2171 262.597 24.4468C262.18 24.6694 261.852 24.9853 261.613 25.3945C261.375 25.7966 261.255 26.2489 261.255 26.7515C261.255 27.254 261.375 27.7099 261.613 28.1192C261.852 28.5212 262.18 28.8371 262.597 29.0669C263.014 29.2894 263.484 29.4007 264.006 29.4007Z" fill="#002E10"/>
<path fill-rule="evenodd" clip-rule="evenodd" d="M292.088 7.2755C292.164 7.09596 292.322 6.92763 292.497 6.84062L292.639 6.77002L296.241 6.78026C299.428 6.78935 299.873 6.79614 300.112 6.83918C300.882 6.97825 301.384 7.12807 301.862 7.3618C302.987 7.91191 303.651 8.78648 303.912 10.0617C303.99 10.4416 304.02 11.3354 303.971 11.8202C303.836 13.1622 303.459 14.4391 302.925 15.3594C302.046 16.8754 300.686 17.7915 298.807 18.1323C298.213 18.24 297.898 18.2594 296.439 18.278L294.993 18.2964L294.842 18.3835C294.68 18.4765 294.55 18.6254 294.482 18.7931C294.46 18.8499 294.287 19.9102 294.1 21.1493L294.099 21.156C293.775 23.2934 293.734 23.5653 293.585 23.7314C293.563 23.7556 293.539 23.7775 293.512 23.8027L293.511 23.8033C293.454 23.8554 293.349 23.9261 293.278 23.9603C293.153 24.0206 293.105 24.0227 291.618 24.0315C290.576 24.0376 290.053 24.0303 289.981 24.0086C289.759 23.941 289.615 23.7451 289.615 23.5114C289.615 23.4354 290.158 19.7817 290.822 15.3922C291.704 9.56515 292.045 7.3747 292.088 7.2755ZM299.474 11.4707C299.324 10.8104 298.886 10.4444 298.069 10.2954C297.872 10.2596 297.566 10.2432 296.921 10.2339C296.043 10.2213 296.042 10.2214 295.929 10.2895L295.927 10.2903C295.9 10.3068 295.876 10.3212 295.854 10.3387C295.711 10.4555 295.672 10.7126 295.377 12.6813L295.375 12.6947C295.204 13.8345 295.064 14.7757 295.064 14.7863C295.064 14.8255 297.224 14.7755 297.46 14.7308C298.106 14.6088 298.489 14.425 298.822 14.0771C299.068 13.8205 299.21 13.5769 299.335 13.1969C299.499 12.6992 299.565 11.8746 299.474 11.4707ZM306.276 13.2148C307.03 12.7286 307.904 12.3987 308.749 12.2807C309.12 12.2288 309.917 12.2191 310.326 12.2614C311.642 12.3977 312.469 12.7898 312.952 13.5074C313.038 13.6349 313.113 13.7344 313.118 13.7285C313.124 13.7226 313.156 13.5393 313.189 13.3212C313.263 12.832 313.313 12.7047 313.472 12.5948L313.593 12.5114L315.106 12.5031C316.12 12.4975 316.656 12.5052 316.732 12.5264C316.794 12.5438 316.889 12.6039 316.943 12.6599C316.957 12.6748 316.971 12.6864 316.984 12.6972C316.995 12.7068 317.005 12.7157 317.015 12.7257C317.132 12.8505 317.088 13.1414 316.494 17.0642C316.441 17.4129 316.384 17.7904 316.322 18.199C315.719 22.1858 315.521 23.4313 315.475 23.533C315.397 23.7047 315.229 23.879 315.062 23.959C314.934 24.0208 314.894 24.0226 313.534 24.0311C312.605 24.0369 312.1 24.0292 312.025 24.0082C311.874 23.9658 311.726 23.8153 311.681 23.6574C311.649 23.5457 311.652 23.4778 311.707 23.1265C311.741 22.905 311.769 22.7043 311.769 22.6805C311.768 22.6556 311.705 22.7006 311.619 22.7859C311.003 23.4012 310.133 23.8883 309.22 24.1293C308.204 24.3973 306.982 24.3559 306.015 24.0207C304.659 23.5502 303.664 22.3704 303.278 20.7757C302.883 19.14 303.2 17.1203 304.098 15.5591C304.646 14.6046 305.433 13.7585 306.276 13.2148ZM318.49 13.0217C318.49 12.8167 318.657 12.5882 318.853 12.5253C318.895 12.5117 319.625 12.503 320.475 12.506L322.021 12.5114L322.148 12.581C322.308 12.6682 322.478 12.8341 322.545 12.9693C322.573 13.0264 322.97 14.3745 323.426 15.9651C323.881 17.5558 324.263 18.8741 324.274 18.8948C324.285 18.9177 325.064 17.7454 326.262 15.9013C327.346 14.2342 328.281 12.818 328.341 12.7542C328.401 12.6905 328.51 12.6098 328.582 12.5749C328.711 12.5128 328.748 12.5112 330.26 12.5023C331.315 12.496 331.839 12.5032 331.911 12.5252C332.037 12.5637 332.175 12.6794 332.232 12.7939C332.281 12.8937 332.287 13.1536 332.241 13.2439C332.179 13.3643 322.651 27.7113 322.577 27.7946C322.537 27.8402 322.427 27.9169 322.332 27.9651L322.161 28.0527L320.543 28.0446L318.925 28.0365L318.821 27.9538C318.642 27.8116 318.57 27.5892 318.639 27.3862C318.661 27.3218 319.342 26.2917 320.154 25.0971C320.965 23.9025 321.638 22.9095 321.65 22.8905C321.661 22.8715 320.954 20.6642 320.08 17.9854C319.205 15.3067 318.49 13.073 318.49 13.0217ZM312.507 16.9015C312.261 16.1524 311.672 15.6337 310.877 15.464C310.649 15.4153 310.118 15.3844 309.911 15.4078C309.146 15.4938 308.386 15.8771 307.902 16.4219C307.298 17.1002 306.957 18.0841 307.013 18.987C307.05 19.5863 307.242 20.0658 307.594 20.4348C307.917 20.7732 308.272 20.9671 308.762 21.0732C309.109 21.1483 309.738 21.1438 310.095 21.0636C311.273 20.7993 312.119 20.0084 312.486 18.8277C312.696 18.1551 312.703 17.4944 312.507 16.9015Z" fill="#002E10"/>
<path d="M362.658 6.84512C362.58 6.89341 362.52 6.96197 362.483 7.04408C362.441 7.13729 362.113 9.25174 361.204 15.3008C360.531 19.7731 359.981 23.4759 359.982 23.5292C359.983 23.7494 360.137 23.9479 360.353 24.0084C360.428 24.0295 360.911 24.0372 361.791 24.0313L363.116 24.0226L363.266 23.9522C363.462 23.8602 363.653 23.6391 363.712 23.4374C363.761 23.2716 366.165 7.41317 366.165 7.25828C366.165 7.11312 366.05 6.91345 365.922 6.8378L365.81 6.77189L364.293 6.77169L362.776 6.77148L362.658 6.84512Z" fill="#00561D" fill-opacity="0.7"/>
<path fill-rule="evenodd" clip-rule="evenodd" d="M351.502 12.2498C351.463 12.2557 351.316 12.2754 351.176 12.2936C351.036 12.3118 350.774 12.3641 350.595 12.4098C348.097 13.0464 346.197 15.2178 345.703 18.0011C345.449 19.4349 345.598 20.725 346.15 21.8694C346.951 23.53 348.456 24.367 350.51 24.2942C351.005 24.2766 351.31 24.2311 351.772 24.1058C352.564 23.8906 353.385 23.4374 353.998 22.8763C354.131 22.755 354.243 22.6592 354.247 22.6634C354.251 22.6676 354.229 22.8357 354.197 23.0369C354.166 23.2381 354.14 23.4529 354.14 23.5143C354.14 23.7482 354.288 23.946 354.51 24.0083C354.585 24.0293 355.086 24.037 356.005 24.0312L357.387 24.0225L357.549 23.9397C357.753 23.8353 357.926 23.6354 357.983 23.4358C358.04 23.2376 359.557 13.1965 359.557 13.0161C359.557 12.7832 359.414 12.5912 359.194 12.5276C359.045 12.4844 356.233 12.4863 356.083 12.5297C356.021 12.5476 355.924 12.6107 355.867 12.6699C355.753 12.7889 355.733 12.8597 355.649 13.4371L355.6 13.7724L355.464 13.5648C354.966 12.8059 354.134 12.4014 352.783 12.2615C352.51 12.2333 351.664 12.2256 351.502 12.2498ZM354.947 18.8671C355.465 17.256 354.826 15.8315 353.428 15.4778C353.194 15.4185 352.576 15.3782 352.353 15.4077C350.767 15.6179 349.651 16.825 349.491 18.5034C349.406 19.3831 349.696 20.1842 350.258 20.6274C350.832 21.0802 351.672 21.243 352.544 21.0707C353.681 20.8463 354.575 20.0268 354.947 18.8671Z" fill="#00561D" fill-opacity="0.7"/>
<path fill-rule="evenodd" clip-rule="evenodd" d="M334.947 6.8599C334.761 6.95651 334.66 7.05972 334.568 7.2475C334.526 7.33472 334.219 9.30061 333.29 15.4509C332.188 22.7376 332.07 23.5511 332.101 23.6559C332.143 23.8042 332.299 23.9662 332.436 24.0059C332.591 24.0508 335.609 24.0482 335.782 24.0031C335.949 23.9591 336.141 23.7719 336.185 23.6092C336.202 23.5443 336.37 22.4684 336.557 21.2185C336.744 19.9685 336.918 18.8873 336.944 18.8158C337 18.6545 337.149 18.48 337.317 18.3774C337.469 18.2846 337.417 18.2877 339.151 18.2699C340.455 18.2566 340.809 18.2288 341.491 18.0869C342.292 17.9201 342.962 17.6601 343.561 17.2837C345.054 16.3454 345.992 14.7267 346.352 12.4672C346.662 10.5223 346.359 9.11713 345.42 8.14318C344.774 7.47386 343.895 7.06902 342.615 6.85129C342.25 6.78916 342.168 6.78762 338.683 6.77821L335.123 6.76855L334.947 6.8599ZM341.382 10.6013C341.225 10.4885 340.871 10.3545 340.575 10.2953C340.285 10.2375 338.57 10.2052 338.456 10.2553C338.362 10.2968 338.262 10.3964 338.21 10.5003C338.187 10.5468 338.024 11.5297 337.849 12.6845L337.531 14.7841L338.398 14.7929C339.276 14.8018 339.743 14.7745 340.126 14.6923C341.21 14.4594 341.776 13.7866 341.957 12.5168C342.089 11.593 341.904 10.9745 341.382 10.6013Z" fill="#00561D" fill-opacity="0.7"/>
</g>
</svg>
