<svg width="313" height="33" viewBox="0 0 313 33" fill="none" xmlns="http://www.w3.org/2000/svg">
<g opacity="0.4">
<path fill-rule="evenodd" clip-rule="evenodd" d="M33.672 15.6954C33.582 15.7974 33.503 15.9109 33.435 16.0362C33.268 16.3367 33.185 16.6896 33.185 17.095C33.185 17.5052 33.268 17.8629 33.435 18.1681C33.474 18.2409 33.518 18.3098 33.565 18.3747C32.559 26.4919 25.456 32.7823 16.843 32.7823C7.541 32.7823 0 25.4438 0 16.3912C0 7.33858 7.541 0 16.843 0C25.906 0 33.297 6.96554 33.672 15.6954ZM24.272 17.9893V15.6785H25.323V15.1419H24.272V14.1546H23.603V15.1419H23.081V15.6785H23.603V17.9893C23.603 18.3708 23.696 18.6451 23.883 18.812C24.069 18.979 24.348 19.0624 24.721 19.0624H25.323V18.5115H24.831C24.625 18.5115 24.481 18.4734 24.397 18.3971C24.314 18.316 24.272 18.1801 24.272 17.9893ZM12.757 15.2635C12.512 15.1347 12.232 15.0704 11.919 15.0704C11.6 15.0704 11.311 15.1467 11.051 15.2993C10.792 15.4519 10.605 15.6665 10.493 15.9432C10.365 15.657 10.172 15.44 9.912 15.2921C9.652 15.1443 9.353 15.0704 9.015 15.0704C8.745 15.0704 8.498 15.1252 8.273 15.2349C8.052 15.3446 7.876 15.502 7.743 15.7071V15.1419H7.07401V19.0624H7.743V16.9018C7.743 16.4917 7.846 16.1793 8.052 15.9646C8.258 15.7452 8.535 15.6355 8.883 15.6355C9.221 15.6355 9.48801 15.7405 9.68401 15.9503C9.88501 16.1554 9.985 16.4535 9.985 16.8446V19.0624H10.647V16.9018C10.647 16.4917 10.75 16.1793 10.956 15.9646C11.162 15.7452 11.438 15.6355 11.786 15.6355C12.125 15.6355 12.392 15.7405 12.588 15.9503C12.789 16.1554 12.889 16.4535 12.889 16.8446V19.0624H13.551V16.7516C13.551 16.3891 13.48 16.0815 13.337 15.8287C13.195 15.5759 13.002 15.3875 12.757 15.2635ZM14.648 16.0362C14.481 16.3367 14.398 16.6872 14.398 17.0879C14.398 17.4837 14.481 17.8367 14.648 18.1467C14.815 18.4567 15.042 18.6976 15.332 18.8693C15.621 19.041 15.944 19.1268 16.302 19.1268C16.65 19.1268 16.954 19.0529 17.213 18.905C17.478 18.7524 17.677 18.5616 17.809 18.3327V19.0624H18.485V15.1419H17.809V15.8573C17.681 15.6332 17.488 15.4472 17.228 15.2993C16.968 15.1514 16.662 15.0775 16.309 15.0775C15.952 15.0775 15.626 15.161 15.332 15.3279C15.042 15.4948 14.815 15.7309 14.648 16.0362ZM17.625 16.3224C17.748 16.5417 17.809 16.7993 17.809 17.095C17.809 17.3907 17.748 17.6507 17.625 17.8748C17.503 18.0942 17.336 18.2635 17.125 18.3828C16.919 18.4972 16.692 18.5545 16.442 18.5545C16.192 18.5545 15.964 18.4972 15.758 18.3828C15.552 18.2635 15.388 18.0942 15.265 17.8748C15.143 17.6507 15.082 17.3883 15.082 17.0879C15.082 16.7921 15.143 16.5346 15.265 16.3152C15.388 16.0958 15.552 15.9289 15.758 15.8144C15.964 15.6999 16.192 15.6427 16.442 15.6427C16.692 15.6427 16.919 15.7023 17.125 15.8216C17.336 15.936 17.503 16.103 17.625 16.3224ZM21.042 19.1268C20.733 19.1268 20.456 19.0767 20.211 18.9766C19.966 18.8716 19.772 18.7286 19.63 18.5473C19.488 18.3613 19.41 18.1491 19.395 17.9106H20.086C20.106 18.1061 20.199 18.2659 20.365 18.3899C20.537 18.5139 20.76 18.5759 21.034 18.5759C21.289 18.5759 21.49 18.5211 21.637 18.4114C21.784 18.3017 21.858 18.1634 21.858 17.9964C21.858 17.8247 21.779 17.6983 21.622 17.6173C21.466 17.5314 21.223 17.448 20.895 17.3669C20.596 17.2906 20.351 17.2142 20.16 17.1379C19.973 17.0569 19.812 16.94 19.674 16.7874C19.542 16.63 19.476 16.4249 19.476 16.1721C19.476 15.9718 19.537 15.7882 19.66 15.6212C19.782 15.4543 19.956 15.3231 20.182 15.2278C20.407 15.1276 20.664 15.0775 20.954 15.0775C21.399 15.0775 21.76 15.1872 22.034 15.4066C22.309 15.626 22.456 15.9265 22.475 16.308H21.806C21.792 16.103 21.706 15.9384 21.549 15.8144C21.397 15.6904 21.191 15.6284 20.931 15.6284C20.691 15.6284 20.5 15.6785 20.358 15.7786C20.216 15.8788 20.145 16.01 20.145 16.1721C20.145 16.3009 20.187 16.4082 20.27 16.4941C20.358 16.5751 20.466 16.6419 20.593 16.6944C20.726 16.7421 20.907 16.7969 21.137 16.8589C21.426 16.9352 21.662 17.0115 21.843 17.0879C22.024 17.1594 22.179 17.2691 22.306 17.417C22.438 17.5648 22.507 17.758 22.512 17.9964C22.512 18.2111 22.451 18.4042 22.328 18.5759C22.206 18.7476 22.032 18.8836 21.806 18.9837C21.586 19.0791 21.331 19.1268 21.042 19.1268ZM29.809 16.9519C29.809 17.0759 29.802 17.2071 29.787 17.3454H26.568C26.592 17.7317 26.727 18.0346 26.972 18.254C27.222 18.4686 27.523 18.5759 27.876 18.5759C28.165 18.5759 28.405 18.5115 28.597 18.3828C28.793 18.2492 28.93 18.0728 29.008 17.8534H29.729C29.621 18.2301 29.405 18.5378 29.082 18.7763C28.758 19.01 28.356 19.1268 27.876 19.1268C27.494 19.1268 27.151 19.0433 26.847 18.8764C26.548 18.7095 26.313 18.4734 26.141 18.1681C25.97 17.8581 25.884 17.5004 25.884 17.095C25.884 16.6896 25.967 16.3343 26.134 16.029C26.301 15.7238 26.533 15.4901 26.832 15.3279C27.136 15.161 27.484 15.0775 27.876 15.0775C28.258 15.0775 28.597 15.1586 28.891 15.3208C29.185 15.4829 29.41 15.7071 29.567 15.9933C29.729 16.2747 29.809 16.5942 29.809 16.9519ZM29.118 16.816C29.118 16.568 29.062 16.3557 28.949 16.1793C28.837 15.998 28.682 15.8621 28.486 15.7715C28.295 15.6761 28.082 15.6284 27.847 15.6284C27.509 15.6284 27.219 15.7333 26.979 15.9432C26.744 16.153 26.609 16.444 26.575 16.816H29.118ZM31.861 15.2564C31.646 15.3804 31.479 15.5545 31.361 15.7786V15.1419H30.692V19.0624H31.361V16.9305C31.361 16.1387 31.736 15.7429 32.486 15.7429H32.663V15.0704C32.349 15.0704 32.082 15.1324 31.861 15.2564Z" fill="#00561D" fill-opacity="0.7"/>
<path fill-rule="evenodd" clip-rule="evenodd" d="M23.261 15.6786C23.251 15.9149 23.245 16.1524 23.245 16.3912C23.245 25.4438 30.786 32.7823 40.089 32.7823C49.391 32.7823 56.932 25.4438 56.932 16.3912C56.932 7.33858 49.391 -1e-06 40.089 0C31.218 1e-06 23.949 6.67304 23.293 15.1421H23.603V14.1548H24.272V15.1421H25.324V15.6786H24.272V17.9894C24.272 18.1802 24.314 18.3162 24.397 18.3972C24.481 18.4736 24.625 18.5117 24.831 18.5117H25.324V19.0626H24.721C24.348 19.0626 24.069 18.9791 23.883 18.8122C23.696 18.6453 23.603 18.371 23.603 17.9894V15.6786H23.261ZM45.61 16.0363C45.443 16.3368 45.36 16.6874 45.36 17.088C45.36 17.4839 45.443 17.8368 45.61 18.1468C45.777 18.4569 46.005 18.6977 46.294 18.8694C46.588 19.0411 46.914 19.127 47.271 19.127C47.619 19.127 47.923 19.053 48.183 18.9052C48.443 18.7526 48.639 18.5594 48.771 18.3257V19.0626H49.447V13.7684H48.771V15.8432C48.629 15.6142 48.423 15.4306 48.153 15.2923C47.884 15.1492 47.592 15.0777 47.279 15.0777C46.916 15.0777 46.588 15.1611 46.294 15.3281C46.005 15.495 45.777 15.7311 45.61 16.0363ZM48.587 16.3225C48.71 16.5419 48.771 16.7995 48.771 17.0952C48.771 17.3909 48.71 17.6508 48.587 17.875C48.465 18.0944 48.298 18.2637 48.087 18.3829C47.881 18.4974 47.654 18.5546 47.404 18.5546C47.154 18.5546 46.926 18.4974 46.72 18.3829C46.514 18.2637 46.35 18.0944 46.227 17.875C46.105 17.6508 46.044 17.3885 46.044 17.088C46.044 16.7923 46.105 16.5348 46.227 16.3154C46.35 16.096 46.514 15.929 46.72 15.8146C46.926 15.7001 47.154 15.6429 47.404 15.6429C47.654 15.6429 47.881 15.7025 48.087 15.8217C48.298 15.9362 48.465 16.1031 48.587 16.3225ZM29.81 16.9521C29.81 17.0761 29.802 17.2073 29.788 17.3456H26.568C26.592 17.7319 26.727 18.0348 26.972 18.2542C27.222 18.4688 27.523 18.5761 27.876 18.5761C28.165 18.5761 28.406 18.5117 28.597 18.3829C28.793 18.2494 28.93 18.0729 29.008 17.8535H29.729C29.621 18.2303 29.405 18.5379 29.082 18.7764C28.758 19.0101 28.356 19.127 27.876 19.127C27.494 19.127 27.151 19.0435 26.847 18.8766C26.548 18.7096 26.313 18.4736 26.141 18.1683C25.97 17.8583 25.884 17.5006 25.884 17.0952C25.884 16.6898 25.967 16.3344 26.134 16.0292C26.301 15.7239 26.533 15.4902 26.832 15.3281C27.136 15.1611 27.484 15.0777 27.876 15.0777C28.258 15.0777 28.597 15.1588 28.891 15.3209C29.185 15.4831 29.41 15.7072 29.567 15.9934C29.729 16.2748 29.81 16.5944 29.81 16.9521ZM29.119 16.8162C29.119 16.5681 29.062 16.3559 28.949 16.1794C28.837 15.9982 28.682 15.8623 28.486 15.7716C28.295 15.6762 28.082 15.6286 27.847 15.6286C27.509 15.6286 27.22 15.7335 26.979 15.9433C26.744 16.1532 26.609 16.4441 26.575 16.8162H29.119ZM31.861 15.2565C31.646 15.3805 31.479 15.5546 31.361 15.7788V15.1421H30.693V19.0626H31.361V16.9306C31.361 16.1389 31.736 15.743 32.486 15.743H32.663V15.0705C32.349 15.0705 32.082 15.1325 31.861 15.2565ZM33.185 17.0952C33.185 16.6898 33.268 16.3368 33.435 16.0363C33.601 15.7311 33.832 15.495 34.126 15.3281C34.425 15.1611 34.765 15.0777 35.148 15.0777C35.643 15.0777 36.049 15.1945 36.368 15.4282C36.691 15.6619 36.905 15.9863 37.007 16.4012H36.287C36.218 16.1627 36.084 15.9743 35.883 15.836C35.687 15.6977 35.442 15.6286 35.148 15.6286C34.765 15.6286 34.457 15.7573 34.221 16.0149C33.986 16.2677 33.869 16.6278 33.869 17.0952C33.869 17.5673 33.986 17.9322 34.221 18.1898C34.457 18.4473 34.765 18.5761 35.148 18.5761C35.442 18.5761 35.687 18.5093 35.883 18.3758C36.079 18.2422 36.214 18.0515 36.287 17.8034H37.007C36.9 18.2041 36.684 18.526 36.361 18.7693C36.037 19.0077 35.633 19.127 35.148 19.127C34.765 19.127 34.425 19.0435 34.126 18.8766C33.832 18.7096 33.601 18.4736 33.435 18.1683C33.268 17.8631 33.185 17.5053 33.185 17.0952ZM37.9 16.0363C37.733 16.3368 37.65 16.6874 37.65 17.088C37.65 17.4839 37.733 17.8368 37.9 18.1468C38.067 18.4569 38.295 18.6977 38.584 18.8694C38.873 19.0411 39.196 19.127 39.554 19.127C39.902 19.127 40.206 19.053 40.466 18.9052C40.73 18.7526 40.929 18.5618 41.061 18.3329V19.0626H41.737V15.1421H41.061V15.8575C40.934 15.6333 40.74 15.4473 40.48 15.2995C40.221 15.1516 39.914 15.0777 39.561 15.0777C39.204 15.0777 38.878 15.1611 38.584 15.3281C38.295 15.495 38.067 15.7311 37.9 16.0363ZM40.877 16.3225C41 16.5419 41.061 16.7995 41.061 17.0952C41.061 17.3909 41 17.6508 40.877 17.875C40.755 18.0944 40.588 18.2637 40.377 18.3829C40.171 18.4974 39.944 18.5546 39.694 18.5546C39.444 18.5546 39.216 18.4974 39.01 18.3829C38.804 18.2637 38.64 18.0944 38.518 17.875C38.395 17.6508 38.334 17.3885 38.334 17.088C38.334 16.7923 38.395 16.5348 38.518 16.3154C38.64 16.096 38.804 15.929 39.01 15.8146C39.216 15.7001 39.444 15.6429 39.694 15.6429C39.944 15.6429 40.171 15.7025 40.377 15.8217C40.588 15.9362 40.755 16.1031 40.877 16.3225ZM43.537 15.7788C43.654 15.5546 43.821 15.3805 44.037 15.2565C44.257 15.1325 44.524 15.0705 44.838 15.0705V15.743H44.661C43.912 15.743 43.537 16.1389 43.537 16.9306V19.0626H42.868V15.1421H43.537V15.7788Z" fill="#00561D" fill-opacity="0.5"/>
<path fill-rule="evenodd" clip-rule="evenodd" d="M118.879 6.77509C116.581 6.86765 114.6 7.49657 113.156 8.59245C112.885 8.79781 112.37 9.28462 112.171 9.52352C111.484 10.345 111.09 11.2648 110.946 12.3767C110.917 12.6021 110.917 13.3952 110.947 13.5939C111.144 14.9294 111.895 15.9632 113.369 16.9273C113.86 17.2484 114.248 17.4657 115.362 18.0439C115.778 18.2593 116.218 18.4926 116.341 18.5622C117.31 19.11 117.77 19.5438 117.919 20.0511C117.97 20.2224 117.97 20.4856 117.919 20.6676C117.758 21.2428 117.201 21.7212 116.383 21.9856C115.936 22.13 115.46 22.2018 114.865 22.2146C113.433 22.2453 111.765 21.9001 110.339 21.2776C110.128 21.1853 109.818 21.0345 109.775 21.0028C109.764 20.9942 109.75 20.9911 109.745 20.996C109.726 21.0142 108.825 25.0752 108.838 25.0863C108.862 25.1078 109.239 25.243 109.56 25.3456C110.631 25.6877 111.864 25.938 113.023 26.0486C114.022 26.1438 115.07 26.1467 115.993 26.0566C118.833 25.7795 121.101 24.6495 122.289 22.9201C122.964 21.9378 123.286 20.8149 123.254 19.5611C123.241 19.06 123.18 18.6926 123.042 18.2789C122.644 17.094 121.758 16.1398 120.207 15.2264C119.853 15.018 119.432 14.7928 118.705 14.4234C117.884 14.0057 117.575 13.8374 117.254 13.6335C116.94 13.4342 116.77 13.3053 116.605 13.1402C116.316 12.8518 116.191 12.5921 116.191 12.2819C116.192 11.5947 116.898 11.0062 118 10.7746C118.6 10.6486 119.415 10.6308 120.24 10.7257C121.185 10.8345 122.272 11.1166 123.094 11.4669C123.207 11.5148 123.301 11.5521 123.303 11.5498C123.305 11.5475 123.506 10.671 123.748 9.60202C123.991 8.53294 124.193 7.64579 124.198 7.63052C124.209 7.59693 124.16 7.57526 123.815 7.46173C122.817 7.13326 121.583 6.89445 120.464 6.81318C120.336 6.80392 120.187 6.79282 120.132 6.78854C120.006 6.77871 119.046 6.76838 118.879 6.77509ZM78.641 7.08527C78.63 7.11684 78.534 7.65631 78.538 7.66095C78.541 7.66328 78.654 7.68721 78.791 7.71416C79.854 7.92413 80.951 8.22715 81.915 8.57655C82.762 8.88369 83.068 9.00643 83.361 9.15662C83.886 9.42662 84.234 9.74592 84.428 10.1359C84.586 10.4555 84.576 10.4221 85.477 13.7361C85.847 15.0967 86.178 16.3166 86.214 16.4471C86.278 16.682 87.736 22.0418 87.888 22.604C87.932 22.7648 88.146 23.5526 88.364 24.3546L88.761 25.8127L91.432 25.8128H94.103L98.209 16.453C100.467 11.3051 102.317 7.08701 102.32 7.07937C102.323 7.07146 101.183 7.06551 99.663 7.06551H97.001L96.973 7.13269C96.957 7.16963 95.7719 10.0274 94.3399 13.4832C92.9069 16.9391 91.729 19.7772 91.721 19.7903C91.711 19.807 91.706 19.8079 91.706 19.7936C91.705 19.753 89.548 8.95023 89.507 8.7826C89.354 8.14815 88.9419 7.63468 88.353 7.34307C88.0619 7.1991 87.7629 7.1163 87.4109 7.08216C87.1419 7.05612 78.65 7.05914 78.641 7.08527ZM104.458 7.10898C104.453 7.13288 103.518 11.3279 102.381 16.4313C101.243 21.5346 100.309 25.7332 100.304 25.7614L100.294 25.8128H102.832H105.369L107.441 16.4826C108.58 11.351 109.516 7.13288 109.52 7.10898L109.527 7.06551H106.997H104.467L104.458 7.10898ZM132.467 7.08366C131.628 7.16663 131.012 7.6315 130.574 8.51187C130.52 8.62031 123.144 25.4842 123.015 25.7931C123.008 25.8088 123.546 25.8128 125.669 25.8128H128.331L128.534 25.2556C128.645 24.9492 128.875 24.3126 129.046 23.8411L129.356 22.9838L132.603 22.9836C134.389 22.9834 135.851 22.9851 135.851 22.9873C135.852 22.9895 135.992 23.6243 136.163 24.3981L136.473 25.8049L138.826 25.8089C141.062 25.8127 141.178 25.8116 141.17 25.7852C141.16 25.7553 137.079 7.08647 137.079 7.0734C137.079 7.05933 132.612 7.06927 132.467 7.08366ZM134.275 15.6394C134.704 17.5513 135.055 19.1286 135.055 19.1447C135.055 19.1728 134.984 19.1738 132.946 19.1738C131.266 19.1738 130.839 19.1698 130.844 19.154C130.945 18.8691 133.487 12.1405 133.49 12.1498C133.493 12.1572 133.846 13.7276 134.275 15.6394Z" fill="#002E10"/>
<path d="M162.048 2.90283H164.875V19.1597H162.048V2.90283Z" fill="#002E10"/>
<path d="M166.674 2.90283H167.959V19.1597H166.674V2.90283Z" fill="#002E10"/>
<path d="M170.272 2.90283H172.585V19.1597H170.272V2.90283Z" fill="#002E10"/>
<path d="M174.641 2.90283H176.183V19.1597H174.641V2.90283Z" fill="#002E10"/>
<path d="M178.239 2.90283H181.837V19.1597H178.239V2.90283Z" fill="#002E10"/>
<path d="M198.286 2.90283H201.37V19.1597H198.286V2.90283Z" fill="#002E10"/>
<path d="M184.407 2.90283H186.72V19.1597H184.407V2.90283Z" fill="#002E10"/>
<path d="M203.426 2.90283H205.482V19.1597H203.426V2.90283Z" fill="#002E10"/>
<path d="M189.033 2.90283H190.832V19.1597H189.033V2.90283Z" fill="#002E10"/>
<path d="M207.538 2.90283H209.08V19.1597H207.538V2.90283Z" fill="#002E10"/>
<path d="M193.66 2.90283H195.459V19.1597H193.66V2.90283Z" fill="#002E10"/>
<path d="M211.393 2.90283H214.22V19.1597H211.393V2.90283Z" fill="#002E10"/>
<path d="M167.592 25.6375C168.025 25.7739 168.368 26.0037 168.621 26.3267C168.874 26.6426 169.001 27.0375 169.001 27.5114C169.001 28.1647 168.74 28.6709 168.219 29.0298C167.697 29.3816 166.937 29.5575 165.938 29.5575H162.048V22.019H165.714C166.639 22.019 167.35 22.1949 167.85 22.5467C168.349 22.8913 168.599 23.3688 168.599 23.979C168.599 24.3524 168.509 24.6826 168.33 24.9698C168.151 25.257 167.906 25.4796 167.592 25.6375ZM163.501 23.1175V25.196H165.558C166.065 25.196 166.452 25.1098 166.721 24.9375C166.996 24.758 167.134 24.4995 167.134 24.1621C167.134 23.8175 166.996 23.559 166.721 23.3867C166.452 23.2072 166.065 23.1175 165.558 23.1175H163.501ZM165.849 28.4591C166.974 28.4591 167.537 28.0965 167.537 27.3714C167.537 26.6462 166.974 26.2837 165.849 26.2837H163.501V28.4591H165.849Z" fill="#002E10"/>
<path d="M175.326 29.665C174.528 29.665 173.809 29.4999 173.168 29.1696C172.527 28.8322 172.024 28.3691 171.659 27.7804C171.294 27.1845 171.111 26.5204 171.111 25.7881C171.111 25.0558 171.294 24.3952 171.659 23.8065C172.024 23.2106 172.527 22.7475 173.168 22.4173C173.809 22.0798 174.528 21.9111 175.326 21.9111C176.123 21.9111 176.842 22.0798 177.483 22.4173C178.124 22.7475 178.627 23.207 178.992 23.7957C179.358 24.3845 179.54 25.0486 179.54 25.7881C179.54 26.5276 179.358 27.1917 178.992 27.7804C178.627 28.3691 178.124 28.8322 177.483 29.1696C176.842 29.4999 176.123 29.665 175.326 29.665ZM175.326 28.4373C175.847 28.4373 176.317 28.326 176.734 28.1035C177.152 27.8737 177.48 27.5578 177.718 27.1558C177.957 26.7465 178.076 26.2906 178.076 25.7881C178.076 25.2855 177.957 24.8332 177.718 24.4311C177.48 24.0219 177.152 23.706 176.734 23.4834C176.317 23.2537 175.847 23.1388 175.326 23.1388C174.804 23.1388 174.334 23.2537 173.917 23.4834C173.5 23.706 173.172 24.0219 172.933 24.4311C172.695 24.8332 172.576 25.2855 172.576 25.7881C172.576 26.2906 172.695 26.7465 172.933 27.1558C173.172 27.5578 173.5 27.8737 173.917 28.1035C174.334 28.326 174.804 28.4373 175.326 28.4373Z" fill="#002E10"/>
<path d="M182.199 22.019H183.652V28.3729H187.744V29.5575H182.199V22.019Z" fill="#002E10"/>
<path d="M195.878 28.3837V29.5575H190.009V22.019H195.722V23.1929H191.462V25.1529H195.241V26.3052H191.462V28.3837H195.878Z" fill="#002E10"/>
<path d="M200.204 23.2036H197.61V22.019H204.25V23.2036H201.657V29.5575H200.204V23.2036Z" fill="#002E10"/>
<path d="M210.006 29.665C209.208 29.665 208.489 29.4999 207.848 29.1696C207.207 28.8322 206.704 28.3691 206.339 27.7804C205.974 27.1845 205.791 26.5204 205.791 25.7881C205.791 25.0558 205.974 24.3952 206.339 23.8065C206.704 23.2106 207.207 22.7475 207.848 22.4173C208.489 22.0798 209.208 21.9111 210.006 21.9111C210.803 21.9111 211.522 22.0798 212.163 22.4173C212.804 22.7475 213.307 23.207 213.672 23.7957C214.038 24.3845 214.22 25.0486 214.22 25.7881C214.22 26.5276 214.038 27.1917 213.672 27.7804C213.307 28.3691 212.804 28.8322 212.163 29.1696C211.522 29.4999 210.803 29.665 210.006 29.665ZM210.006 28.4373C210.527 28.4373 210.997 28.326 211.414 28.1035C211.831 27.8737 212.159 27.5578 212.398 27.1558C212.636 26.7465 212.756 26.2906 212.756 25.7881C212.756 25.2855 212.636 24.8332 212.398 24.4311C212.159 24.0219 211.831 23.706 211.414 23.4834C210.997 23.2537 210.527 23.1388 210.006 23.1388C209.484 23.1388 209.014 23.2537 208.597 23.4834C208.18 23.706 207.852 24.0219 207.613 24.4311C207.375 24.8332 207.255 25.2855 207.255 25.7881C207.255 26.2906 207.375 26.7465 207.613 27.1558C207.852 27.5578 208.18 27.8737 208.597 28.1035C209.014 28.326 209.484 28.4373 210.006 28.4373Z" fill="#002E10"/>
<path fill-rule="evenodd" clip-rule="evenodd" d="M238.088 6.31212C238.164 6.13258 238.322 5.96425 238.497 5.87724L238.639 5.80664L242.241 5.81688C245.428 5.82597 245.873 5.83276 246.112 5.8758C246.882 6.01487 247.384 6.16469 247.862 6.39842C248.987 6.94853 249.651 7.8231 249.912 9.09831C249.99 9.47821 250.02 10.372 249.971 10.8568C249.836 12.1988 249.459 13.4757 248.925 14.396C248.046 15.912 246.686 16.8281 244.807 17.1689C244.213 17.2766 243.898 17.296 242.439 17.3146L240.993 17.333L240.842 17.4201C240.68 17.5131 240.55 17.662 240.482 17.8297C240.46 17.8865 240.287 18.9468 240.1 20.1859L240.099 20.1926C239.775 22.33 239.734 22.6019 239.585 22.768C239.563 22.7922 239.539 22.8141 239.512 22.8393L239.511 22.8399C239.454 22.892 239.349 22.9627 239.278 22.9969C239.153 23.0572 239.105 23.0593 237.618 23.0681C236.576 23.0742 236.053 23.0669 235.981 23.0452C235.759 22.9776 235.615 22.7817 235.615 22.548C235.615 22.472 236.158 18.8183 236.822 14.4288C237.704 8.60177 238.045 6.41132 238.088 6.31212ZM245.474 10.5073C245.324 9.84701 244.886 9.48101 244.069 9.33201C243.872 9.29621 243.566 9.27981 242.921 9.27051C242.043 9.25791 242.042 9.25801 241.929 9.32611L241.927 9.32691C241.9 9.34341 241.876 9.35781 241.854 9.37531C241.711 9.49211 241.672 9.74921 241.377 11.7179L241.375 11.7313C241.204 12.8711 241.064 13.8123 241.064 13.8229C241.064 13.8621 243.224 13.8121 243.46 13.7674C244.106 13.6454 244.489 13.4616 244.822 13.1137C245.068 12.8571 245.21 12.6135 245.335 12.2335C245.499 11.7358 245.565 10.9112 245.474 10.5073ZM252.276 12.2514C253.03 11.7652 253.904 11.4353 254.749 11.3173C255.12 11.2654 255.917 11.2557 256.326 11.298C257.642 11.4343 258.469 11.8264 258.952 12.544C259.038 12.6715 259.113 12.771 259.118 12.7651C259.124 12.7592 259.156 12.5759 259.189 12.3578C259.263 11.8686 259.313 11.7413 259.472 11.6314L259.593 11.548L261.106 11.5397C262.12 11.5341 262.656 11.5418 262.732 11.563C262.794 11.5804 262.889 11.6405 262.943 11.6965C262.957 11.7114 262.971 11.723 262.984 11.7338C262.995 11.7434 263.005 11.7523 263.015 11.7623C263.132 11.8871 263.088 12.178 262.494 16.1008C262.441 16.4495 262.384 16.827 262.322 17.2356C261.719 21.2224 261.521 22.4679 261.475 22.5696C261.397 22.7413 261.229 22.9156 261.062 22.9956C260.934 23.0574 260.894 23.0592 259.534 23.0677C258.605 23.0735 258.1 23.0658 258.025 23.0448C257.874 23.0024 257.726 22.8519 257.681 22.694C257.649 22.5823 257.652 22.5144 257.707 22.1631C257.741 21.9416 257.769 21.7409 257.769 21.7171C257.768 21.6922 257.705 21.7372 257.619 21.8225C257.003 22.4378 256.133 22.9249 255.22 23.1659C254.204 23.4339 252.982 23.3925 252.015 23.0573C250.659 22.5868 249.664 21.407 249.278 19.8123C248.883 18.1766 249.2 16.1569 250.098 14.5957C250.646 13.6412 251.433 12.7951 252.276 12.2514ZM264.49 12.0583C264.49 11.8533 264.657 11.6248 264.853 11.5619C264.895 11.5483 265.625 11.5396 266.475 11.5426L268.021 11.548L268.148 11.6176C268.308 11.7048 268.478 11.8707 268.545 12.0059C268.573 12.063 268.97 13.4111 269.426 15.0017C269.881 16.5924 270.263 17.9107 270.274 17.9314C270.285 17.9543 271.064 16.782 272.262 14.9379C273.346 13.2708 274.281 11.8546 274.341 11.7908C274.401 11.7271 274.51 11.6464 274.582 11.6115C274.711 11.5494 274.748 11.5478 276.26 11.5389C277.315 11.5326 277.839 11.5398 277.911 11.5618C278.037 11.6003 278.175 11.716 278.232 11.8305C278.281 11.9303 278.287 12.1902 278.241 12.2805C278.179 12.4009 268.651 26.7479 268.577 26.8312C268.537 26.8768 268.427 26.9535 268.332 27.0017L268.161 27.0893L266.543 27.0812L264.925 27.0731L264.821 26.9904C264.642 26.8482 264.57 26.6258 264.639 26.4228C264.661 26.3584 265.342 25.3283 266.154 24.1337C266.965 22.9391 267.638 21.9461 267.65 21.9271C267.661 21.9081 266.954 19.7008 266.08 17.022C265.205 14.3433 264.49 12.1096 264.49 12.0583ZM258.507 15.9381C258.261 15.189 257.672 14.6703 256.877 14.5006C256.649 14.4519 256.118 14.421 255.911 14.4444C255.146 14.5304 254.386 14.9137 253.902 15.4585C253.298 16.1368 252.957 17.1207 253.013 18.0236C253.05 18.6229 253.242 19.1024 253.594 19.4714C253.917 19.8098 254.272 20.0037 254.762 20.1098C255.109 20.1849 255.738 20.1804 256.095 20.1002C257.273 19.8359 258.119 19.045 258.486 17.8643C258.696 17.1917 258.703 16.531 258.507 15.9381Z" fill="#002E10"/>
<path d="M308.658 5.88175C308.58 5.93004 308.52 5.9986 308.483 6.08071C308.441 6.17392 308.113 8.28837 307.204 14.3374C306.531 18.8097 305.981 22.5125 305.982 22.5658C305.983 22.786 306.137 22.9845 306.353 23.045C306.428 23.0661 306.911 23.0738 307.791 23.0679L309.116 23.0592L309.266 22.9888C309.462 22.8968 309.653 22.6757 309.712 22.474C309.761 22.3082 312.165 6.4498 312.165 6.29491C312.165 6.14975 312.05 5.95008 311.922 5.87443L311.81 5.80852L310.293 5.80832L308.776 5.80811L308.658 5.88175Z" fill="#00561D" fill-opacity="0.7"/>
<path fill-rule="evenodd" clip-rule="evenodd" d="M297.502 11.2864C297.463 11.2923 297.316 11.312 297.176 11.3302C297.036 11.3484 296.774 11.4007 296.595 11.4464C294.097 12.083 292.197 14.2544 291.703 17.0377C291.449 18.4715 291.598 19.7616 292.15 20.906C292.951 22.5666 294.456 23.4036 296.51 23.3308C297.005 23.3132 297.31 23.2677 297.772 23.1424C298.564 22.9272 299.385 22.474 299.998 21.9129C300.131 21.7916 300.243 21.6958 300.247 21.7C300.251 21.7042 300.229 21.8723 300.197 22.0735C300.166 22.2747 300.14 22.4895 300.14 22.5509C300.14 22.7848 300.288 22.9826 300.51 23.0449C300.585 23.0659 301.086 23.0736 302.005 23.0678L303.387 23.0591L303.549 22.9763C303.753 22.8719 303.926 22.672 303.983 22.4724C304.04 22.2742 305.557 12.2331 305.557 12.0527C305.557 11.8198 305.414 11.6278 305.194 11.5642C305.045 11.521 302.233 11.5229 302.083 11.5663C302.021 11.5842 301.924 11.6473 301.867 11.7065C301.753 11.8255 301.733 11.8963 301.649 12.4737L301.6 12.809L301.464 12.6014C300.966 11.8425 300.134 11.438 298.783 11.2981C298.51 11.2699 297.664 11.2622 297.502 11.2864ZM300.947 17.9037C301.465 16.2926 300.826 14.8681 299.428 14.5144C299.194 14.4551 298.576 14.4148 298.353 14.4443C296.767 14.6545 295.651 15.8616 295.491 17.54C295.406 18.4197 295.696 19.2208 296.258 19.664C296.832 20.1168 297.672 20.2796 298.544 20.1073C299.681 19.8829 300.575 19.0634 300.947 17.9037Z" fill="#00561D" fill-opacity="0.7"/>
<path fill-rule="evenodd" clip-rule="evenodd" d="M280.947 5.89653C280.761 5.99314 280.66 6.09635 280.568 6.28413C280.526 6.37135 280.219 8.33724 279.29 14.4875C278.188 21.7742 278.07 22.5877 278.101 22.6925C278.143 22.8408 278.299 23.0028 278.436 23.0425C278.591 23.0874 281.609 23.0848 281.782 23.0397C281.949 22.9957 282.141 22.8085 282.185 22.6458C282.202 22.5809 282.37 21.505 282.557 20.2551C282.744 19.0051 282.918 17.9239 282.944 17.8524C283 17.6911 283.149 17.5166 283.317 17.414C283.469 17.3212 283.417 17.3243 285.151 17.3065C286.455 17.2932 286.809 17.2654 287.491 17.1235C288.292 16.9567 288.962 16.6967 289.561 16.3203C291.054 15.382 291.992 13.7633 292.352 11.5038C292.662 9.55893 292.359 8.15375 291.42 7.1798C290.774 6.51048 289.895 6.10565 288.615 5.88792C288.25 5.82579 288.168 5.82425 284.683 5.81484L281.123 5.80518L280.947 5.89653ZM287.382 9.63793C287.225 9.52513 286.871 9.39113 286.575 9.33193C286.285 9.27413 284.57 9.24183 284.456 9.29193C284.362 9.33343 284.262 9.43303 284.21 9.53693C284.187 9.58343 284.024 10.5663 283.849 11.7211L283.531 13.8207L284.398 13.8295C285.276 13.8384 285.743 13.8111 286.126 13.7289C287.21 13.496 287.776 12.8232 287.957 11.5534C288.089 10.6296 287.904 10.0111 287.382 9.63793Z" fill="#00561D" fill-opacity="0.7"/>
</g>
</svg>
