<svg width="100" height="22" viewBox="0 0 100 22" fill="none" xmlns="http://www.w3.org/2000/svg">
<g clip-path="url(#clip0_57_52)">
<path d="M-0.476196 13.9861H3.79904C3.82952 14.289 3.85142 14.568 3.88476 14.8432C3.94115 15.576 4.23875 16.2695 4.73104 16.8152C5.22334 17.361 5.88257 17.7281 6.60571 17.8594C7.98251 18.1969 9.42594 18.1454 10.7752 17.7109C11.1415 17.6233 11.4802 17.4458 11.7606 17.1944C12.0409 16.943 12.2542 16.6255 12.3809 16.2709C12.5727 15.7577 12.5689 15.192 12.3705 14.6815C12.172 14.171 11.7927 13.7512 11.3048 13.5023C10.5195 13.157 9.6959 12.9063 8.85142 12.7556C7.45714 12.428 6.05333 12.129 4.67999 11.7242C3.9856 11.4943 3.32145 11.1816 2.7019 10.7928C2.07941 10.4402 1.54533 9.95057 1.14008 9.36101C0.734828 8.77145 0.469044 8.0974 0.362851 7.38992C0.169991 6.41839 0.204544 5.4154 0.463804 4.45945C0.688754 3.72218 1.06401 3.03952 1.56593 2.45451C2.06783 1.8695 2.6855 1.39482 3.37999 1.0604C4.49386 0.476691 5.7197 0.138003 6.97523 0.0670642C8.49207 -0.095844 10.0261 0.0387328 11.4914 0.463255C12.7074 0.840533 13.8139 1.50685 14.7162 2.40516C15.3233 3.01767 15.7958 3.75028 16.1033 4.55604C16.4109 5.3618 16.5466 6.22292 16.5019 7.08421C16.5019 7.31469 16.4257 7.41564 16.1848 7.41469C14.9588 7.40897 13.7327 7.40897 12.5067 7.41469C12.2686 7.41469 12.1867 7.31945 12.1838 7.08897C12.1988 6.77993 12.175 6.47024 12.1133 6.16707C11.9725 5.61606 11.6754 5.11747 11.2579 4.73124C10.8405 4.34502 10.3203 4.08759 9.75999 3.98992C8.64504 3.72134 7.47996 3.742 6.37523 4.04992C6.01054 4.15411 5.66759 4.32316 5.36285 4.54897C5.12041 4.72194 4.92328 4.95085 4.78818 5.21626C4.65308 5.48167 4.584 5.77575 4.58681 6.07355C4.58961 6.37135 4.66421 6.66409 4.80429 6.92691C4.94437 7.18973 5.14577 7.41488 5.39142 7.58326C5.85442 7.90719 6.3799 8.131 6.93428 8.2404C8.23618 8.53659 9.54761 8.78897 10.8457 9.09754C12.2825 9.40344 13.6376 10.0119 14.8209 10.8823C15.3666 11.2969 15.8217 11.8185 16.1585 12.4153C16.4951 13.0121 16.7064 13.6714 16.779 14.3528C16.9376 15.3874 16.8589 16.4446 16.5486 17.4442C16.2791 18.2722 15.8241 19.0276 15.2182 19.6529C14.6123 20.2781 13.8714 20.7566 13.0524 21.0518C11.949 21.4827 10.7824 21.7294 9.59904 21.7823C8.10979 21.9191 6.60825 21.8165 5.15142 21.4785C3.76463 21.1999 2.49714 20.5013 1.5209 19.4777C0.544655 18.4542 -0.0930583 17.155 -0.30572 15.7566C-0.414292 15.1928 -0.417149 14.6147 -0.476196 13.9861Z" fill="#777777"/>
<path d="M59.8304 14.6645C60.1457 15.5579 60.4561 16.4445 60.7714 17.3312C61.2062 18.5502 61.6428 19.7686 62.0809 20.9864C62.1068 21.0519 62.1295 21.1186 62.1485 21.1864C62.2361 21.5293 62.1695 21.6293 61.8238 21.6302C60.4999 21.6302 59.1742 21.6255 57.8504 21.6379C57.5819 21.6379 57.4866 21.5198 57.4133 21.2921C56.9428 19.8331 56.4609 18.3769 55.9847 16.9198C55.9628 16.8541 55.9352 16.7893 55.8895 16.6779C53.2579 17.4716 50.4879 17.6968 47.7628 17.3388C47.579 17.8912 47.3923 18.4455 47.2095 19.0007C46.959 19.7626 46.6971 20.5245 46.4704 21.2864C46.4619 21.3405 46.4429 21.3923 46.4143 21.439C46.3859 21.4857 46.3484 21.5263 46.3042 21.5585C46.2599 21.5907 46.2099 21.6139 46.1566 21.6266C46.1035 21.6395 46.0482 21.6417 45.9942 21.6331C44.7685 21.6217 43.5419 21.6331 42.3161 21.6274C41.9352 21.6274 41.8457 21.5131 41.9657 21.1321C42.1019 20.7036 42.2695 20.2855 42.4209 19.8607L49.2066 0.733103C49.3657 0.284532 49.3647 0.282627 49.8533 0.282627C51.318 0.282627 52.7834 0.282627 54.2495 0.282627C54.7723 0.282627 54.6847 0.245484 54.8428 0.688341L58.3838 10.6293C58.4399 10.7874 58.5028 10.9426 58.5742 11.1331C59.4105 10.4313 60.166 9.63853 60.8266 8.76929C60.899 8.92453 60.9495 9.01786 60.9876 9.11691C61.379 10.1417 61.76 11.1712 62.1638 12.1912C62.214 12.2824 62.2294 12.3889 62.2067 12.4906C62.1841 12.5923 62.1252 12.6822 62.0409 12.7436C61.418 13.2921 60.8028 13.8474 60.179 14.3979C60.0742 14.4931 59.9571 14.5693 59.8276 14.6664L59.8304 14.6645ZM51.9866 4.65881L51.898 4.66739C50.899 7.73881 49.898 10.8093 48.879 13.9512C50.877 14.163 52.8972 13.9537 54.8095 13.3369C53.8571 10.4045 52.9219 7.52739 51.9876 4.65786L51.9866 4.65881Z" fill="#777777"/>
<path d="M89.0541 12.506C89.0427 12.6908 89.0303 12.8146 89.0293 12.9403C89.0293 14.4216 89.0293 15.9025 89.0293 17.3832C89.0293 17.8222 89.0341 17.8251 89.4769 17.826C92.6344 17.826 95.7914 17.826 98.9486 17.826H99.5267V21.5975H84.8093V0.30603H99.5267V4.11556H89.6122C89.0208 4.11556 89.0284 4.04032 89.0284 4.67651V8.14698C89.0284 8.52794 89.2246 8.71841 89.6169 8.71841H98.6C98.6124 8.89556 98.6257 9.01746 98.6267 9.14032C98.6267 10.0991 98.6267 11.0581 98.6267 12.0175C98.6267 12.5079 98.6267 12.5089 98.1505 12.5089H89.055L89.0541 12.506Z" fill="#777777"/>
<path d="M39.6699 8.05523H35.3707C35.3374 7.9038 35.2945 7.7438 35.2679 7.57904C35.1314 6.62967 34.6791 5.75394 33.984 5.09306C33.2889 4.43217 32.3915 4.02464 31.4364 3.93618C30.3031 3.76384 29.1442 3.89936 28.0813 4.32856C27.4223 4.62404 26.8354 5.05913 26.3611 5.60375C25.8869 6.14838 25.5366 6.78952 25.3345 7.48285C24.85 8.94538 24.6847 10.4948 24.8498 12.0266C24.9147 13.1113 25.1873 14.1734 25.6526 15.1552C26.054 16.0177 26.6982 16.7444 27.5066 17.2458C28.315 17.7472 29.2521 18.0018 30.2031 17.9781C30.8929 18.0181 31.5845 17.945 32.2507 17.7619C32.99 17.5374 33.6566 17.1209 34.1826 16.5549C34.7086 15.989 35.0752 15.2938 35.245 14.54C35.4174 13.9609 35.4031 13.9571 36.0193 13.9571H39.1479C39.3002 13.9571 39.4517 13.9704 39.624 13.9771C39.6024 14.69 39.4598 15.394 39.2021 16.059C38.7198 17.513 37.8438 18.8047 36.6714 19.7908C35.4991 20.7768 34.0763 21.4186 32.5612 21.6447C30.8512 21.9596 29.0929 21.8945 27.4107 21.4543C26.2586 21.1653 25.1796 20.6384 24.2432 19.9076C23.3068 19.1767 22.5338 18.258 21.9736 17.2104C21.2488 15.9019 20.7871 14.4641 20.6145 12.9781C20.3576 11.1313 20.4497 9.25275 20.886 7.43999C21.3786 5.12638 22.7038 3.07426 24.6098 1.67332C25.8608 0.794556 27.3199 0.258389 28.8421 0.118083C30.2542 -0.0833304 31.6913 -0.0226328 33.0813 0.297131C34.658 0.630183 36.1029 1.41669 37.2386 2.55998C38.3742 3.70327 39.1511 5.15349 39.4736 6.73237C39.5755 7.15047 39.6041 7.58951 39.6717 8.05523H39.6699Z" fill="#777777"/>
<path d="M66.7303 0.305054H70.9208C70.9389 1.27362 70.9265 2.23934 70.9284 3.2041C70.9303 4.16886 70.9284 5.14981 70.9284 6.12219V17.7917H80.7027C80.717 17.9574 80.737 18.0774 80.737 18.2031C80.737 19.2044 80.737 20.2053 80.737 21.206C80.737 21.625 80.7294 21.6298 80.3103 21.6298C75.9154 21.6298 71.5201 21.6298 67.1246 21.6298C66.7151 21.6298 66.7103 21.625 66.7103 21.2041V0.647911C66.7103 0.552673 66.7179 0.457435 66.7256 0.305054H66.7303Z" fill="#777777"/>
</g>
<defs>
<clipPath id="clip0_57_52">
<rect width="100" height="21.9048" fill="white"/>
</clipPath>
</defs>
</svg>
