<svg width="150" height="32" viewBox="0 0 150 32" fill="none" xmlns="http://www.w3.org/2000/svg">
<g clip-path="url(#clip0_57_58)">
<path d="M20.9948 20.7534C21.5722 20.6107 22.1469 20.4642 22.6943 20.2785C25.9826 19.1632 29.2031 17.1771 30.1487 13.3501C24.747 18.129 15.7837 13.6414 13.6536 23.2517C12.8935 26.6815 13.7256 29.9974 16.7585 31.0718C15.1599 29.5786 14.9394 27.829 15.2901 25.4779C15.8178 21.9408 18.4335 21.3864 20.9948 20.7534Z" fill="#777777"/>
<path d="M4.37568 26.3703C4.37568 26.3703 -1.8229 17.8566 7.93565 15.7989C7.93565 15.7989 9.55373 13.4461 10.2303 12.6024C10.2303 12.6024 -4.31631 16.1574 4.37568 26.3703Z" fill="#777777"/>
<path d="M5.41599 10.2866C-6.13039 16.5469 4.37568 26.3706 4.37568 26.3706C4.37568 26.3706 -1.82291 17.857 7.93565 15.7993C1.64264 27.8493 14.7815 32.0004 14.7815 32.0004C11.1115 29.7964 10.9093 26.2901 12.1061 22.0663C13.0834 18.6172 14.7382 16.7174 16.7691 15.5513C20.297 13.5256 24.959 13.7137 29.1707 11.8379C34.1234 9.63233 37.1322 4.99277 39.4436 0.000366211C29.0541 7.08438 16.326 4.371 5.41599 10.2866Z" fill="#B7B7B7"/>
<path d="M48.9585 11.6587V15.3494H43.1147V30.8891H38.7527V15.3494H32.9089V11.6587H48.9585Z" fill="#B7B7B7"/>
<path d="M47.9325 23.702C47.9325 22.4074 48.1326 21.2738 48.5338 20.3025C48.9343 19.3313 49.4609 18.5222 50.1136 17.8743C50.7664 17.2265 51.516 16.7367 52.3644 16.4035C53.2124 16.0706 54.084 15.9042 54.9788 15.9042C57.0662 15.9042 58.716 16.5381 59.9278 17.805C61.1392 19.0722 61.7452 20.9365 61.7452 23.3965C61.7452 23.637 61.7357 23.9009 61.7173 24.1874C61.6985 24.4746 61.6798 24.7287 61.6614 24.9506H52.2106C52.3037 25.8017 52.7042 26.4769 53.4129 26.9762C54.1212 27.4759 55.0718 27.7255 56.2649 27.7255C57.0291 27.7255 57.779 27.6562 58.5156 27.5175C59.2518 27.3788 59.8528 27.2079 60.3191 27.004L60.8784 30.3618C60.6548 30.4727 60.3562 30.5837 59.9837 30.6946C59.6104 30.8056 59.1959 30.9027 58.7395 30.9859C58.2824 31.0691 57.7933 31.1385 57.2714 31.1939C56.7492 31.2494 56.2274 31.2772 55.7055 31.2772C54.3816 31.2772 53.2308 31.083 52.2522 30.6943C51.2736 30.3059 50.4627 29.7742 49.8195 29.0986C49.1763 28.4234 48.7011 27.6237 48.3937 26.6981C48.0862 25.7733 47.9321 24.7743 47.9321 23.7013L47.9325 23.702ZM57.7186 22.1201C57.6999 21.769 57.6392 21.4263 57.537 21.0935C57.4344 20.7606 57.2759 20.4649 57.0618 20.2055C56.8474 19.9467 56.5767 19.7339 56.2509 19.5671C55.9247 19.4007 55.519 19.3175 55.0347 19.3175C54.5503 19.3175 54.1679 19.3963 53.8325 19.5532C53.4971 19.7105 53.2172 19.9186 52.9936 20.1777C52.77 20.4368 52.5975 20.7376 52.4762 21.0796C52.3548 21.4223 52.2665 21.769 52.2106 22.1201H57.719H57.7186Z" fill="#B7B7B7"/>
<path d="M63.7332 23.591C63.7332 22.5366 63.9053 21.5424 64.2506 20.608C64.5952 19.674 65.0939 18.8598 65.7466 18.1659C66.399 17.4721 67.1909 16.9221 68.1235 16.5148C69.0554 16.1082 70.1179 15.9042 71.3109 15.9042C72.0938 15.9042 72.811 15.9735 73.4638 16.1122C74.1162 16.2509 74.7498 16.4498 75.3651 16.709L74.4983 20.0113C74.107 19.8635 73.6778 19.7339 73.2122 19.6229C72.7459 19.512 72.224 19.4565 71.6463 19.4565C70.4161 19.4565 69.4978 19.8357 68.8921 20.5941C68.2861 21.3529 67.9834 22.3519 67.9834 23.591C67.9834 24.9049 68.2673 25.9221 68.8362 26.6433C69.4044 27.3649 70.3974 27.7255 71.814 27.7255C72.3174 27.7255 72.8577 27.6795 73.4358 27.5868C74.0132 27.4945 74.5446 27.3466 75.0297 27.143L75.617 30.5285C75.1319 30.7322 74.5266 30.9074 73.7995 31.0559C73.0725 31.2038 72.2707 31.2778 71.3947 31.2778C70.0527 31.2778 68.8965 31.0789 67.9275 30.6811C66.9581 30.2836 66.1611 29.7424 65.5367 29.0577C64.9119 28.3733 64.4554 27.5638 64.1667 26.6295C63.8777 25.6955 63.7335 24.6827 63.7335 23.591H63.7332Z" fill="#B7B7B7"/>
<path d="M77.926 30.8888V10.0214L82.092 9.35535V16.348C82.3715 16.2557 82.7305 16.1677 83.1685 16.0845C83.6061 16.0013 84.0305 15.9597 84.4406 15.9597C85.6332 15.9597 86.6258 16.1217 87.4184 16.4451C88.2105 16.7692 88.8442 17.2269 89.3197 17.8189C89.7952 18.4112 90.1306 19.1138 90.3262 19.9277C90.5219 20.742 90.6197 21.6483 90.6197 22.6472V30.8888H86.4537V23.1469C86.4537 21.815 86.2812 20.8716 85.9363 20.3164C85.591 19.7613 84.9529 19.4839 84.021 19.4839C83.6477 19.4839 83.2983 19.5164 82.9725 19.581C82.6463 19.646 82.3524 19.7153 82.0917 19.789V30.8888H77.9257H77.926Z" fill="#B7B7B7"/>
<path d="M100.392 9.35532C101.175 9.35532 101.822 9.42027 102.335 9.54949C102.848 9.67906 103.281 9.81775 103.636 9.96558L102.908 13.2121C102.61 13.0829 102.279 12.9902 101.916 12.9347C101.553 12.8792 101.184 12.8515 100.811 12.8515C100.308 12.8515 99.884 12.9208 99.5394 13.0595C99.1944 13.1982 98.9241 13.3883 98.7285 13.6285C98.5328 13.869 98.393 14.1559 98.3092 14.4888C98.2253 14.8217 98.1834 15.1826 98.1834 15.571V16.2925H103.328V19.7335H98.1834V30.8888H94.0174V15.5155C94.0174 13.6285 94.5529 12.1299 95.6252 11.02C96.6969 9.91011 98.286 9.35498 100.393 9.35498L100.392 9.35532ZM111.632 31.1665C110.421 31.1479 109.438 31.0184 108.683 30.7782C107.928 30.538 107.331 30.2004 106.893 29.7654C106.455 29.331 106.157 28.8036 105.998 28.1835C105.84 27.5638 105.761 26.8656 105.761 26.0886V10.0217L109.927 9.35566V25.256C109.927 25.6265 109.955 25.9593 110.011 26.255C110.067 26.551 110.174 26.801 110.332 27.0043C110.49 27.2079 110.719 27.3747 111.017 27.5039C111.315 27.6335 111.716 27.7167 112.219 27.7536L111.632 31.1669L111.632 31.1665Z" fill="#777777"/>
<path d="M127.925 23.5629C127.925 24.71 127.757 25.7597 127.422 26.7123C127.086 27.6653 126.601 28.4792 125.967 29.1544C125.333 29.83 124.574 30.3523 123.689 30.7224C122.803 31.0921 121.811 31.2775 120.711 31.2775C119.611 31.2775 118.646 31.0924 117.761 30.7224C116.876 30.3526 116.116 29.83 115.483 29.1544C114.849 28.4792 114.355 27.6656 114 26.7123C113.646 25.7597 113.469 24.71 113.469 23.5629C113.469 22.4158 113.651 21.3708 114.014 20.4273C114.378 19.4839 114.881 18.6791 115.524 18.013C116.168 17.3469 116.932 16.8294 117.817 16.4589C118.702 16.0892 119.667 15.9038 120.711 15.9038C121.755 15.9038 122.747 16.0889 123.633 16.4589C124.518 16.8294 125.278 17.3469 125.912 18.013C126.545 18.6791 127.039 19.4839 127.394 20.4273C127.747 21.3708 127.925 22.4161 127.925 23.5629ZM123.675 23.5629C123.675 22.2866 123.419 21.2832 122.906 20.5522C122.393 19.8215 121.662 19.4561 120.711 19.4561C119.761 19.4561 119.024 19.8215 118.503 20.5522C117.98 21.2832 117.72 22.2866 117.72 23.5629C117.72 24.8392 117.98 25.8521 118.503 26.6014C119.024 27.3507 119.761 27.7252 120.711 27.7252C121.662 27.7252 122.394 27.3507 122.906 26.6014C123.418 25.8521 123.675 24.8392 123.675 23.5629Z" fill="#777777"/>
<path d="M139.249 22.5085C138.876 23.9147 138.48 25.3112 138.061 26.6988C137.642 28.0865 137.199 29.4832 136.733 30.8891H133.489C133.153 30.1121 132.788 29.1872 132.396 28.1142C132.003 27.0415 131.596 25.8714 131.176 24.6038C130.755 23.3369 130.325 21.9953 129.886 20.5803C129.446 19.1652 129.021 17.736 128.61 16.2928H133C133.15 16.9589 133.313 17.6852 133.492 18.4711C133.67 19.2576 133.857 20.0667 134.054 20.8993C134.251 21.7318 134.458 22.569 134.673 23.4107C134.889 24.2527 135.109 25.0619 135.334 25.8389C135.576 25.025 135.814 24.1925 136.047 23.3413C136.28 22.4906 136.504 21.6533 136.719 20.8299C136.933 20.0069 137.138 19.2112 137.334 18.4433C137.53 17.6758 137.702 16.9586 137.851 16.2928H140.871C141.02 16.9589 141.188 17.6761 141.374 18.4433C141.56 19.2112 141.756 20.0069 141.961 20.8299C142.166 21.6533 142.381 22.4906 142.605 23.3413C142.828 24.1925 143.061 25.025 143.304 25.8389C143.529 25.0619 143.754 24.2527 143.979 23.4107C144.204 22.569 144.415 21.7318 144.612 20.8993C144.808 20.0667 144.996 19.2576 145.174 18.4711C145.352 17.6849 145.516 16.9586 145.666 16.2928H150C149.589 17.736 149.164 19.1649 148.724 20.5803C148.285 21.9956 147.855 23.3369 147.434 24.6038C147.014 25.871 146.603 27.0415 146.2 28.1142C145.799 29.1872 145.429 30.1121 145.093 30.8891H141.85C141.383 29.4836 140.927 28.0865 140.48 26.6988C140.032 25.3112 139.622 23.9147 139.25 22.5085H139.249Z" fill="#777777"/>
</g>
<defs>
<clipPath id="clip0_57_58">
<rect width="150" height="32" fill="white"/>
</clipPath>
</defs>
</svg>
