<?xml version="1.0" encoding="UTF-8"?><svg id="Layer_1" xmlns="http://www.w3.org/2000/svg" viewBox="0 0 330.43 86.26"><defs><style>.cls-1{fill:#fff;}</style></defs><path class="cls-1" d="M73.92,0h24.86L24.86,86.23H0L73.92,0ZM153.24.4h28.07c13.46,0,21.81,2.44,26.56,6.15,7.19,5.57,10.44,14.04,10.44,23.43,0,6.61-1.86,11.72-4.29,15.54-2.9,4.52-7.08,7.42-11.14,9.16l17.75,31.55h-22.62l-22.39-41.41h3.6c5.57,0,10.32-.46,13.22-2.32,2.67-1.74,4.87-5.8,4.87-10.56s-2.2-8.12-5.1-9.98c-2.44-1.51-5.92-2.32-8.93-2.32h-8.12v66.58h-21.92V.4ZM275.14,54.97l-24.68-31.31.75,31.32.38,18.23.22,13.02h-22.54V.4l27.25-.32,73.92,86.19-30.81-.4-10.22-12.88-14.26-18.01ZM82.29,72.97l-10.22,12.88-30.81.4L115.18.07l27.25.32v85.84h-22.54s.22-13.02.22-13.02l.38-18.23.75-31.32-24.68,31.31-14.26,18.01Z"/></svg>