<?xml version="1.0" encoding="UTF-8"?><svg id="Layer_1" xmlns="http://www.w3.org/2000/svg" viewBox="0 0 321.55 86.19"><defs><style>.cls-1{fill:#fff;}</style></defs><path class="cls-1" d="M21.68,15.78c-1.07,4.93-5.46,8.62-10.71,8.62-3.03,0-5.77-1.23-7.76-3.21-1.45-1.46-2.5-3.33-2.96-5.41h-.25v70.38h21.93V15.78h-.25ZM0,2.12V0h21.92v2.12c0,6.05-4.91,10.96-10.96,10.96h0C4.91,13.08,0,8.17,0,2.12ZM144.36.32h28.07c13.46,0,21.81,2.44,26.56,6.15,7.19,5.57,10.44,14.04,10.44,23.43,0,6.61-1.86,11.72-4.29,15.54-2.9,4.52-7.08,7.42-11.14,9.16l17.75,31.55h-22.62l-22.39-41.41h3.6c5.57,0,10.32-.46,13.22-2.32,2.67-1.74,4.87-5.8,4.87-10.56s-2.2-8.12-5.1-9.98c-2.44-1.51-5.92-2.32-8.93-2.32h-8.12v66.58h-21.92V.32ZM266.25,54.9l-24.68-31.31.75,31.32.38,18.23.22,13.02h-22.54V.32L247.63,0l73.92,86.19-30.81-.4-10.22-12.88-14.26-18.01ZM72.41,72.9l-10.22,12.88-30.81.4L105.3,0l27.25.32v85.84h-22.54s.22-13.02.22-13.02l.38-18.23.75-31.32-24.68,31.31-14.26,18.01Z"/></svg>