<?xml version="1.0" encoding="UTF-8"?><svg id="Layer_1" xmlns="http://www.w3.org/2000/svg" viewBox="0 0 321.55 86.19"><defs><style>.cls-1{fill:#fff;}</style></defs><path class="cls-1" d="M21.92,0v86.17H0V0h21.92ZM144.36,86.17h21.92V19.59h8.12c3.02,0,6.5.81,8.93,2.32,2.9,1.86,5.1,5.45,5.1,9.98,0,4.76-2.2,8.82-4.87,10.56-2.9,1.86-7.66,2.32-13.22,2.32h-3.6l22.39,41.41h22.62l-17.75-31.55c4.06-1.74,8.24-4.64,11.14-9.16,2.44-3.83,4.29-8.93,4.29-15.54,0-9.4-3.25-17.86-10.44-23.43-4.76-3.71-13.11-6.15-26.56-6.15h-28.07v85.84ZM280.51,72.91l10.22,12.88,30.81.4L247.62,0l-27.25.32v85.84h22.54l-.22-13.02-.38-18.23-.75-31.32,24.68,31.31,14.26,18.01ZM86.66,54.9l24.68-31.31-.75,31.32-.38,18.23-.22,13.02h22.54s0-85.84,0-85.84L105.29,0,31.37,86.19l30.81-.4,10.22-12.88,14.26-18.01Z"/></svg>