<?xml version="1.0" encoding="UTF-8"?><svg id="Layer_1" xmlns="http://www.w3.org/2000/svg" viewBox="0 0 290.18 105.21"><defs><style>.cls-1{fill:#fff;}</style></defs><path class="cls-1" d="M112.99,19.35h28.07c13.46,0,21.81,2.44,26.56,6.15,7.19,5.57,10.44,14.04,10.44,23.43,0,6.61-1.86,11.72-4.29,15.54-2.9,4.52-7.08,7.42-11.14,9.16l17.75,31.55h-22.62l-22.39-41.41h3.6c5.57,0,10.32-.46,13.22-2.32,2.67-1.74,4.87-5.8,4.87-10.56s-2.2-8.12-5.1-9.98c-2.44-1.51-5.92-2.32-8.93-2.32h-8.12v66.58h-21.92V19.35ZM249.14,91.93l10.22,12.88,30.81.4L216.25,19.02l-27.25.32v85.84h22.54l-.22-13.02-.38-18.23-.75-31.32,24.68,31.31,14.26,18.01ZM55.3,73.92l24.68-31.31-.75,31.32-.38,18.23-.22,13.02h22.54s0-85.84,0-85.84l-27.25-.32L0,105.21l30.81-.4,10.22-12.88,14.26-18.01ZM44.4,19.02v86.16h21.93V19.02h-21.93ZM66.33,13.69v-7.58h-21.93v7.58h21.93ZM215.89,13.69v-7.58H73.84v7.58h142.05ZM66.33,2.58V0h-21.93v2.58h21.93ZM215.89,2.58V0H73.84v2.58h142.05Z"/></svg>